SplineFontDB: 3.2
FontName: MayaluRegular_uni
FullName: MayaluRegular_uni
FamilyName: Mayalu
Weight: Book
Copyright: Copyright (c) 2024, Ratan
UComments: "2024-5-3: Created with FontForge (http://fontforge.org)"
Version: 001.000
ItalicAngle: 0
UnderlinePosition: -100
UnderlineWidth: 50
Ascent: 800
Descent: 200
InvalidEm: 0
sfntRevision: 0x00010000
LayerCount: 2
Layer: 0 1 "Back" 1
Layer: 1 1 "Fore" 0
XUID: [1021 687 -155201865 6021]
StyleMap: 0x0000
FSType: 0
OS2Version: 4
OS2_WeightWidthSlopeOnly: 0
OS2_UseTypoMetrics: 1
CreationTime: 1714720490
ModificationTime: 1716149576
PfmFamily: 17
TTFWeight: 400
TTFWidth: 5
LineGap: 90
VLineGap: 0
Panose: 2 0 5 3 0 0 0 0 0 0
OS2TypoAscent: 800
OS2TypoAOffset: 0
OS2TypoDescent: -200
OS2TypoDOffset: 0
OS2TypoLinegap: 90
OS2WinAscent: 720
OS2WinAOffset: 0
OS2WinDescent: 197
OS2WinDOffset: 0
HheadAscent: 720
HheadAOffset: 0
HheadDescent: -197
HheadDOffset: 0
OS2SubXSize: 650
OS2SubYSize: 700
OS2SubXOff: 0
OS2SubYOff: 140
OS2SupXSize: 650
OS2SupYSize: 700
OS2SupXOff: 0
OS2SupYOff: 480
OS2StrikeYSize: 49
OS2StrikeYPos: 258
OS2Vendor: 'PfEd'
OS2CodePages: 00000001.00000000
OS2UnicodeRanges: 80008023.00000000.00000000.00000000
Lookup: 1 0 0 "Single Substitution Ikar Dirgha 1" { "Single Substitution Ikar Dirgha 1-1"  } []
Lookup: 1 0 0 "Single Substitution Bindu" { "Single Substitution Bindu-3"  "Single Substitution Bindu-2"  "Single Substitution Bindu-1"  } []
Lookup: 1 0 0 "Single Substitution Ikar Hraswa 2" { "Single Substitution Ikar Hraswa 2-1"  } []
Lookup: 1 0 0 "Single Substitution Ikar Hraswa 3" { "Single Substitution Ikar Hraswa 3-1"  } []
Lookup: 1 0 0 "Single Substitution Ikar Hraswa 4" { "Single Substitution Ikar Hraswa 4-1"  } []
Lookup: 1 0 0 "Single Substitution Ikar Hraswa 5" { "Single Substitution Ikar Hraswa 5-1"  } []
Lookup: 1 0 0 "Single Substitution Ikar Hraswa 6" { "Single Substitution Ikar Hraswa 6-1"  } []
Lookup: 1 0 0 "Single Substitution Ikar Hraswa 7" { "Single Substitution Ikar Hraswa 7-1"  } []

StartChar: .notdef
Encoding: 103 -1 0
Width: 364
GlyphClass: 1
Flags: W
LayerCount: 2
Fore
SplineSet
33 0 m 1,0,-1
 33 666 l 1,1,-1
 298 666 l 1,2,-1
 298 0 l 1,3,-1
 33 0 l 1,0,-1
66 33 m 1,4,-1
 265 33 l 1,5,-1
 265 633 l 1,6,-1
 66 633 l 1,7,-1
 66 33 l 1,4,-1
EndSplineSet
EndChar

StartChar: exclam
Encoding: 1 33 4
Width: 250
GlyphClass: 2
Flags: W
LayerCount: 2
Fore
SplineSet
123 49 m 128,-1,1
 123 61 123 61 131.5 70 c 128,-1,2
 140 79 140 79 152 79 c 128,-1,3
 164 79 164 79 173 70 c 128,-1,4
 182 61 182 61 182 49 c 128,-1,5
 182 37 182 37 173 28.5 c 128,-1,6
 164 20 164 20 152 20 c 128,-1,7
 140 20 140 20 131.5 28.5 c 128,-1,0
 123 37 123 37 123 49 c 128,-1,1
152 100 m 128,-1,9
 140 100 140 100 131.5 108.5 c 128,-1,10
 123 117 123 117 123 129 c 2,11,-1
 123 454 l 2,12,13
 123 466 123 466 131.5 474 c 128,-1,14
 140 482 140 482 152 482 c 128,-1,15
 164 482 164 482 172.5 474 c 128,-1,16
 181 466 181 466 181 454 c 2,17,-1
 181 129 l 2,18,19
 181 117 181 117 172.5 108.5 c 128,-1,8
 164 100 164 100 152 100 c 128,-1,9
EndSplineSet
EndChar

StartChar: percent
Encoding: 2 37 5
Width: 546
GlyphClass: 2
Flags: W
LayerCount: 2
Fore
SplineSet
420 184 m 128,-1,1
 400 184 400 184 386 170 c 128,-1,2
 372 156 372 156 372 136 c 128,-1,3
 372 116 372 116 386 102 c 128,-1,4
 400 88 400 88 420 88 c 128,-1,5
 440 88 440 88 454 102 c 128,-1,6
 468 116 468 116 468 136 c 128,-1,7
 468 156 468 156 454 170 c 128,-1,0
 440 184 440 184 420 184 c 128,-1,1
420 29 m 128,-1,9
 376 29 376 29 344.5 60.5 c 128,-1,10
 313 92 313 92 313 136 c 128,-1,11
 313 180 313 180 344.5 211.5 c 128,-1,12
 376 243 376 243 420 243 c 128,-1,13
 464 243 464 243 495.5 211.5 c 128,-1,14
 527 180 527 180 527 136 c 128,-1,15
 527 92 527 92 495.5 60.5 c 128,-1,8
 464 29 464 29 420 29 c 128,-1,9
116 464 m 128,-1,17
 96 464 96 464 82.5 450 c 128,-1,18
 69 436 69 436 69 416 c 128,-1,19
 69 396 69 396 82.5 382 c 128,-1,20
 96 368 96 368 116 368 c 128,-1,21
 136 368 136 368 150 382 c 128,-1,22
 164 396 164 396 164 416 c 128,-1,23
 164 436 164 436 150 450 c 128,-1,16
 136 464 136 464 116 464 c 128,-1,17
116 309 m 128,-1,25
 72 309 72 309 41 340.5 c 128,-1,26
 10 372 10 372 10 416 c 128,-1,27
 10 460 10 460 41 491.5 c 128,-1,28
 72 523 72 523 116 523 c 128,-1,29
 160 523 160 523 191.5 491.5 c 128,-1,30
 223 460 223 460 223 416 c 128,-1,31
 223 372 223 372 191.5 340.5 c 128,-1,24
 160 309 160 309 116 309 c 128,-1,25
353 545 m 0,32,33
 362 545 362 545 372 537 c 128,-1,34
 382 529 382 529 382 516 c 0,35,36
 382 512 382 512 380 506 c 2,37,-1
 203 5 l 2,38,39
 196 -15 196 -15 176 -15 c 0,40,41
 165 -15 165 -15 155.5 -6.5 c 128,-1,42
 146 2 146 2 146 15 c 0,43,44
 146 18 146 18 148 24 c 2,45,-1
 325 526 l 2,46,47
 331 545 331 545 353 545 c 0,32,33
EndSplineSet
EndChar

StartChar: parenleft
Encoding: 3 40 6
Width: 217
GlyphClass: 2
Flags: W
LayerCount: 2
Fore
SplineSet
174 24 m 0,0,1
 174 11 174 11 165.5 4 c 128,-1,2
 157 -3 157 -3 147 -3 c 0,3,4
 133 -3 133 -3 126 7 c 0,5,6
 121 13 121 13 114 22.5 c 128,-1,7
 107 32 107 32 90.5 60 c 128,-1,8
 74 88 74 88 62 116 c 128,-1,9
 50 144 50 144 40 184.5 c 128,-1,10
 30 225 30 225 30 263 c 128,-1,11
 30 301 30 301 40 339.5 c 128,-1,12
 50 378 50 378 62 403.5 c 128,-1,13
 74 429 74 429 90 452.5 c 128,-1,14
 106 476 106 476 113 484 c 128,-1,15
 120 492 120 492 125 497 c 0,16,17
 133 505 133 505 144 505 c 128,-1,18
 155 505 155 505 163 497 c 128,-1,19
 171 489 171 489 171 478 c 0,20,21
 171 466 171 466 163 458 c 0,22,23
 154 449 154 449 140.5 432 c 128,-1,24
 127 415 127 415 105.5 364.5 c 128,-1,25
 84 314 84 314 84 263 c 0,26,27
 84 211 84 211 106 154.5 c 128,-1,28
 128 98 128 98 145 72.5 c 128,-1,29
 162 47 162 47 168 41 c 0,30,31
 174 34 174 34 174 24 c 0,0,1
EndSplineSet
EndChar

StartChar: parenright
Encoding: 4 41 7
Width: 258
GlyphClass: 2
Flags: W
LayerCount: 2
Fore
SplineSet
84 478 m 0,0,1
 84 489 84 489 92 497 c 128,-1,2
 100 505 100 505 111 505 c 128,-1,3
 122 505 122 505 130 497 c 0,4,5
 135 492 135 492 142 484 c 128,-1,6
 149 476 149 476 165 452.5 c 128,-1,7
 181 429 181 429 193 403.5 c 128,-1,8
 205 378 205 378 215 339.5 c 128,-1,9
 225 301 225 301 225 263 c 128,-1,10
 225 225 225 225 215 184.5 c 128,-1,11
 205 144 205 144 193 116 c 128,-1,12
 181 88 181 88 164.5 60 c 128,-1,13
 148 32 148 32 141 22.5 c 128,-1,14
 134 13 134 13 129 7 c 0,15,16
 122 -3 122 -3 108 -3 c 0,17,18
 98 -3 98 -3 89.5 4 c 128,-1,19
 81 11 81 11 81 24 c 0,20,21
 81 34 81 34 87 41 c 0,22,23
 93 47 93 47 110 72.5 c 128,-1,24
 127 98 127 98 149 154.5 c 128,-1,25
 171 211 171 211 171 263 c 0,26,27
 171 314 171 314 149.5 364.5 c 128,-1,28
 128 415 128 415 114.5 432 c 128,-1,29
 101 449 101 449 92 458 c 0,30,31
 84 466 84 466 84 478 c 0,0,1
EndSplineSet
EndChar

StartChar: asterisk
Encoding: 5 42 8
Width: 562
GlyphClass: 2
Flags: W
LayerCount: 2
Fore
SplineSet
231 299 m 0,0,1
 222 299 222 299 213 305.5 c 128,-1,2
 204 312 204 312 204 325 c 2,3,-1
 204 395 l 1,4,-1
 127 351 l 2,5,6
 122 347 122 347 115 347 c 0,7,8
 104 347 104 347 95.5 356 c 128,-1,9
 87 365 87 365 87 376 c 0,10,11
 87 390 87 390 100 397 c 2,12,-1
 178 442 l 1,13,-1
 101 486 l 2,14,15
 88 492 88 492 88 508 c 0,16,17
 88 519 88 519 96 527.5 c 128,-1,18
 104 536 104 536 115 536 c 0,19,20
 123 536 123 536 128 532 c 2,21,-1
 204 488 l 1,22,-1
 204 558 l 2,23,24
 204 584 204 584 231 584 c 0,25,26
 243 584 243 584 250 576 c 128,-1,27
 257 568 257 568 257 558 c 2,28,-1
 257 488 l 1,29,-1
 334 532 l 2,30,31
 339 536 339 536 347 536 c 0,32,33
 357 536 357 536 365 528 c 128,-1,34
 373 520 373 520 373 509 c 0,35,36
 373 494 373 494 360 486 c 2,37,-1
 284 442 l 1,38,-1
 360 397 l 2,39,40
 373 390 373 390 373 375 c 0,41,42
 373 364 373 364 365.5 355.5 c 128,-1,43
 358 347 358 347 348 347 c 0,44,45
 339 347 339 347 334 351 c 2,46,-1
 257 396 l 1,47,-1
 257 325 l 2,48,49
 257 314 257 314 249.5 306.5 c 128,-1,50
 242 299 242 299 231 299 c 0,0,1
EndSplineSet
EndChar

StartChar: plus
Encoding: 6 43 9
Width: 453
GlyphClass: 2
Flags: W
LayerCount: 2
Fore
SplineSet
218 173 m 0,0,1
 208 173 208 173 198 180.5 c 128,-1,2
 188 188 188 188 188 202 c 2,3,-1
 188 332 l 1,4,-1
 58 332 l 2,5,6
 44 332 44 332 36.5 342 c 128,-1,7
 29 352 29 352 29 362 c 0,8,9
 29 373 29 373 36.5 382 c 128,-1,10
 44 391 44 391 58 391 c 2,11,-1
 188 391 l 1,12,-1
 188 521 l 2,13,14
 188 550 188 550 218 550 c 0,15,16
 222 550 222 550 227 549 c 128,-1,17
 232 548 232 548 239.5 541 c 128,-1,18
 247 534 247 534 247 521 c 2,19,-1
 247 391 l 1,20,-1
 377 391 l 2,21,22
 381 391 381 391 386 390 c 128,-1,23
 391 389 391 389 398.5 382 c 128,-1,24
 406 375 406 375 406 362 c 0,25,26
 406 332 406 332 377 332 c 2,27,-1
 247 332 l 1,28,-1
 247 202 l 2,29,30
 247 188 247 188 238 180.5 c 128,-1,31
 229 173 229 173 218 173 c 0,0,1
EndSplineSet
EndChar

StartChar: comma
Encoding: 7 44 10
Width: 138
GlyphClass: 2
Flags: W
LayerCount: 2
Fore
SplineSet
42 -60 m 0,0,1
 42 -50 42 -50 58.5 -38 c 128,-1,2
 75 -26 75 -26 85 -4 c 1,3,4
 68 -4 68 -4 57.5 7 c 128,-1,5
 47 18 47 18 47 34 c 128,-1,6
 47 50 47 50 57.5 62 c 128,-1,7
 68 74 68 74 85 74 c 128,-1,8
 102 74 102 74 114.5 61 c 128,-1,9
 127 48 127 48 127 23 c 0,10,11
 127 -18 127 -18 102.5 -48 c 128,-1,12
 78 -78 78 -78 58 -78 c 0,13,14
 54 -78 54 -78 48 -72.5 c 128,-1,15
 42 -67 42 -67 42 -60 c 0,0,1
EndSplineSet
EndChar

StartChar: hyphen
Encoding: 8 45 11
Width: 334
GlyphClass: 2
Flags: W
LayerCount: 2
Fore
SplineSet
259 242 m 0,0,1
 259 232 259 232 251.5 222 c 128,-1,2
 244 212 244 212 230 212 c 2,3,-1
 91 212 l 2,4,5
 62 212 62 212 62 242 c 0,6,7
 62 256 62 256 71 263.5 c 128,-1,8
 80 271 80 271 91 271 c 2,9,-1
 230 271 l 2,10,11
 241 271 241 271 250 262 c 128,-1,12
 259 253 259 253 259 242 c 0,0,1
EndSplineSet
EndChar

StartChar: period
Encoding: 9 46 12
Width: 78
GlyphClass: 2
Flags: W
LayerCount: 2
Fore
SplineSet
73 42 m 0,0,1
 73 27 73 27 63 17 c 128,-1,2
 53 7 53 7 38 7 c 128,-1,3
 23 7 23 7 13 17 c 128,-1,4
 3 27 3 27 3 42 c 0,5,6
 3 56 3 56 13.5 66.5 c 128,-1,7
 24 77 24 77 38 77 c 128,-1,8
 52 77 52 77 62.5 66.5 c 128,-1,9
 73 56 73 56 73 42 c 0,0,1
EndSplineSet
EndChar

StartChar: slash
Encoding: 10 47 13
Width: 298
GlyphClass: 2
Flags: W
LayerCount: 2
Fore
SplineSet
56 -15 m 0,0,1
 42 -15 42 -15 34 -5.5 c 128,-1,2
 26 4 26 4 26 15 c 0,3,4
 26 18 26 18 28 24 c 2,5,-1
 205 526 l 2,6,7
 214 545 214 545 231 545 c 0,8,9
 243 545 243 545 252.5 536.5 c 128,-1,10
 262 528 262 528 262 516 c 0,11,12
 262 512 262 512 260 506 c 2,13,-1
 83 5 l 2,14,15
 75 -15 75 -15 56 -15 c 0,0,1
EndSplineSet
EndChar

StartChar: colon
Encoding: 11 58 14
Width: 130
GlyphClass: 2
Flags: W
LayerCount: 2
Fore
SplineSet
90 340 m 0,0,1
 90 325 90 325 80 315 c 128,-1,2
 70 305 70 305 55 305 c 128,-1,3
 40 305 40 305 30 315 c 128,-1,4
 20 325 20 325 20 340 c 0,5,6
 20 356 20 356 31 366 c 128,-1,7
 42 376 42 376 55 376 c 128,-1,8
 68 376 68 376 79 366 c 128,-1,9
 90 356 90 356 90 340 c 0,0,1
94 154 m 128,-1,11
 94 138 94 138 84 128 c 128,-1,12
 74 118 74 118 59 118 c 128,-1,13
 44 118 44 118 34 128 c 128,-1,14
 24 138 24 138 24 154 c 128,-1,15
 24 170 24 170 35 179.5 c 128,-1,16
 46 189 46 189 59 189 c 128,-1,17
 72 189 72 189 83 179.5 c 128,-1,10
 94 170 94 170 94 154 c 128,-1,11
EndSplineSet
EndChar

StartChar: semicolon
Encoding: 12 59 15
Width: 173
GlyphClass: 2
Flags: W
LayerCount: 2
Fore
SplineSet
50 45 m 0,0,1
 50 55 50 55 66.5 67 c 128,-1,2
 83 79 83 79 93 101 c 1,3,4
 76 101 76 101 65.5 112 c 128,-1,5
 55 123 55 123 55 139 c 0,6,7
 55 156 55 156 66 167.5 c 128,-1,8
 77 179 77 179 92 179 c 0,9,10
 99 179 99 179 106.5 177 c 128,-1,11
 114 175 114 175 124 162.5 c 128,-1,12
 134 150 134 150 134 128 c 0,13,14
 134 87 134 87 110 57 c 128,-1,15
 86 27 86 27 66 27 c 0,16,17
 62 27 62 27 56 32.5 c 128,-1,18
 50 38 50 38 50 45 c 0,0,1
135 313 m 0,19,20
 135 295 135 295 122.5 283 c 128,-1,21
 110 271 110 271 92 271 c 128,-1,22
 74 271 74 271 62 283 c 128,-1,23
 50 295 50 295 50 313 c 0,24,25
 50 330 50 330 63 343 c 128,-1,26
 76 356 76 356 92 356 c 128,-1,27
 108 356 108 356 121.5 343 c 128,-1,28
 135 330 135 330 135 313 c 0,19,20
EndSplineSet
EndChar

StartChar: less
Encoding: 13 60 16
Width: 0
GlyphClass: 2
Flags: W
LayerCount: 2
Fore
SplineSet
-120 286 m 1,0,1
 -172 327 -172 327 -193 348 c 128,-1,2
 -214 369 -214 369 -214 382 c 0,3,4
 -214 390 -214 390 -206.5 398 c 128,-1,5
 -199 406 -199 406 -188 406 c 0,6,7
 -180 406 -180 406 -159 390 c 128,-1,8
 -138 374 -138 374 -109.5 350.5 c 128,-1,9
 -81 327 -81 327 -68 318 c 0,10,11
 -47 304 -47 304 -45 286 c 0,12,13
 -45 268 -45 268 -136 194 c 0,14,15
 -162 172 -162 172 -180 172 c 2,16,-1
 -182 172 l 1,17,18
 -205 179 -205 179 -205 197 c 0,19,20
 -205 209 -205 209 -196 218.5 c 128,-1,21
 -187 228 -187 228 -132 276 c 0,22,23
 -124 282 -124 282 -120 286 c 1,0,1
EndSplineSet
EndChar

StartChar: equal
Encoding: 14 61 17
Width: 369
GlyphClass: 2
Flags: W
LayerCount: 2
Fore
SplineSet
336 362 m 0,0,1
 336 332 336 332 307 332 c 2,2,-1
 58 332 l 2,3,4
 44 332 44 332 36.5 342 c 128,-1,5
 29 352 29 352 29 362 c 0,6,7
 29 373 29 373 38 382 c 128,-1,8
 47 391 47 391 58 391 c 2,9,-1
 307 391 l 2,10,11
 318 391 318 391 327 383.5 c 128,-1,12
 336 376 336 376 336 362 c 0,0,1
336 252 m 0,13,14
 336 222 336 222 307 222 c 2,15,-1
 58 222 l 2,16,17
 44 222 44 222 36.5 232 c 128,-1,18
 29 242 29 242 29 252 c 0,19,20
 29 263 29 263 38 272 c 128,-1,21
 47 281 47 281 58 281 c 2,22,-1
 307 281 l 2,23,24
 318 281 318 281 327 273.5 c 128,-1,25
 336 266 336 266 336 252 c 0,13,14
EndSplineSet
EndChar

StartChar: greater
Encoding: 15 62 18
Width: 0
GlyphClass: 2
Flags: W
LayerCount: 2
Fore
SplineSet
-53 198 m 0,0,1
 -53 190 -53 190 -60.5 181.5 c 128,-1,2
 -68 173 -68 173 -76 172 c 2,3,-1
 -78 172 l 2,4,5
 -92 172 -92 172 -109 184 c 128,-1,6
 -126 196 -126 196 -164 230 c 0,7,8
 -214 275 -214 275 -214 286 c 0,9,10
 -212 303 -212 303 -190 318 c 0,11,12
 -181 324 -181 324 -153 347 c 128,-1,13
 -125 370 -125 370 -101 388.5 c 128,-1,14
 -77 407 -77 407 -70 407 c 0,15,16
 -60 407 -60 407 -52 398.5 c 128,-1,17
 -44 390 -44 390 -44 382 c 0,18,19
 -44 369 -44 369 -65 348 c 128,-1,20
 -86 327 -86 327 -138 286 c 1,21,22
 -134 282 -134 282 -126 276 c 0,23,24
 -82 239 -82 239 -67.5 224 c 128,-1,25
 -53 209 -53 209 -53 198 c 0,0,1
EndSplineSet
EndChar

StartChar: question
Encoding: 16 63 19
Width: 398
GlyphClass: 2
Flags: W
LayerCount: 2
Fore
SplineSet
208 -27 m 0,0,1
 197 -27 197 -27 188 -18 c 128,-1,2
 179 -9 179 -9 179 2 c 0,3,4
 179 14 179 14 187 23 c 128,-1,5
 195 32 195 32 208 32 c 0,6,7
 220 32 220 32 229 23 c 128,-1,8
 238 14 238 14 238 2 c 0,9,10
 238 -11 238 -11 229 -19 c 128,-1,11
 220 -27 220 -27 208 -27 c 0,0,1
348 384 m 0,12,13
 348 348 348 348 328 311 c 128,-1,14
 308 274 308 274 284 249.5 c 128,-1,15
 260 225 260 225 238.5 198.5 c 128,-1,16
 217 172 217 172 214 155 c 2,17,-1
 214 154 l 2,18,19
 213 149 213 149 213 141 c 0,20,21
 213 126 213 126 222.5 115 c 128,-1,22
 232 104 232 104 232 93 c 0,23,24
 228 65 228 65 201 65 c 0,25,26
 181 65 181 65 167.5 93.5 c 128,-1,27
 154 122 154 122 154 146 c 0,28,29
 154 176 154 176 167.5 199.5 c 128,-1,30
 181 223 181 223 220 264 c 0,31,32
 290 334 290 334 290 384 c 0,33,34
 290 396 290 396 287 406.5 c 128,-1,35
 284 417 284 417 267.5 429.5 c 128,-1,36
 251 442 251 442 222 442 c 0,37,38
 184 442 184 442 164.5 424.5 c 128,-1,39
 145 407 145 407 145 386 c 0,40,41
 145 357 145 357 172 345 c 0,42,43
 187 336 187 336 187 319 c 0,44,45
 187 307 187 307 178.5 298.5 c 128,-1,46
 170 290 170 290 158 290 c 0,47,48
 138 290 138 290 112.5 317.5 c 128,-1,49
 87 345 87 345 87 384 c 0,50,51
 87 434 87 434 125 467 c 128,-1,52
 163 500 163 500 222 500 c 0,53,54
 285 500 285 500 316.5 465.5 c 128,-1,55
 348 431 348 431 348 384 c 0,12,13
EndSplineSet
EndChar

StartChar: at
Encoding: 17 64 20
Width: 746
GlyphClass: 2
Flags: W
LayerCount: 2
Fore
SplineSet
293 264 m 0,0,1
 293 214 293 214 326 214 c 0,2,3
 331 214 331 214 339 216 c 2,4,-1
 340 216 l 1,5,-1
 342 217 l 1,6,-1
 343 217 l 1,7,8
 384 229 384 229 410 255.5 c 128,-1,9
 436 282 436 282 459 323 c 0,10,11
 464 332 464 332 475 337 c 1,12,13
 467 380 467 380 402 380 c 0,14,15
 365 380 365 380 329 341.5 c 128,-1,16
 293 303 293 303 293 264 c 0,0,1
539 303 m 0,17,18
 539 289 539 289 527.5 262 c 128,-1,19
 516 235 516 235 516 203 c 2,20,-1
 516 201 l 1,21,-1
 521 201 l 1,22,-1
 522 200 l 1,23,-1
 524 200 l 2,24,25
 553 200 553 200 576 239.5 c 128,-1,26
 599 279 599 279 599 346 c 0,27,28
 599 370 599 370 590.5 394.5 c 128,-1,29
 582 419 582 419 563 444 c 128,-1,30
 544 469 544 469 507 484.5 c 128,-1,31
 470 500 470 500 420 500 c 0,32,33
 360 500 360 500 311 476.5 c 128,-1,34
 262 453 262 453 233 417 c 128,-1,35
 204 381 204 381 188.5 341 c 128,-1,36
 173 301 173 301 173 263 c 0,37,38
 173 243 173 243 178.5 221 c 128,-1,39
 184 199 184 199 199 169 c 128,-1,40
 214 139 214 139 250 119.5 c 128,-1,41
 286 100 286 100 338 100 c 0,42,43
 370 100 370 100 403 118 c 128,-1,44
 436 136 436 136 442 136 c 0,45,46
 454 136 454 136 462.5 127.5 c 128,-1,47
 471 119 471 119 471 107 c 0,48,49
 471 93 471 93 458 83 c 0,50,51
 398 42 398 42 338 42 c 0,52,53
 289 42 289 42 249.5 56.5 c 128,-1,54
 210 71 210 71 185.5 94 c 128,-1,55
 161 117 161 117 144.5 147 c 128,-1,56
 128 177 128 177 121.5 206 c 128,-1,57
 115 235 115 235 115 263 c 0,58,59
 115 312 115 312 134.5 363 c 128,-1,60
 154 414 154 414 190 458 c 128,-1,61
 226 502 226 502 286.5 530 c 128,-1,62
 347 558 347 558 420 558 c 0,63,64
 534 558 534 558 595.5 494.5 c 128,-1,65
 657 431 657 431 657 346 c 0,66,67
 657 256 657 256 619 199 c 128,-1,68
 581 142 581 142 524 142 c 0,69,70
 494 142 494 142 475.5 159 c 128,-1,71
 457 176 457 176 457 207 c 0,72,73
 457 216 457 216 458 221 c 1,74,75
 393 156 393 156 325 156 c 0,76,77
 286 156 286 156 260.5 184.5 c 128,-1,78
 235 213 235 213 235 264 c 0,79,80
 235 327 235 327 288 382.5 c 128,-1,81
 341 438 341 438 402 438 c 0,82,83
 440 438 440 438 467.5 426.5 c 128,-1,84
 495 415 495 415 508.5 397.5 c 128,-1,85
 522 380 522 380 527.5 364.5 c 128,-1,86
 533 349 533 349 533 335 c 0,87,88
 533 327 533 327 531 323 c 1,89,90
 539 313 539 313 539 303 c 0,17,18
EndSplineSet
EndChar

StartChar: asciicircum
Encoding: 18 94 21
Width: 0
GlyphClass: 2
Flags: W
LayerCount: 2
Fore
SplineSet
-198 580 m 1,0,1
 -188 590 -188 590 -174 610 c 128,-1,2
 -160 630 -160 630 -149 641.5 c 128,-1,3
 -138 653 -138 653 -126 654 c 0,4,5
 -115 654 -115 654 -63.5 597.5 c 128,-1,6
 -12 541 -12 541 -12 519 c 0,7,8
 -12 510 -12 510 -20 502.5 c 128,-1,9
 -28 495 -28 495 -40 495 c 2,10,-1
 -44 495 l 2,11,12
 -52 496 -52 496 -62 506.5 c 128,-1,13
 -72 517 -72 517 -126 579 c 1,14,15
 -196 485 -196 485 -221 485 c 0,16,17
 -229 485 -229 485 -237.5 493 c 128,-1,18
 -246 501 -246 501 -246 511 c 0,19,20
 -246 517 -246 517 -234 534 c 128,-1,21
 -222 551 -222 551 -211 564 c 128,-1,22
 -200 577 -200 577 -198 579 c 2,23,-1
 -198 580 l 1,0,1
EndSplineSet
EndChar

StartChar: multiply
Encoding: 19 215 22
Width: 369
GlyphClass: 2
Flags: W
LayerCount: 2
Fore
SplineSet
329 249 m 0,0,1
 329 234 329 234 320 226.5 c 128,-1,2
 311 219 311 219 300 219 c 0,3,4
 288 219 288 219 279 228 c 2,5,-1
 188 320 l 1,6,-1
 96 228 l 2,7,8
 87 219 87 219 75 219 c 128,-1,9
 63 219 63 219 54 228 c 128,-1,10
 45 237 45 237 45 249 c 128,-1,11
 45 261 45 261 54 270 c 2,12,-1
 146 362 l 1,13,-1
 54 453 l 2,14,15
 45 462 45 462 45 474 c 0,16,17
 45 485 45 485 52.5 494 c 128,-1,18
 60 503 60 503 75 503 c 0,19,20
 88 503 88 503 96 495 c 2,21,-1
 188 403 l 1,22,-1
 279 495 l 2,23,24
 287 503 287 503 300 503 c 0,25,26
 304 503 304 503 309 502 c 128,-1,27
 314 501 314 501 321.5 494 c 128,-1,28
 329 487 329 487 329 474 c 128,-1,29
 329 461 329 461 321 453 c 2,30,-1
 229 362 l 1,31,-1
 321 270 l 2,32,33
 329 262 329 262 329 249 c 0,0,1
EndSplineSet
EndChar

StartChar: divide
Encoding: 20 247 23
Width: 334
GlyphClass: 2
Flags: W
LayerCount: 2
Fore
SplineSet
279 342 m 0,0,1
 279 332 279 332 271.5 322 c 128,-1,2
 264 312 264 312 250 312 c 2,3,-1
 71 312 l 2,4,5
 42 312 42 312 42 342 c 0,6,7
 42 356 42 356 51 363.5 c 128,-1,8
 60 371 60 371 71 371 c 2,9,-1
 250 371 l 2,10,11
 261 371 261 371 270 362 c 128,-1,12
 279 353 279 353 279 342 c 0,0,1
192 432 m 0,13,14
 192 418 192 418 182.5 409 c 128,-1,15
 173 400 173 400 160 400 c 128,-1,16
 147 400 147 400 137.5 409 c 128,-1,17
 128 418 128 418 128 432 c 0,18,19
 128 444 128 444 138 454 c 128,-1,20
 148 464 148 464 160 464 c 128,-1,21
 172 464 172 464 182 454 c 128,-1,22
 192 444 192 444 192 432 c 0,13,14
192 244 m 0,23,24
 192 231 192 231 182 222 c 128,-1,25
 172 213 172 213 160 213 c 128,-1,26
 148 213 148 213 138 222 c 128,-1,27
 128 231 128 231 128 244 c 0,28,29
 128 256 128 256 136.5 266.5 c 128,-1,30
 145 277 145 277 160 277 c 128,-1,31
 175 277 175 277 183.5 266.5 c 128,-1,32
 192 256 192 256 192 244 c 0,23,24
EndSplineSet
EndChar

StartChar: uni02BC
Encoding: 21 700 24
Width: 196
GlyphClass: 2
Flags: W
LayerCount: 2
Fore
SplineSet
102 410 m 0,0,1
 102 420 102 420 118.5 432 c 128,-1,2
 135 444 135 444 145 466 c 1,3,4
 128 466 128 466 117 477 c 128,-1,5
 106 488 106 488 106 504 c 128,-1,6
 106 520 106 520 117 532 c 128,-1,7
 128 544 128 544 145 544 c 128,-1,8
 162 544 162 544 174.5 531 c 128,-1,9
 187 518 187 518 187 493 c 0,10,11
 187 452 187 452 162.5 422 c 128,-1,12
 138 392 138 392 117 392 c 0,13,14
 113 392 113 392 107.5 397.5 c 128,-1,15
 102 403 102 403 102 410 c 0,0,1
EndSplineSet
EndChar

StartChar: uni0901
Encoding: 22 2305 25
Width: 0
GlyphClass: 4
Flags: W
AnchorPoint: "Anchor_top" -80 520 mark 0
LayerCount: 2
Fore
SplineSet
-31 662 m 0,0,1
 -31 652 -31 652 -39 640.5 c 128,-1,2
 -47 629 -47 629 -62 629 c 0,3,4
 -76 629 -76 629 -86 638.5 c 128,-1,5
 -96 648 -96 648 -96 661 c 0,6,7
 -96 671 -96 671 -88 682.5 c 128,-1,8
 -80 694 -80 694 -65 694 c 0,9,10
 -51 694 -51 694 -41 684.5 c 128,-1,11
 -31 675 -31 675 -31 662 c 0,0,1
28 637 m 0,12,13
 39 637 39 637 48.5 630 c 128,-1,14
 58 623 58 623 58 608 c 0,15,16
 58 588 58 588 24.5 558 c 128,-1,17
 -9 528 -9 528 -60 528 c 0,18,19
 -112 528 -112 528 -146 558.5 c 128,-1,20
 -180 589 -180 589 -180 612 c 0,21,22
 -180 626 -180 626 -171 633.5 c 128,-1,23
 -162 641 -162 641 -150 641 c 0,24,25
 -129 641 -129 641 -123 620 c 1,26,27
 -104 586 -104 586 -62 586 c 0,28,29
 -22 586 -22 586 2 618 c 1,30,31
 9 637 9 637 28 637 c 0,12,13
EndSplineSet
Substitution2: "Single Substitution Chandrabindu-1" Chandrabindu_Alt
EndChar

StartChar: uni0902
Encoding: 23 2306 26
Width: 20
GlyphClass: 4
Flags: W
AnchorPoint: "Anchor_top" 120 572 mark 0
LayerCount: 2
Fore
SplineSet
123 592 m 132,-1,1
 105 592 105 592 93 604 c 132,-1,2
 81 616 81 616 81 634 c 132,-1,3
 81 652 81 652 93 665 c 132,-1,4
 105 678 105 678 123 678 c 132,-1,5
 141 678 141 678 154 665 c 132,-1,6
 167 652 167 652 167 634 c 132,-1,7
 167 616 167 616 154 604 c 132,-1,0
 141 592 141 592 123 592 c 132,-1,1
EndSplineSet
Substitution2: "Single Substitution Bindu-3" Bindu_Alt
EndChar

StartChar: uni0903
Encoding: 24 2307 27
Width: 164
GlyphClass: 2
Flags: W
LayerCount: 2
Fore
SplineSet
82 104 m 128,-1,1
 65 104 65 104 54 115 c 128,-1,2
 43 126 43 126 43 142 c 0,3,4
 43 159 43 159 54.5 171 c 128,-1,5
 66 183 66 183 82 183 c 128,-1,6
 98 183 98 183 110 171 c 128,-1,7
 122 159 122 159 122 142 c 0,8,9
 122 126 122 126 110.5 115 c 128,-1,0
 99 104 99 104 82 104 c 128,-1,1
82 292 m 128,-1,11
 65 292 65 292 54 303 c 128,-1,12
 43 314 43 314 43 330 c 0,13,14
 43 347 43 347 54.5 359 c 128,-1,15
 66 371 66 371 82 371 c 128,-1,16
 98 371 98 371 110 359 c 128,-1,17
 122 347 122 347 122 330 c 0,18,19
 122 314 122 314 110.5 303 c 128,-1,10
 99 292 99 292 82 292 c 128,-1,11
EndSplineSet
EndChar

StartChar: uni0905
Encoding: 25 2309 28
Width: 584
GlyphClass: 2
Flags: W
AnchorPoint: "Anchor_top" 508 512 basechar 0
LayerCount: 2
Fore
SplineSet
156 340 m 1,0,-1
 150 340 l 1,1,-1
 149 339 l 1,2,3
 118 339 118 339 118 386 c 0,4,5
 118 416 118 416 130 441 c 1,6,-1
 1 441 l 2,7,8
 -11 441 -11 441 -19.5 449.5 c 128,-1,9
 -28 458 -28 458 -28 470 c 128,-1,10
 -28 482 -28 482 -19.5 490.5 c 128,-1,11
 -11 499 -11 499 1 499 c 2,12,-1
 184 499 l 1,13,14
 212 514 212 514 249 514 c 0,15,16
 307 514 307 514 337 477 c 128,-1,17
 367 440 367 440 367 390 c 0,18,19
 367 338 367 338 330 300 c 1,20,-1
 339 294 l 2,21,22
 366 274 366 274 381 250 c 1,23,24
 401 244 401 244 425 244 c 0,25,26
 460 244 460 244 482 262 c 1,27,-1
 482 441 l 1,28,-1
 429 441 l 2,29,30
 417 441 417 441 408.5 449.5 c 128,-1,31
 400 458 400 458 400 470 c 128,-1,32
 400 482 400 482 408.5 490.5 c 128,-1,33
 417 499 417 499 429 499 c 2,34,-1
 585 499 l 2,35,36
 597 499 597 499 605.5 490.5 c 128,-1,37
 614 482 614 482 614 470 c 128,-1,38
 614 458 614 458 605.5 449.5 c 128,-1,39
 597 441 597 441 585 441 c 2,40,-1
 540 441 l 1,41,-1
 540 22 l 2,42,43
 540 10 540 10 531.5 1.5 c 128,-1,44
 523 -7 523 -7 511 -7 c 128,-1,45
 499 -7 499 -7 490.5 1.5 c 128,-1,46
 482 10 482 10 482 22 c 2,47,-1
 482 196 l 1,48,49
 455 186 455 186 425 186 c 0,50,51
 411 186 411 186 404 187 c 1,52,-1
 404 178 l 1,53,-1
 405 177 l 1,54,-1
 405 163 l 2,55,56
 405 99 405 99 366.5 59.5 c 128,-1,57
 328 20 328 20 271 17 c 1,58,-1
 270 16 l 1,59,-1
 260 16 l 2,60,61
 170 16 170 16 106.5 81.5 c 128,-1,62
 43 147 43 147 26 236 c 1,63,-1
 26 241 l 2,64,65
 26 265 26 265 49 270 c 1,66,-1
 55 270 l 2,67,68
 78 270 78 270 83 247 c 0,69,70
 96 177 96 177 144.5 125.5 c 128,-1,71
 193 74 193 74 261 74 c 2,72,-1
 266 74 l 1,73,-1
 268 75 l 2,74,75
 275 75 275 75 285.5 77.5 c 128,-1,76
 296 80 296 80 311 88 c 128,-1,77
 326 96 326 96 336.5 115.5 c 128,-1,78
 347 135 347 135 347 163 c 2,79,-1
 347 173 l 2,80,81
 344 207 344 207 322.5 230.5 c 128,-1,82
 301 254 301 254 274 264 c 1,83,84
 242 251 242 251 202 251 c 0,85,86
 190 251 190 251 181.5 259.5 c 128,-1,87
 173 268 173 268 173 280 c 128,-1,88
 173 292 173 292 181.5 300.5 c 128,-1,89
 190 309 190 309 202 309 c 0,90,91
 238 309 238 309 260 322 c 1,92,-1
 262 322 l 1,93,94
 280 331 280 331 292 346 c 128,-1,95
 304 361 304 361 306.5 370 c 128,-1,96
 309 379 309 379 309 382 c 2,97,-1
 309 390 l 2,98,99
 309 401 309 401 306.5 413 c 128,-1,100
 304 425 304 425 289.5 440.5 c 128,-1,101
 275 456 275 456 249 456 c 0,102,103
 220 456 220 456 202 440.5 c 128,-1,104
 184 425 184 425 180 411 c 128,-1,105
 176 397 176 397 176 386 c 0,106,107
 176 382 176 382 178 374 c 2,108,-1
 178 368 l 2,109,110
 178 345 178 345 156 340 c 1,0,-1
EndSplineSet
EndChar

StartChar: uni0906
Encoding: 26 2310 29
Width: 758
GlyphClass: 2
Flags: W
AnchorPoint: "Anchor_top" 673 513 basechar 0
LayerCount: 2
Fore
SplineSet
166 340 m 1,0,-1
 160 340 l 1,1,-1
 159 339 l 1,2,3
 128 339 128 339 128 386 c 0,4,5
 128 416 128 416 140 441 c 1,6,-1
 11 441 l 2,7,8
 -1 441 -1 441 -9.5 449.5 c 128,-1,9
 -18 458 -18 458 -18 470 c 128,-1,10
 -18 482 -18 482 -9.5 490.5 c 128,-1,11
 -1 499 -1 499 11 499 c 2,12,-1
 194 499 l 1,13,14
 222 514 222 514 259 514 c 0,15,16
 317 514 317 514 347 477 c 128,-1,17
 377 440 377 440 377 390 c 0,18,19
 377 338 377 338 340 300 c 1,20,-1
 349 294 l 2,21,22
 376 274 376 274 391 250 c 1,23,24
 411 244 411 244 435 244 c 0,25,26
 470 244 470 244 492 262 c 1,27,-1
 492 441 l 1,28,-1
 439 441 l 2,29,30
 427 441 427 441 418.5 449.5 c 128,-1,31
 410 458 410 458 410 470 c 128,-1,32
 410 482 410 482 418.5 490.5 c 128,-1,33
 427 499 427 499 439 499 c 2,34,-1
 771 499 l 2,35,36
 783 499 783 499 791.5 490.5 c 128,-1,37
 800 482 800 482 800 470 c 128,-1,38
 800 458 800 458 791.5 449.5 c 128,-1,39
 783 441 783 441 771 441 c 2,40,-1
 707 441 l 1,41,-1
 707 26 l 2,42,43
 707 14 707 14 698.5 5.5 c 128,-1,44
 690 -3 690 -3 678 -3 c 128,-1,45
 666 -3 666 -3 657.5 5.5 c 128,-1,46
 649 14 649 14 649 26 c 2,47,-1
 649 441 l 1,48,-1
 550 441 l 1,49,-1
 550 22 l 2,50,51
 550 10 550 10 541.5 1.5 c 128,-1,52
 533 -7 533 -7 521 -7 c 128,-1,53
 509 -7 509 -7 500.5 1.5 c 128,-1,54
 492 10 492 10 492 22 c 2,55,-1
 492 196 l 1,56,57
 465 186 465 186 435 186 c 0,58,59
 421 186 421 186 414 187 c 1,60,-1
 414 178 l 1,61,-1
 415 177 l 1,62,-1
 415 163 l 2,63,64
 415 99 415 99 376.5 59.5 c 128,-1,65
 338 20 338 20 281 17 c 1,66,-1
 280 16 l 1,67,-1
 270 16 l 2,68,69
 180 16 180 16 116.5 81.5 c 128,-1,70
 53 147 53 147 36 236 c 1,71,-1
 36 241 l 2,72,73
 36 265 36 265 59 270 c 1,74,-1
 65 270 l 2,75,76
 88 270 88 270 93 247 c 0,77,78
 106 177 106 177 154.5 125.5 c 128,-1,79
 203 74 203 74 271 74 c 2,80,-1
 276 74 l 1,81,-1
 278 75 l 2,82,83
 285 75 285 75 295.5 77.5 c 128,-1,84
 306 80 306 80 321 88 c 128,-1,85
 336 96 336 96 346.5 115.5 c 128,-1,86
 357 135 357 135 357 163 c 2,87,-1
 357 173 l 2,88,89
 354 207 354 207 332.5 230.5 c 128,-1,90
 311 254 311 254 284 264 c 1,91,92
 252 251 252 251 212 251 c 0,93,94
 200 251 200 251 191.5 259.5 c 128,-1,95
 183 268 183 268 183 280 c 128,-1,96
 183 292 183 292 191.5 300.5 c 128,-1,97
 200 309 200 309 212 309 c 0,98,99
 248 309 248 309 270 322 c 1,100,-1
 272 322 l 1,101,102
 290 331 290 331 302 346 c 128,-1,103
 314 361 314 361 316.5 370 c 128,-1,104
 319 379 319 379 319 382 c 2,105,-1
 319 390 l 2,106,107
 319 401 319 401 316.5 413 c 128,-1,108
 314 425 314 425 299.5 440.5 c 128,-1,109
 285 456 285 456 259 456 c 0,110,111
 230 456 230 456 212 440.5 c 128,-1,112
 194 425 194 425 190 411 c 128,-1,113
 186 397 186 397 186 386 c 0,114,115
 186 382 186 382 188 374 c 2,116,-1
 188 368 l 2,117,118
 188 345 188 345 166 340 c 1,0,-1
EndSplineSet
EndChar

StartChar: uni0907
Encoding: 27 2311 30
Width: 386
GlyphClass: 2
Flags: W
AnchorPoint: "Anchor_top" 245 514 basechar 0
LayerCount: 2
Fore
SplineSet
212 226 m 1,0,-1
 208 226 l 1,1,-1
 206 226 l 1,2,-1
 204 225 l 2,3,4
 197 225 197 225 193 224 c 0,5,6
 192 224 192 224 192 223.5 c 128,-1,7
 192 223 192 223 191 223 c 2,8,-1
 188 223 l 1,9,10
 160 216 160 216 127 216 c 0,11,12
 83 216 83 216 56 238.5 c 128,-1,13
 29 261 29 261 29 301 c 0,14,15
 29 335 29 335 60 363 c 128,-1,16
 91 391 91 391 169 394 c 2,17,-1
 224 394 l 1,18,-1
 224 441 l 1,19,-1
 -4 441 l 2,20,21
 -16 441 -16 441 -24.5 449.5 c 128,-1,22
 -33 458 -33 458 -33 470 c 128,-1,23
 -33 482 -33 482 -24.5 490.5 c 128,-1,24
 -16 499 -16 499 -4 499 c 2,25,-1
 389 499 l 2,26,27
 401 499 401 499 409.5 490.5 c 128,-1,28
 418 482 418 482 418 470 c 128,-1,29
 418 458 418 458 409.5 449.5 c 128,-1,30
 401 441 401 441 389 441 c 2,31,-1
 282 441 l 1,32,-1
 282 365 l 2,33,34
 282 352 282 352 273.5 344 c 128,-1,35
 265 336 265 336 253 336 c 2,36,-1
 171 336 l 1,37,38
 88 332 88 332 88 299 c 0,39,40
 88 274 88 274 127 274 c 0,41,42
 157 274 157 274 189 282 c 1,43,-1
 191 282 l 2,44,45
 207 284 207 284 214 285 c 2,46,-1
 232 285 l 2,47,48
 293 285 293 285 332.5 256.5 c 128,-1,49
 372 228 372 228 372 182 c 2,50,-1
 372 173 l 1,51,52
 363 83 363 83 239 44 c 1,53,54
 244 36 244 36 252 28 c 2,55,-1
 253 26 l 2,56,57
 254 25 254 25 260 16.5 c 128,-1,58
 266 8 266 8 267 7 c 2,59,-1
 267 6 l 1,60,61
 272 -2 272 -2 272 -10 c 0,62,63
 272 -21 272 -21 263.5 -30 c 128,-1,64
 255 -39 255 -39 243 -39 c 0,65,66
 229 -39 229 -39 219 -26 c 0,67,68
 200 2 200 2 176 31 c 1,69,-1
 174 30 l 1,70,-1
 170 30 l 2,71,72
 165 29 165 29 149 29 c 0,73,74
 97 29 97 29 59 49 c 128,-1,75
 21 69 21 69 19 106 c 1,76,-1
 18 108 l 1,77,-1
 18 112 l 2,78,79
 18 136 18 136 34.5 151 c 128,-1,80
 51 166 51 166 77 166 c 0,81,82
 108 166 108 166 135 149.5 c 128,-1,83
 162 133 162 133 198 94 c 1,84,85
 261 108 261 108 287.5 131 c 128,-1,86
 314 154 314 154 314 178 c 0,87,88
 314 203 314 203 289 215 c 128,-1,89
 264 227 264 227 232 227 c 2,90,-1
 214 227 l 1,91,-1
 212 226 l 1,0,-1
EndSplineSet
EndChar

StartChar: uni0908
Encoding: 28 2312 31
Width: 440
GlyphClass: 2
Flags: W
AnchorPoint: "Anchor_top" 271 513 basechar 0
LayerCount: 2
Fore
SplineSet
242 226 m 1,0,-1
 238 226 l 1,1,-1
 236 226 l 1,2,-1
 234 225 l 2,3,4
 227 225 227 225 223 224 c 0,5,6
 222 224 222 224 222 223.5 c 128,-1,7
 222 223 222 223 221 223 c 2,8,-1
 218 223 l 1,9,10
 190 216 190 216 157 216 c 0,11,12
 113 216 113 216 86 238.5 c 128,-1,13
 59 261 59 261 59 301 c 0,14,15
 59 335 59 335 90 363 c 0,16,17
 124 394 124 394 199 394 c 2,18,-1
 254 394 l 1,19,-1
 254 441 l 1,20,-1
 0 441 l 2,21,22
 -12 441 -12 441 -20.5 449.5 c 128,-1,23
 -29 458 -29 458 -29 470 c 128,-1,24
 -29 482 -29 482 -20.5 490.5 c 128,-1,25
 -12 499 -12 499 0 499 c 2,26,-1
 188 499 l 1,27,28
 158 536 158 536 158 582 c 0,29,30
 158 626 158 626 190 658 c 128,-1,31
 222 690 222 690 264 690 c 0,32,33
 303 690 303 690 334.5 664 c 128,-1,34
 366 638 366 638 366 620 c 0,35,36
 366 611 366 611 359.5 601 c 128,-1,37
 353 591 353 591 337 591 c 0,38,39
 325 591 325 591 305.5 611.5 c 128,-1,40
 286 632 286 632 264 632 c 0,41,42
 247 632 247 632 231.5 618 c 128,-1,43
 216 604 216 604 216 582 c 2,44,-1
 216 574 l 1,45,46
 223 525 223 525 288 499 c 1,47,-1
 438 499 l 6,48,49
 450 499 450 499 458.5 490.5 c 132,-1,50
 467 482 467 482 467 470 c 132,-1,51
 467 458 467 458 458.5 449.5 c 132,-1,52
 450 441 450 441 438 441 c 6,53,-1
 312 441 l 1,54,-1
 312 365 l 2,55,56
 312 352 312 352 303.5 344 c 128,-1,57
 295 336 295 336 283 336 c 2,58,-1
 201 336 l 1,59,60
 118 332 118 332 118 299 c 0,61,62
 118 274 118 274 157 274 c 0,63,64
 187 274 187 274 219 282 c 1,65,-1
 221 282 l 2,66,67
 223 282 223 282 244 285 c 2,68,-1
 262 285 l 2,69,70
 323 285 323 285 362.5 256.5 c 128,-1,71
 402 228 402 228 402 182 c 2,72,-1
 402 173 l 1,73,74
 393 83 393 83 269 44 c 1,75,76
 274 36 274 36 282 28 c 2,77,-1
 283 26 l 2,78,79
 284 25 284 25 290 16.5 c 128,-1,80
 296 8 296 8 297 7 c 2,81,-1
 297 6 l 1,82,83
 302 -2 302 -2 302 -10 c 0,84,85
 302 -21 302 -21 293.5 -30 c 128,-1,86
 285 -39 285 -39 273 -39 c 0,87,88
 259 -39 259 -39 249 -26 c 0,89,90
 230 2 230 2 206 31 c 1,91,-1
 204 30 l 1,92,-1
 200 30 l 2,93,94
 195 29 195 29 179 29 c 0,95,96
 127 29 127 29 89 49 c 128,-1,97
 51 69 51 69 49 106 c 1,98,-1
 48 108 l 1,99,-1
 48 112 l 2,100,101
 48 136 48 136 64.5 151 c 128,-1,102
 81 166 81 166 107 166 c 0,103,104
 138 166 138 166 165 149.5 c 128,-1,105
 192 133 192 133 228 94 c 1,106,107
 291 108 291 108 317.5 131 c 128,-1,108
 344 154 344 154 344 178 c 0,109,110
 344 203 344 203 319 215 c 128,-1,111
 294 227 294 227 262 227 c 2,112,-1
 244 227 l 1,113,-1
 242 226 l 1,0,-1
EndSplineSet
EndChar

StartChar: uni0909
Encoding: 29 2313 32
Width: 444
GlyphClass: 2
Flags: W
AnchorPoint: "Anchor_top" 244 550 basechar 0
LayerCount: 2
Fore
SplineSet
150 338 m 1,0,-1
 146 338 l 2,1,2
 115 338 115 338 115 386 c 0,3,4
 115 416 115 416 127 441 c 1,5,-1
 7 441 l 2,6,7
 -5 441 -5 441 -13.5 449.5 c 128,-1,8
 -22 458 -22 458 -22 470 c 128,-1,9
 -22 482 -22 482 -13.5 490.5 c 128,-1,10
 -5 499 -5 499 7 499 c 2,11,-1
 180 499 l 1,12,13
 208 514 208 514 245 514 c 0,14,15
 280 514 280 514 308 497 c 1,16,17
 314 499 314 499 317 499 c 2,18,-1
 446 499 l 2,19,20
 458 499 458 499 466.5 490.5 c 128,-1,21
 475 482 475 482 475 470 c 128,-1,22
 475 458 475 458 466.5 449.5 c 128,-1,23
 458 441 458 441 446 441 c 2,24,-1
 354 441 l 1,25,26
 363 418 363 418 363 389 c 2,27,-1
 363 384 l 2,28,29
 363 338 363 338 326 300 c 1,30,-1
 335 294 l 2,31,32
 396 249 396 249 401 176 c 1,33,-1
 401 162 l 2,34,35
 401 98 401 98 363 58.5 c 128,-1,36
 325 19 325 19 268 16 c 2,37,-1
 257 16 l 2,38,39
 167 16 167 16 103 81 c 128,-1,40
 39 146 39 146 22 235 c 1,41,-1
 22 241 l 2,42,43
 22 264 22 264 46 269 c 1,44,-1
 47 270 l 1,45,-1
 51 270 l 2,46,47
 75 270 75 270 80 246 c 0,48,49
 93 176 93 176 141 125 c 128,-1,50
 189 74 189 74 257 74 c 2,51,-1
 265 74 l 2,52,53
 273 74 273 74 280.5 75.5 c 128,-1,54
 288 77 288 77 300 82.5 c 128,-1,55
 312 88 312 88 321 97 c 128,-1,56
 330 106 330 106 336.5 123 c 128,-1,57
 343 140 343 140 343 162 c 2,58,-1
 343 172 l 1,59,60
 339 236 339 236 270 263 c 1,61,62
 240 251 240 251 199 251 c 0,63,64
 187 251 187 251 178 259.5 c 128,-1,65
 169 268 169 268 169 280 c 128,-1,66
 169 292 169 292 178 300.5 c 128,-1,67
 187 309 187 309 199 309 c 0,68,69
 245 309 245 309 257 321 c 1,70,-1
 258 321 l 1,71,72
 276 330 276 330 288 345.5 c 128,-1,73
 300 361 300 361 302.5 369.5 c 128,-1,74
 305 378 305 378 305 382 c 2,75,-1
 305 389 l 2,76,77
 305 400 305 400 302.5 412.5 c 128,-1,78
 300 425 300 425 285.5 440.5 c 128,-1,79
 271 456 271 456 245 456 c 0,80,81
 216 456 216 456 198 440 c 128,-1,82
 180 424 180 424 176.5 410.5 c 128,-1,83
 173 397 173 397 173 386 c 0,84,85
 173 378 173 378 174 374 c 2,86,-1
 174 368 l 1,87,-1
 175 367 l 1,88,89
 175 344 175 344 152 339 c 1,90,-1
 150 338 l 1,0,-1
EndSplineSet
EndChar

StartChar: uni090A
Encoding: 30 2314 33
Width: 690
GlyphClass: 2
Flags: W
AnchorPoint: "Anchor_top" 424 524 basechar 0
LayerCount: 2
Fore
SplineSet
539 355 m 2,0,-1
 548 355 l 1,1,2
 605 348 605 348 633.5 312 c 128,-1,3
 662 276 662 276 662 227 c 2,4,-1
 662 222 l 2,5,6
 662 172 662 172 624.5 124 c 128,-1,7
 587 76 587 76 523 66 c 1,8,-1
 522 66 l 1,9,-1
 520 65 l 1,10,-1
 516 65 l 2,11,12
 511 64 511 64 506 64 c 0,13,14
 497 64 497 64 488 73.5 c 128,-1,15
 479 83 479 83 479 94 c 0,16,17
 479 116 479 116 513 123 c 0,18,19
 553 130 553 130 578.5 160.5 c 128,-1,20
 604 191 604 191 604 227 c 0,21,22
 604 262 604 262 581 280.5 c 128,-1,23
 558 299 558 299 523 299 c 0,24,25
 473 299 473 299 437 256 c 128,-1,26
 401 213 401 213 401 186 c 2,27,-1
 401 162 l 2,28,29
 401 98 401 98 363 58.5 c 128,-1,30
 325 19 325 19 268 16 c 2,31,-1
 257 16 l 2,32,33
 167 16 167 16 103 81 c 128,-1,34
 39 146 39 146 22 235 c 1,35,-1
 22 241 l 2,36,37
 22 264 22 264 46 269 c 1,38,-1
 47 270 l 1,39,-1
 51 270 l 2,40,41
 75 270 75 270 80 246 c 0,42,43
 93 176 93 176 141 125 c 128,-1,44
 189 74 189 74 257 74 c 2,45,-1
 265 74 l 2,46,47
 273 74 273 74 280.5 75.5 c 128,-1,48
 288 77 288 77 300 82.5 c 128,-1,49
 312 88 312 88 321 97 c 128,-1,50
 330 106 330 106 336.5 123 c 128,-1,51
 343 140 343 140 343 162 c 2,52,-1
 343 172 l 1,53,54
 339 236 339 236 270 263 c 1,55,56
 240 251 240 251 199 251 c 0,57,58
 187 251 187 251 178 259.5 c 128,-1,59
 169 268 169 268 169 280 c 128,-1,60
 169 292 169 292 178 300.5 c 128,-1,61
 187 309 187 309 199 309 c 0,62,63
 245 309 245 309 257 321 c 1,64,-1
 258 321 l 1,65,66
 276 330 276 330 288 345.5 c 128,-1,67
 300 361 300 361 302.5 369.5 c 128,-1,68
 305 378 305 378 305 382 c 2,69,-1
 305 389 l 2,70,71
 305 400 305 400 302.5 412.5 c 128,-1,72
 300 425 300 425 285.5 440.5 c 128,-1,73
 271 456 271 456 245 456 c 0,74,75
 216 456 216 456 198 440 c 128,-1,76
 180 424 180 424 176.5 410.5 c 128,-1,77
 173 397 173 397 173 386 c 0,78,79
 173 378 173 378 174 374 c 2,80,-1
 174 368 l 1,81,-1
 175 367 l 1,82,83
 175 344 175 344 152 339 c 1,84,-1
 150 338 l 1,85,-1
 146 338 l 2,86,87
 115 338 115 338 115 386 c 0,88,89
 115 416 115 416 127 441 c 1,90,-1
 -3 441 l 2,91,92
 -15 441 -15 441 -23.5 449.5 c 128,-1,93
 -32 458 -32 458 -32 470 c 128,-1,94
 -32 482 -32 482 -23.5 490.5 c 128,-1,95
 -15 499 -15 499 -3 499 c 2,96,-1
 180 499 l 1,97,98
 208 514 208 514 245 514 c 0,99,100
 280 514 280 514 305 499 c 1,101,-1
 706 499 l 2,102,103
 717 499 717 499 726 490 c 128,-1,104
 735 481 735 481 735 470 c 128,-1,105
 735 459 735 459 726 450 c 128,-1,106
 717 441 717 441 706 441 c 2,107,-1
 354 441 l 1,108,109
 363 418 363 418 363 389 c 2,110,-1
 363 384 l 2,111,112
 363 338 363 338 326 300 c 1,113,-1
 335 294 l 2,114,115
 354 281 354 281 369 261 c 1,116,117
 425 357 425 357 526 357 c 0,118,119
 533 357 533 357 537 356 c 0,120,121
 538 356 538 356 538 355.5 c 128,-1,122
 538 355 538 355 539 355 c 2,0,-1
EndSplineSet
EndChar

StartChar: uni090B
Encoding: 31 2315 34
Width: 618
GlyphClass: 2
Flags: W
AnchorPoint: "Anchor_top" 314 521 basechar 0
LayerCount: 2
Fore
SplineSet
462 343 m 1,0,-1
 459 343 l 2,1,2
 444 340 444 340 444 318 c 0,3,4
 444 303 444 303 450 288 c 1,5,6
 451 289 451 289 452 289 c 2,7,-1
 453 290 l 1,8,-1
 454 290 l 1,9,-1
 455 290 l 1,10,-1
 456 291 l 1,11,12
 468 297 468 297 475 306 c 128,-1,13
 482 315 482 315 483 322 c 2,14,-1
 484 328 l 2,15,16
 484 333 484 333 478 338.5 c 128,-1,17
 472 344 472 344 465 344 c 2,18,-1
 464 344 l 1,19,-1
 462 343 l 1,0,-1
518 79 m 0,20,21
 532 79 532 79 542 84 c 128,-1,22
 552 89 552 89 558 89 c 0,23,24
 569 89 569 89 578 80.5 c 128,-1,25
 587 72 587 72 587 60 c 0,26,27
 587 49 587 49 579.5 41.5 c 128,-1,28
 572 34 572 34 563 30 c 128,-1,29
 554 26 554 26 542.5 24 c 128,-1,30
 531 22 531 22 526 21.5 c 128,-1,31
 521 21 521 21 518 21 c 0,32,33
 479 21 479 21 448 44 c 128,-1,34
 417 67 417 67 417 112 c 0,35,36
 417 161 417 161 463 190 c 1,37,38
 444 200 444 200 429 215 c 1,39,40
 370 192 370 192 352 174 c 1,41,-1
 352 22 l 2,42,43
 352 10 352 10 343.5 1.5 c 128,-1,44
 335 -7 335 -7 323 -7 c 128,-1,45
 311 -7 311 -7 302.5 1.5 c 128,-1,46
 294 10 294 10 294 22 c 2,47,-1
 294 167 l 1,48,-1
 153 43 l 2,49,50
 143 35 143 35 133 35 c 0,51,52
 121 35 121 35 112.5 44.5 c 128,-1,53
 104 54 104 54 104 64 c 0,54,55
 104 77 104 77 114 86 c 2,56,-1
 292 243 l 1,57,58
 255 287 255 287 203 287 c 0,59,60
 165 287 165 287 133.5 266 c 128,-1,61
 102 245 102 245 62 204 c 0,62,63
 53 195 53 195 41 195 c 0,64,65
 30 195 30 195 21 203 c 128,-1,66
 12 211 12 211 12 224 c 0,67,68
 12 234 12 234 20 244 c 0,69,70
 69 294 69 294 109.5 319.5 c 128,-1,71
 150 345 150 345 202 345 c 0,72,73
 256 345 256 345 294 319 c 1,74,-1
 294 441 l 1,75,-1
 -23 441 l 2,76,77
 -35 441 -35 441 -43.5 449.5 c 128,-1,78
 -52 458 -52 458 -52 470 c 128,-1,79
 -52 482 -52 482 -43.5 490.5 c 128,-1,80
 -35 499 -35 499 -23 499 c 2,81,-1
 641 499 l 2,82,83
 653 499 653 499 661.5 490.5 c 128,-1,84
 670 482 670 482 670 470 c 128,-1,85
 670 458 670 458 661.5 449.5 c 128,-1,86
 653 441 653 441 641 441 c 2,87,-1
 352 441 l 1,88,-1
 352 244 l 1,89,90
 373 254 373 254 397 265 c 1,91,92
 386 293 386 293 386 319 c 0,93,94
 386 325 386 325 388 335 c 2,95,-1
 388 337 l 1,96,97
 393 364 393 364 414 383 c 128,-1,98
 435 402 435 402 465 402 c 0,99,100
 497 402 497 402 519.5 380.5 c 128,-1,101
 542 359 542 359 542 328 c 0,102,103
 542 304 542 304 526.5 280 c 128,-1,104
 511 256 511 256 489 243 c 1,105,106
 493 239 493 239 517.5 230 c 128,-1,107
 542 221 542 221 557 218 c 0,108,109
 579 213 579 213 579 190 c 0,110,111
 579 179 579 179 571.5 171 c 128,-1,112
 564 163 564 163 553 161 c 0,113,114
 552 161 552 161 544.5 159.5 c 128,-1,115
 537 158 537 158 525 154.5 c 128,-1,116
 513 151 513 151 502 146 c 128,-1,117
 491 141 491 141 483 132 c 128,-1,118
 475 123 475 123 475 112 c 0,119,120
 475 79 475 79 518 79 c 0,20,21
EndSplineSet
EndChar

StartChar: uni090C
Encoding: 32 2316 35
Width: 522
GlyphClass: 3
Flags: W
AnchorPoint: "Anchor_top" 441 514 basechar 0
LayerCount: 2
Fore
SplineSet
165 364 m 2,0,-1
 172 364 l 1,1,-1
 173 365 l 1,2,3
 243 365 243 365 282 294 c 1,4,5
 322 349 322 349 417 351 c 1,6,-1
 417 441 l 1,7,-1
 -23 441 l 2,8,9
 -35 441 -35 441 -43.5 449.5 c 128,-1,10
 -52 458 -52 458 -52 470 c 128,-1,11
 -52 482 -52 482 -43.5 490.5 c 128,-1,12
 -35 499 -35 499 -23 499 c 2,13,-1
 536 499 l 2,14,15
 548 499 548 499 556.5 490.5 c 128,-1,16
 565 482 565 482 565 470 c 128,-1,17
 565 458 565 458 556.5 449.5 c 128,-1,18
 548 441 548 441 536 441 c 2,19,-1
 475 441 l 1,20,-1
 475 26 l 2,21,22
 475 14 475 14 466.5 5 c 128,-1,23
 458 -4 458 -4 446 -4 c 2,24,-1
 442 -4 l 1,25,-1
 440 -3 l 1,26,-1
 437 -3 l 1,27,28
 358 -9 358 -9 358 -50 c 2,29,-1
 358 -58 l 1,30,31
 369 -95 369 -95 414 -95 c 2,32,-1
 415 -95 l 2,33,34
 469 -95 469 -95 509 -48 c 0,35,36
 511 -46 511 -46 511 -46 c 2,37,38
 520 -34 520 -34 534 -34 c 0,39,40
 545 -34 545 -34 554 -42.5 c 128,-1,41
 563 -51 563 -51 563 -63 c 0,42,43
 563 -85 563 -85 517 -118.5 c 128,-1,44
 471 -152 471 -152 415 -152 c 2,45,-1
 414 -152 l 2,46,47
 359 -152 359 -152 329.5 -118.5 c 128,-1,48
 300 -85 300 -85 300 -50 c 0,49,50
 300 -29 300 -29 307 -10.5 c 128,-1,51
 314 8 314 8 342 27.5 c 128,-1,52
 370 47 370 47 417 52 c 1,53,-1
 417 293 l 1,54,55
 308 289 308 289 308 193 c 0,56,57
 308 181 308 181 300 172.5 c 128,-1,58
 292 164 292 164 280 164 c 2,59,-1
 279 164 l 2,60,61
 268 164 268 164 259.5 172 c 128,-1,62
 251 180 251 180 250 192 c 0,63,64
 250 195 250 195 249 204.5 c 128,-1,65
 248 214 248 214 243 232.5 c 128,-1,66
 238 251 238 251 230.5 267 c 128,-1,67
 223 283 223 283 208 295 c 128,-1,68
 193 307 193 307 173 307 c 1,69,-1
 172 306 l 1,70,-1
 168 306 l 1,71,72
 86 302 86 302 86 213 c 0,73,74
 86 212 86 212 86 212 c 1,75,-1
 87 210 l 1,76,-1
 87 197 l 1,77,78
 98 102 98 102 224 46 c 0,79,80
 241 38 241 38 241 19 c 0,81,82
 241 4 241 4 231 -3 c 128,-1,83
 221 -10 221 -10 212 -10 c 0,84,85
 208 -10 208 -10 190 -2.5 c 128,-1,86
 172 5 172 5 144 23.5 c 128,-1,87
 116 42 116 42 90.5 66.5 c 128,-1,88
 65 91 65 91 46.5 130 c 128,-1,89
 28 169 28 169 28 214 c 0,90,91
 28 234 28 234 32.5 254.5 c 128,-1,92
 37 275 37 275 49.5 300.5 c 128,-1,93
 62 326 62 326 92 343.5 c 128,-1,94
 122 361 122 361 165 364 c 2,0,-1
EndSplineSet
Ligature2: "'pres' Pre Base Substitutions lookup 7-1" uni0932 uni0943
EndChar

StartChar: uni090F
Encoding: 33 2319 36
Width: 374
GlyphClass: 2
Flags: W
AnchorPoint: "Anchor_top" 289 510 basechar 0
LayerCount: 2
Fore
SplineSet
132 239 m 1,0,1
 159 212 159 212 193 212 c 0,2,3
 234 212 234 212 258 235 c 128,-1,4
 282 258 282 258 287 284 c 0,5,6
 293 311 293 311 293 347 c 0,7,8
 293 386 293 386 284 440 c 1,9,-1
 124 440 l 1,10,11
 114 407 114 407 114 358 c 0,12,13
 114 290 114 290 131 245 c 0,14,15
 132 244 132 244 132 243 c 2,16,-1
 132 239 l 1,0,1
352 347 m 0,17,18
 352 171 352 171 207 153 c 1,19,20
 285 88 285 88 285 29 c 0,21,22
 285 -12 285 -12 260 -33.5 c 128,-1,23
 235 -55 235 -55 207 -55 c 0,24,25
 195 -55 195 -55 186.5 -46 c 128,-1,26
 178 -37 178 -37 178 -25 c 128,-1,27
 178 -13 178 -13 186.5 -4.5 c 128,-1,28
 195 4 195 4 207 4 c 0,29,30
 209 4 209 4 212 5 c 128,-1,31
 215 6 215 6 220.5 12 c 128,-1,32
 226 18 226 18 226 29 c 0,33,34
 226 58 226 58 168 108 c 1,35,-1
 166 110 l 2,36,37
 166 111 166 111 165 111 c 0,38,39
 163 113 163 113 162 113 c 2,40,-1
 159 116 l 1,41,42
 106 160 106 160 80.5 213.5 c 128,-1,43
 55 267 55 267 55 358 c 0,44,45
 55 407 55 407 63 440 c 1,46,-1
 -30 440 l 2,47,48
 -42 440 -42 440 -51 449 c 128,-1,49
 -60 458 -60 458 -60 470 c 128,-1,50
 -60 482 -60 482 -51 490.5 c 128,-1,51
 -42 499 -42 499 -30 499 c 2,52,-1
 419 499 l 2,53,54
 431 499 431 499 440 490.5 c 128,-1,55
 449 482 449 482 449 470 c 0,56,57
 449 457 449 457 440 448.5 c 128,-1,58
 431 440 431 440 419 440 c 2,59,-1
 344 440 l 1,60,61
 352 394 352 394 352 347 c 0,17,18
EndSplineSet
EndChar

StartChar: uni0910
Encoding: 34 2320 37
Width: 374
GlyphClass: 3
Flags: W
AnchorPoint: "Anchor_top" 353 499 basechar 0
LayerCount: 2
Fore
SplineSet
112 239 m 1,0,1
 139 212 139 212 173 212 c 0,2,3
 214 212 214 212 238 235 c 128,-1,4
 262 258 262 258 267 284 c 0,5,6
 273 311 273 311 273 347 c 0,7,8
 273 386 273 386 264 440 c 1,9,-1
 104 440 l 1,10,11
 94 407 94 407 94 358 c 0,12,13
 94 290 94 290 111 245 c 0,14,15
 112 244 112 244 112 243 c 2,16,-1
 112 239 l 1,0,1
332 347 m 0,17,18
 332 171 332 171 187 153 c 1,19,20
 265 88 265 88 265 29 c 0,21,22
 265 -12 265 -12 240 -33.5 c 128,-1,23
 215 -55 215 -55 187 -55 c 0,24,25
 175 -55 175 -55 166.5 -46 c 128,-1,26
 158 -37 158 -37 158 -25 c 128,-1,27
 158 -13 158 -13 166.5 -4.5 c 128,-1,28
 175 4 175 4 187 4 c 0,29,30
 189 4 189 4 192 5 c 128,-1,31
 195 6 195 6 200.5 12 c 128,-1,32
 206 18 206 18 206 29 c 0,33,34
 206 58 206 58 148 108 c 1,35,-1
 146 110 l 2,36,37
 146 111 146 111 145 111 c 0,38,39
 143 113 143 113 142 113 c 2,40,-1
 139 116 l 1,41,42
 86 160 86 160 60.5 213.5 c 128,-1,43
 35 267 35 267 35 358 c 0,44,45
 35 407 35 407 43 440 c 1,46,-1
 -50 440 l 2,47,48
 -62 440 -62 440 -71 449 c 128,-1,49
 -80 458 -80 458 -80 470 c 128,-1,50
 -80 482 -80 482 -71 490.5 c 128,-1,51
 -62 499 -62 499 -50 499 c 2,52,-1
 251 499 l 1,53,54
 216 623 216 623 125 658 c 0,55,56
 107 666 107 666 107 684 c 0,57,58
 107 695 107 695 115 704.5 c 128,-1,59
 123 714 123 714 136 714 c 0,60,61
 139 714 139 714 151 710 c 128,-1,62
 163 706 163 706 185.5 692 c 128,-1,63
 208 678 208 678 230 656.5 c 128,-1,64
 252 635 252 635 274.5 593.5 c 128,-1,65
 297 552 297 552 310 499 c 1,66,-1
 399 499 l 2,67,68
 411 499 411 499 420 490.5 c 128,-1,69
 429 482 429 482 429 470 c 0,70,71
 429 457 429 457 420 448.5 c 128,-1,72
 411 440 411 440 399 440 c 2,73,-1
 324 440 l 1,74,75
 332 394 332 394 332 347 c 0,17,18
EndSplineSet
Ligature2: "'pref' Pre Base Forms lookup 8-1" uni090F uni0947
EndChar

StartChar: uni0913
Encoding: 35 2323 38
Width: 751
GlyphClass: 2
Flags: W
AnchorPoint: "Anchor_top" 724 512 basechar 0
LayerCount: 2
Fore
SplineSet
156 340 m 1,0,-1
 150 340 l 1,1,-1
 149 339 l 1,2,3
 118 339 118 339 118 386 c 0,4,5
 118 416 118 416 130 441 c 1,6,-1
 1 441 l 2,7,8
 -11 441 -11 441 -19.5 449.5 c 128,-1,9
 -28 458 -28 458 -28 470 c 128,-1,10
 -28 482 -28 482 -19.5 490.5 c 128,-1,11
 -11 499 -11 499 1 499 c 2,12,-1
 184 499 l 1,13,14
 212 514 212 514 249 514 c 0,15,16
 307 514 307 514 337 477 c 128,-1,17
 367 440 367 440 367 390 c 0,18,19
 367 338 367 338 330 300 c 1,20,-1
 339 294 l 2,21,22
 366 274 366 274 381 250 c 1,23,24
 401 244 401 244 425 244 c 0,25,26
 460 244 460 244 482 262 c 1,27,-1
 482 441 l 1,28,-1
 429 441 l 2,29,30
 417 441 417 441 408.5 449.5 c 128,-1,31
 400 458 400 458 400 470 c 128,-1,32
 400 482 400 482 408.5 490.5 c 128,-1,33
 417 499 417 499 429 499 c 2,34,-1
 637 499 l 1,35,36
 602 624 602 624 510 659 c 0,37,38
 492 667 492 667 492 685 c 0,39,40
 492 696 492 696 500 705.5 c 128,-1,41
 508 715 508 715 521 715 c 0,42,43
 524 715 524 715 536 711 c 128,-1,44
 548 707 548 707 571 692.5 c 128,-1,45
 594 678 594 678 616 656.5 c 128,-1,46
 638 635 638 635 660.5 593.5 c 128,-1,47
 683 552 683 552 696 499 c 1,48,-1
 773 499 l 2,49,50
 785 499 785 499 793.5 490.5 c 128,-1,51
 802 482 802 482 802 470 c 128,-1,52
 802 458 802 458 793.5 450 c 128,-1,53
 785 442 785 442 773 442 c 2,54,-1
 706 442 l 1,55,-1
 706 33 l 2,56,57
 706 21 706 21 697.5 12.5 c 128,-1,58
 689 4 689 4 677 4 c 128,-1,59
 665 4 665 4 656.5 12.5 c 128,-1,60
 648 21 648 21 648 33 c 2,61,-1
 648 442 l 1,62,-1
 608 442 l 1,63,-1
 607 442 l 2,64,65
 606 441 606 441 605 441 c 2,66,-1
 540 441 l 1,67,-1
 540 22 l 2,68,69
 540 10 540 10 531.5 1.5 c 128,-1,70
 523 -7 523 -7 511 -7 c 128,-1,71
 499 -7 499 -7 490.5 1.5 c 128,-1,72
 482 10 482 10 482 22 c 2,73,-1
 482 196 l 1,74,75
 455 186 455 186 425 186 c 0,76,77
 411 186 411 186 404 187 c 1,78,-1
 404 178 l 1,79,-1
 405 177 l 1,80,-1
 405 163 l 2,81,82
 405 99 405 99 366.5 59.5 c 128,-1,83
 328 20 328 20 271 17 c 1,84,-1
 270 16 l 1,85,-1
 260 16 l 2,86,87
 170 16 170 16 106.5 81.5 c 128,-1,88
 43 147 43 147 26 236 c 1,89,-1
 26 241 l 2,90,91
 26 265 26 265 49 270 c 1,92,-1
 55 270 l 2,93,94
 78 270 78 270 83 247 c 0,95,96
 96 177 96 177 144.5 125.5 c 128,-1,97
 193 74 193 74 261 74 c 2,98,-1
 266 74 l 1,99,-1
 268 75 l 2,100,101
 275 75 275 75 285.5 77.5 c 128,-1,102
 296 80 296 80 311 88 c 128,-1,103
 326 96 326 96 336.5 115.5 c 128,-1,104
 347 135 347 135 347 163 c 2,105,-1
 347 173 l 2,106,107
 344 207 344 207 322.5 230.5 c 128,-1,108
 301 254 301 254 274 264 c 1,109,110
 242 251 242 251 202 251 c 0,111,112
 190 251 190 251 181.5 259.5 c 128,-1,113
 173 268 173 268 173 280 c 128,-1,114
 173 292 173 292 181.5 300.5 c 128,-1,115
 190 309 190 309 202 309 c 0,116,117
 238 309 238 309 260 322 c 1,118,-1
 262 322 l 1,119,120
 280 331 280 331 292 346 c 128,-1,121
 304 361 304 361 306.5 370 c 128,-1,122
 309 379 309 379 309 382 c 2,123,-1
 309 390 l 2,124,125
 309 401 309 401 306.5 413 c 128,-1,126
 304 425 304 425 289.5 440.5 c 128,-1,127
 275 456 275 456 249 456 c 0,128,129
 220 456 220 456 202 440.5 c 128,-1,130
 184 425 184 425 180 411 c 128,-1,131
 176 397 176 397 176 386 c 0,132,133
 176 382 176 382 178 374 c 2,134,-1
 178 368 l 2,135,136
 178 345 178 345 156 340 c 1,0,-1
EndSplineSet
EndChar

StartChar: uni0914
Encoding: 36 2324 39
Width: 762
GlyphClass: 2
Flags: W
AnchorPoint: "Anchor_top" 729 516 basechar 0
LayerCount: 2
Fore
SplineSet
657 440 m 1,0,-1
 655 442 l 1,1,-1
 608 442 l 1,2,-1
 607 442 l 2,3,4
 606 441 606 441 605 441 c 2,5,-1
 540 441 l 1,6,-1
 540 22 l 2,7,8
 540 10 540 10 531.5 1.5 c 128,-1,9
 523 -7 523 -7 511 -7 c 128,-1,10
 499 -7 499 -7 490.5 1.5 c 128,-1,11
 482 10 482 10 482 22 c 2,12,-1
 482 196 l 1,13,14
 455 186 455 186 425 186 c 0,15,16
 411 186 411 186 404 187 c 1,17,-1
 404 178 l 1,18,-1
 405 177 l 1,19,-1
 405 163 l 2,20,21
 405 99 405 99 366.5 59.5 c 128,-1,22
 328 20 328 20 271 17 c 1,23,-1
 270 16 l 1,24,-1
 260 16 l 2,25,26
 170 16 170 16 106.5 81.5 c 128,-1,27
 43 147 43 147 26 236 c 1,28,-1
 26 241 l 2,29,30
 26 265 26 265 49 270 c 1,31,-1
 55 270 l 2,32,33
 78 270 78 270 83 247 c 0,34,35
 96 177 96 177 144.5 125.5 c 128,-1,36
 193 74 193 74 261 74 c 2,37,-1
 266 74 l 1,38,-1
 268 75 l 2,39,40
 275 75 275 75 285.5 77.5 c 128,-1,41
 296 80 296 80 311 88 c 128,-1,42
 326 96 326 96 336.5 115.5 c 128,-1,43
 347 135 347 135 347 163 c 2,44,-1
 347 173 l 2,45,46
 344 207 344 207 322.5 230.5 c 128,-1,47
 301 254 301 254 274 264 c 1,48,49
 242 251 242 251 202 251 c 0,50,51
 190 251 190 251 181.5 259.5 c 128,-1,52
 173 268 173 268 173 280 c 128,-1,53
 173 292 173 292 181.5 300.5 c 128,-1,54
 190 309 190 309 202 309 c 0,55,56
 238 309 238 309 260 322 c 1,57,-1
 262 322 l 1,58,59
 280 331 280 331 292 346 c 128,-1,60
 304 361 304 361 306.5 370 c 128,-1,61
 309 379 309 379 309 382 c 2,62,-1
 309 390 l 2,63,64
 309 401 309 401 306.5 413 c 128,-1,65
 304 425 304 425 289.5 440.5 c 128,-1,66
 275 456 275 456 249 456 c 0,67,68
 220 456 220 456 202 440.5 c 128,-1,69
 184 425 184 425 180 411 c 128,-1,70
 176 397 176 397 176 386 c 0,71,72
 176 382 176 382 178 374 c 2,73,-1
 178 368 l 2,74,75
 178 345 178 345 156 340 c 1,76,-1
 150 340 l 1,77,-1
 149 339 l 1,78,79
 118 339 118 339 118 386 c 0,80,81
 118 416 118 416 130 441 c 1,82,-1
 1 441 l 2,83,84
 -11 441 -11 441 -19.5 449.5 c 128,-1,85
 -28 458 -28 458 -28 470 c 128,-1,86
 -28 482 -28 482 -19.5 490.5 c 128,-1,87
 -11 499 -11 499 1 499 c 2,88,-1
 184 499 l 1,89,90
 212 514 212 514 249 514 c 0,91,92
 307 514 307 514 337 477 c 128,-1,93
 367 440 367 440 367 390 c 0,94,95
 367 338 367 338 330 300 c 1,96,-1
 339 294 l 2,97,98
 366 274 366 274 381 250 c 1,99,100
 401 244 401 244 425 244 c 0,101,102
 460 244 460 244 482 262 c 1,103,-1
 482 441 l 1,104,-1
 429 441 l 2,105,106
 417 441 417 441 408.5 449.5 c 128,-1,107
 400 458 400 458 400 470 c 128,-1,108
 400 482 400 482 408.5 490.5 c 128,-1,109
 417 499 417 499 429 499 c 2,110,-1
 655 499 l 1,111,112
 633 519 633 519 587.5 530 c 128,-1,113
 542 541 542 541 508 541 c 2,114,-1
 499 541 l 2,115,116
 487 541 487 541 478.5 549 c 128,-1,117
 470 557 470 557 470 569 c 0,118,119
 470 580 470 580 478 588.5 c 128,-1,120
 486 597 486 597 497 598 c 2,121,-1
 510 598 l 2,122,123
 589 598 589 598 668 526 c 1,124,125
 640 612 640 612 545 661 c 0,126,127
 530 668 530 668 530 686 c 0,128,129
 530 699 530 699 539 707 c 128,-1,130
 548 715 548 715 559 715 c 0,131,132
 565 715 565 715 579 708 c 128,-1,133
 593 701 593 701 613 684 c 128,-1,134
 633 667 633 667 652.5 643.5 c 128,-1,135
 672 620 672 620 688.5 581.5 c 128,-1,136
 705 543 705 543 712 499 c 1,137,-1
 773 499 l 2,138,139
 785 499 785 499 793.5 490.5 c 128,-1,140
 802 482 802 482 802 470 c 128,-1,141
 802 458 802 458 793.5 450 c 128,-1,142
 785 442 785 442 773 442 c 2,143,-1
 716 442 l 1,144,-1
 716 436 l 2,145,146
 716 429 716 429 714 425 c 2,147,-1
 714 33 l 2,148,149
 714 21 714 21 705.5 12.5 c 128,-1,150
 697 4 697 4 685 4 c 128,-1,151
 673 4 673 4 665 12.5 c 128,-1,152
 657 21 657 21 657 33 c 2,153,-1
 657 440 l 1,0,-1
EndSplineSet
EndChar

StartChar: uni0915
Encoding: 37 2325 40
Width: 710
GlyphClass: 2
Flags: W
AnchorPoint: "Anchor_top" 364 520 basechar 0
AnchorPoint: "Anchor_bottom" 353 -33 basechar 0
LayerCount: 2
Fore
SplineSet
205 116 m 128,-1,1
 257 116 257 116 295.5 153.5 c 128,-1,2
 334 191 334 191 338 231 c 1,3,-1
 338 246 l 1,4,-1
 336 248 l 1,5,6
 290 318 290 318 210 318 c 0,7,8
 154 318 154 318 116.5 286 c 128,-1,9
 79 254 79 254 79 214 c 0,10,11
 79 178 79 178 116 147 c 128,-1,0
 153 116 153 116 205 116 c 128,-1,1
478 87 m 1,12,-1
 478 91 l 1,13,-1
 477 92 l 1,14,15
 477 116 477 116 501 121 c 0,16,17
 553 131 553 131 577.5 161.5 c 128,-1,18
 602 192 602 192 602 226 c 0,19,20
 602 250 602 250 592 266 c 128,-1,21
 582 282 582 282 566 288.5 c 128,-1,22
 550 295 550 295 540 297 c 128,-1,23
 530 299 530 299 521 299 c 0,24,25
 471 299 471 299 435 255.5 c 128,-1,26
 399 212 399 212 399 187 c 0,27,28
 399 182 399 182 396 176 c 2,29,-1
 396 25 l 2,30,31
 396 13 396 13 387.5 4.5 c 128,-1,32
 379 -4 379 -4 367 -4 c 128,-1,33
 355 -4 355 -4 346.5 4.5 c 128,-1,34
 338 13 338 13 338 25 c 2,35,-1
 338 114 l 1,36,37
 280 58 280 58 205 58 c 0,38,39
 128 58 128 58 74.5 105.5 c 128,-1,40
 21 153 21 153 21 214 c 0,41,42
 21 279 21 279 75.5 327.5 c 128,-1,43
 130 376 130 376 210 376 c 0,44,45
 287 376 287 376 338 334 c 1,46,-1
 338 441 l 1,47,-1
 -15 441 l 2,48,49
 -25 441 -25 441 -32.5 449.5 c 128,-1,50
 -40 458 -40 458 -40 470 c 128,-1,51
 -40 482 -40 482 -32.5 490.5 c 128,-1,52
 -25 499 -25 499 -15 499 c 2,53,-1
 715 499 l 2,54,55
 725 499 725 499 732.5 490.5 c 128,-1,56
 740 482 740 482 740 470 c 128,-1,57
 740 458 740 458 732.5 449.5 c 128,-1,58
 725 441 725 441 715 441 c 2,59,-1
 396 441 l 1,60,-1
 396 300 l 1,61,62
 453 357 453 357 521 357 c 0,63,64
 584 357 584 357 622 319.5 c 128,-1,65
 660 282 660 282 660 226 c 0,66,67
 660 171 660 171 629 133 c 0,68,69
 586 77 586 77 511 64 c 1,70,-1
 507 64 l 1,71,-1
 506 63 l 1,72,73
 483 63 483 63 478 87 c 1,12,-1
EndSplineSet
EndChar

StartChar: uni0916
Encoding: 38 2326 41
Width: 622
GlyphClass: 2
Flags: W
AnchorPoint: "Anchor_top" 540 513 basechar 0
AnchorPoint: "Anchor_bottom" 546 -15 basechar 0
LayerCount: 2
Fore
SplineSet
273 336 m 0,0,1
 273 324 273 324 272 313 c 128,-1,2
 271 302 271 302 263 279 c 128,-1,3
 255 256 255 256 240.5 239 c 128,-1,4
 226 222 226 222 196 205 c 128,-1,5
 166 188 166 188 125 180 c 1,6,7
 156 128 156 128 214.5 92 c 128,-1,8
 273 56 273 56 348 56 c 0,9,10
 384 56 384 56 417 69 c 1,11,12
 355 75 355 75 317 119 c 128,-1,13
 279 163 279 163 279 215 c 0,14,15
 279 270 279 270 321.5 314.5 c 128,-1,16
 364 359 364 359 428 359 c 0,17,18
 477 359 477 359 519 331 c 1,19,-1
 519 441 l 1,20,-1
 242 441 l 1,21,22
 273 397 273 397 273 336 c 0,0,1
519 203 m 2,23,-1
 519 248 l 1,24,25
 515 262 515 262 490 281.5 c 128,-1,26
 465 301 465 301 428 301 c 0,27,28
 387 301 387 301 361.5 273 c 128,-1,29
 336 245 336 245 336 215 c 0,30,31
 336 183 336 183 362.5 154 c 128,-1,32
 389 125 389 125 435 125 c 0,33,34
 475 125 475 125 496.5 152 c 128,-1,35
 518 179 518 179 519 203 c 2,23,-1
348 -2 m 0,36,37
 282 -2 282 -2 223 23.5 c 128,-1,38
 164 49 164 49 125.5 88 c 128,-1,39
 87 127 87 127 65 171.5 c 128,-1,40
 43 216 43 216 43 255 c 0,41,42
 43 284 43 284 59 303 c 128,-1,43
 75 322 75 322 100 322 c 0,44,45
 121 322 121 322 137 307.5 c 128,-1,46
 153 293 153 293 153 269 c 0,47,48
 153 255 153 255 149 246 c 1,49,50
 216 272 216 272 216 336 c 0,51,52
 216 369 216 369 201.5 395 c 128,-1,53
 187 421 187 421 177 428.5 c 128,-1,54
 167 436 167 436 157 441 c 1,55,-1
 156 441 l 1,56,-1
 157 440 l 1,57,-1
 157 441 l 1,58,-1
 -10 441 l 2,59,60
 -22 441 -22 441 -30.5 449.5 c 128,-1,61
 -39 458 -39 458 -39 470 c 128,-1,62
 -39 482 -39 482 -30.5 490.5 c 128,-1,63
 -22 499 -22 499 -10 499 c 2,64,-1
 635 499 l 2,65,66
 647 499 647 499 655.5 490.5 c 128,-1,67
 664 482 664 482 664 470 c 128,-1,68
 664 458 664 458 655.5 449.5 c 128,-1,69
 647 441 647 441 635 441 c 2,70,-1
 577 441 l 1,71,-1
 577 27 l 2,72,73
 577 15 577 15 568.5 7 c 128,-1,74
 560 -1 560 -1 548 -1 c 128,-1,75
 536 -1 536 -1 527.5 7 c 128,-1,76
 519 15 519 15 519 27 c 2,77,-1
 519 69 l 1,78,79
 448 -2 448 -2 348 -2 c 0,36,37
EndSplineSet
EndChar

StartChar: uni0917
Encoding: 39 2327 42
Width: 496
GlyphClass: 2
Flags: W
AnchorPoint: "Anchor_top" 402 521 basechar 0
AnchorPoint: "Anchor_bottom" 396 -25 basechar 0
LayerCount: 2
Fore
SplineSet
207 174 m 2,0,-1
 207 176 l 2,1,2
 209 188 209 188 209 194 c 1,3,4
 169 211 169 211 147 211 c 0,5,6
 124 211 124 211 106.5 196.5 c 128,-1,7
 89 182 89 182 89 157 c 0,8,9
 89 151 89 151 91 140.5 c 128,-1,10
 93 130 93 130 107.5 114.5 c 128,-1,11
 122 99 122 99 147 99 c 0,12,13
 171 99 171 99 187.5 120 c 128,-1,14
 204 141 204 141 207 174 c 2,0,-1
500 499 m 2,15,16
 512 499 512 499 520.5 490.5 c 128,-1,17
 529 482 529 482 529 470 c 128,-1,18
 529 458 529 458 520.5 449.5 c 128,-1,19
 512 441 512 441 500 441 c 2,20,-1
 428 441 l 1,21,-1
 428 26 l 2,22,23
 428 14 428 14 419.5 5.5 c 128,-1,24
 411 -3 411 -3 399 -3 c 128,-1,25
 387 -3 387 -3 378.5 5.5 c 128,-1,26
 370 14 370 14 370 26 c 2,27,-1
 370 441 l 1,28,-1
 220 441 l 1,29,30
 269 340 269 340 269 234 c 0,31,32
 269 210 269 210 265 168 c 0,33,34
 260 112 260 112 227 76.5 c 128,-1,35
 194 41 194 41 147 41 c 0,36,37
 92 41 92 41 61.5 78 c 128,-1,38
 31 115 31 115 31 157 c 0,39,40
 31 204 31 204 64.5 236.5 c 128,-1,41
 98 269 98 269 147 269 c 0,42,43
 175 269 175 269 210 256 c 1,44,45
 205 350 205 350 154 441 c 1,46,-1
 -13 441 l 2,47,48
 -25 441 -25 441 -33.5 449.5 c 128,-1,49
 -42 458 -42 458 -42 470 c 128,-1,50
 -42 482 -42 482 -33.5 490.5 c 128,-1,51
 -25 499 -25 499 -13 499 c 2,52,-1
 500 499 l 2,15,16
EndSplineSet
EndChar

StartChar: uni0918
Encoding: 40 2328 43
Width: 462
GlyphClass: 2
Flags: W
AnchorPoint: "Anchor_top" 374 520 basechar 0
AnchorPoint: "Anchor_bottom" 384 -24 basechar 0
LayerCount: 2
Fore
SplineSet
174 291 m 1,0,-1
 180 291 l 2,1,2
 185 291 185 291 197.5 293.5 c 128,-1,3
 210 296 210 296 220 298 c 2,4,-1
 231 300 l 1,5,-1
 232 300 l 2,6,7
 234 301 234 301 239 301 c 0,8,9
 251 301 251 301 259.5 292.5 c 128,-1,10
 268 284 268 284 268 272 c 0,11,12
 268 249 268 249 246 244 c 0,13,14
 244 243 244 243 242 243 c 0,15,16
 202 233 202 233 189 233 c 2,17,-1
 183 233 l 2,18,19
 159 230 159 230 141.5 213 c 128,-1,20
 124 196 124 196 124 166 c 0,21,22
 124 144 124 144 135 127.5 c 128,-1,23
 146 111 146 111 159 103.5 c 128,-1,24
 172 96 172 96 190 92 c 128,-1,25
 208 88 208 88 215.5 87.5 c 128,-1,26
 223 87 223 87 228 87 c 0,27,28
 257 87 257 87 282 98 c 128,-1,29
 307 109 307 109 322.5 125.5 c 128,-1,30
 338 142 338 142 345 152.5 c 128,-1,31
 352 163 352 163 356 172 c 1,32,-1
 356 441 l 1,33,-1
 191 441 l 2,34,35
 189 440 189 440 184 440 c 0,36,37
 147 440 147 440 122.5 413.5 c 128,-1,38
 98 387 98 387 98 348 c 0,39,40
 98 325 98 325 117 307.5 c 128,-1,41
 136 290 136 290 162 290 c 2,42,-1
 173 290 l 1,43,-1
 174 291 l 1,0,-1
228 29 m 0,44,45
 193 29 193 29 159 40 c 128,-1,46
 125 51 125 51 95.5 84 c 128,-1,47
 66 117 66 117 66 166 c 0,48,49
 66 217 66 217 97 251 c 1,50,51
 40 286 40 286 40 348 c 0,52,53
 40 402 40 402 70 441 c 1,54,-1
 -10 441 l 2,55,56
 -22 441 -22 441 -30.5 449.5 c 128,-1,57
 -39 458 -39 458 -39 470 c 128,-1,58
 -39 482 -39 482 -30.5 490.5 c 128,-1,59
 -22 499 -22 499 -10 499 c 2,60,-1
 471 499 l 2,61,62
 483 499 483 499 491.5 490.5 c 128,-1,63
 500 482 500 482 500 470 c 128,-1,64
 500 458 500 458 491.5 449.5 c 128,-1,65
 483 441 483 441 471 441 c 2,66,-1
 414 441 l 1,67,-1
 414 25 l 2,68,69
 414 13 414 13 405.5 4.5 c 128,-1,70
 397 -4 397 -4 385 -4 c 128,-1,71
 373 -4 373 -4 364.5 4.5 c 128,-1,72
 356 13 356 13 356 25 c 2,73,-1
 356 77 l 1,74,75
 302 29 302 29 228 29 c 0,44,45
EndSplineSet
EndChar

StartChar: uni0919
Encoding: 41 2329 44
Width: 492
GlyphClass: 2
Flags: W
AnchorPoint: "Anchor_top" 329 511 basechar 0
AnchorPoint: "Anchor_bottom" 261 -25 basechar 0
LayerCount: 2
Fore
SplineSet
429 293 m 0,0,1
 414 293 414 293 405.5 303 c 128,-1,2
 397 313 397 313 397 325 c 0,3,4
 397 339 397 339 406.5 348.5 c 128,-1,5
 416 358 416 358 430 358 c 128,-1,6
 444 358 444 358 453 348 c 128,-1,7
 462 338 462 338 462 325 c 0,8,9
 462 311 462 311 452 302 c 128,-1,10
 442 293 442 293 429 293 c 0,0,1
179 222 m 1,11,12
 208 227 208 227 250 249 c 128,-1,13
 292 271 292 271 323 271 c 0,14,15
 374 271 374 271 413.5 237 c 128,-1,16
 453 203 453 203 453 150 c 2,17,-1
 453 144 l 2,18,19
 451 83 451 83 391 44 c 128,-1,20
 331 5 331 5 251 5 c 0,21,22
 118 5 118 5 25 98 c 0,23,24
 17 106 17 106 17 119 c 128,-1,25
 17 132 17 132 25 140 c 128,-1,26
 33 148 33 148 46 148 c 0,27,28
 58 148 58 148 66 140 c 0,29,30
 143 63 143 63 251 63 c 0,31,32
 307 63 307 63 351 88.5 c 128,-1,33
 395 114 395 114 395 150 c 0,34,35
 395 180 395 180 374 195.5 c 128,-1,36
 353 211 353 211 333 213 c 2,37,-1
 324 213 l 2,38,39
 317 213 317 213 309.5 211.5 c 128,-1,40
 302 210 302 210 296.5 207.5 c 128,-1,41
 291 205 291 205 286.5 202.5 c 128,-1,42
 282 200 282 200 280 198 c 2,43,-1
 277 197 l 1,44,-1
 275 196 l 1,45,-1
 274 196 l 1,46,47
 208 163 208 163 171 163 c 0,48,49
 123 163 123 163 87 191 c 128,-1,50
 51 219 51 219 51 272 c 128,-1,51
 51 325 51 325 96.5 355 c 128,-1,52
 142 385 142 385 220 385 c 2,53,-1
 305 385 l 1,54,-1
 305 441 l 1,55,-1
 -2 441 l 2,56,57
 -14 441 -14 441 -23 449.5 c 128,-1,58
 -32 458 -32 458 -32 470 c 128,-1,59
 -32 482 -32 482 -23 490.5 c 128,-1,60
 -14 499 -14 499 -2 499 c 2,61,-1
 499 499 l 2,62,63
 511 499 511 499 519.5 490.5 c 128,-1,64
 528 482 528 482 528 470 c 128,-1,65
 528 458 528 458 519.5 449.5 c 128,-1,66
 511 441 511 441 499 441 c 2,67,-1
 363 441 l 1,68,-1
 363 356 l 2,69,70
 363 344 363 344 355 335.5 c 128,-1,71
 347 327 347 327 335 327 c 2,72,-1
 220 327 l 2,73,74
 210 327 210 327 197 325.5 c 128,-1,75
 184 324 184 324 161.5 320 c 128,-1,76
 139 316 139 316 124 303.5 c 128,-1,77
 109 291 109 291 109 272 c 0,78,79
 109 255 109 255 117 243.5 c 128,-1,80
 125 232 125 232 137 228 c 128,-1,81
 149 224 149 224 157 222.5 c 128,-1,82
 165 221 165 221 171 221 c 2,83,-1
 172 221 l 1,84,-1
 174 222 l 1,85,-1
 179 222 l 1,11,12
EndSplineSet
EndChar

StartChar: uni091A
Encoding: 42 2330 45
Width: 544
GlyphClass: 2
Flags: W
AnchorPoint: "Anchor_top" 460 521 basechar 0
AnchorPoint: "Anchor_bottom" 464 -24 basechar 0
LayerCount: 2
Fore
SplineSet
84 186 m 2,0,-1
 84 192 l 1,1,-1
 83 194 l 1,2,3
 83 257 83 257 128 300 c 1,4,-1
 43 300 l 2,5,6
 31 300 31 300 22.5 309 c 128,-1,7
 14 318 14 318 14 330 c 128,-1,8
 14 342 14 342 22.5 350 c 128,-1,9
 31 358 31 358 43 358 c 2,10,-1
 312 358 l 2,11,12
 324 358 324 358 333 350 c 128,-1,13
 342 342 342 342 342 330 c 128,-1,14
 342 318 342 318 333 309 c 128,-1,15
 324 300 324 300 312 300 c 2,16,-1
 251 300 l 2,17,18
 238 297 238 297 225.5 292.5 c 128,-1,19
 213 288 213 288 190.5 276.5 c 128,-1,20
 168 265 168 265 154.5 243.5 c 128,-1,21
 141 222 141 222 141 194 c 0,22,23
 141 155 141 155 173.5 135 c 128,-1,24
 206 115 206 115 243 115 c 0,25,26
 273 115 273 115 302.5 127 c 128,-1,27
 332 139 332 139 352 155 c 128,-1,28
 372 171 372 171 391 192.5 c 128,-1,29
 410 214 410 214 419 227 c 128,-1,30
 428 240 428 240 434 252 c 1,31,-1
 434 441 l 1,32,-1
 -10 441 l 2,33,34
 -22 441 -22 441 -30.5 449.5 c 128,-1,35
 -39 458 -39 458 -39 470 c 128,-1,36
 -39 482 -39 482 -30.5 490.5 c 128,-1,37
 -22 499 -22 499 -10 499 c 2,38,-1
 549 499 l 2,39,40
 561 499 561 499 569.5 490.5 c 128,-1,41
 578 482 578 482 578 470 c 128,-1,42
 578 458 578 458 569.5 449.5 c 128,-1,43
 561 441 561 441 549 441 c 2,44,-1
 492 441 l 1,45,-1
 492 25 l 2,46,47
 492 13 492 13 483.5 4.5 c 128,-1,48
 475 -4 475 -4 463 -4 c 128,-1,49
 451 -4 451 -4 442.5 4.5 c 128,-1,50
 434 13 434 13 434 25 c 2,51,-1
 434 153 l 1,52,53
 348 57 348 57 243 57 c 0,54,55
 182 57 182 57 134.5 91.5 c 128,-1,56
 87 126 87 126 84 186 c 2,0,-1
EndSplineSet
EndChar

StartChar: uni091B
Encoding: 43 2331 46
Width: 554
GlyphClass: 2
Flags: W
AnchorPoint: "Anchor_top" 406 523 basechar 0
AnchorPoint: "Anchor_bottom" 460 -47 basechar 0
LayerCount: 2
Fore
SplineSet
314 259 m 6,0,1
 314 298 314 298 333.5 323.5 c 132,-1,2
 353 349 353 349 382 356 c 5,3,-1
 382 441 l 5,4,-1
 282 441 l 5,5,-1
 282 353 l 6,6,7
 282 341 282 341 273.5 332.5 c 132,-1,8
 265 324 265 324 253 324 c 6,9,-1
 179 324 l 6,10,11
 153 324 153 324 128 316.5 c 132,-1,12
 103 309 103 309 103 290 c 4,13,14
 103 274 103 274 121.5 268 c 132,-1,15
 140 262 140 262 185 262 c 6,16,-1
 203 262 l 6,17,18
 228 262 228 262 255 268 c 5,19,-1
 260 268 l 6,20,21
 272 268 272 268 280.5 259.5 c 132,-1,22
 289 251 289 251 289 239 c 4,23,24
 289 228 289 228 281.5 219.5 c 132,-1,25
 274 211 274 211 264 210 c 4,26,27
 260 210 260 210 252 208 c 6,28,-1
 251 208 l 6,29,30
 250 207 250 207 249 207 c 6,31,-1
 246 207 l 6,32,33
 234 205 234 205 228 205 c 4,34,35
 215 205 215 205 196 199.5 c 132,-1,36
 177 194 177 194 156.5 173.5 c 132,-1,37
 136 153 136 153 136 123 c 4,38,39
 136 96 136 96 172.5 75 c 132,-1,40
 209 54 209 54 251 54 c 4,41,42
 284 54 284 54 321.5 72.5 c 132,-1,43
 359 91 359 91 388 123 c 5,44,45
 384 128 384 128 375 137 c 4,46,47
 357 155 357 155 347 166.5 c 132,-1,48
 337 178 337 178 326 201.5 c 132,-1,49
 315 225 315 225 314 251 c 6,50,-1
 314 259 l 6,0,1
405 302 m 4,51,52
 401 302 401 302 395.5 301 c 132,-1,53
 390 300 390 300 381 289 c 132,-1,54
 372 278 372 278 372 259 c 4,55,56
 372 233 372 233 383 216 c 132,-1,57
 394 199 394 199 421 172 c 5,58,59
 440 211 440 211 441 244 c 6,60,-1
 441 250 l 6,61,62
 441 275 441 275 430 288.5 c 132,-1,63
 419 302 419 302 405 302 c 4,51,52
428 4 m 4,64,65
 428 14 428 14 432 18 c 5,66,-1
 432 19 l 5,67,68
 438 31 438 31 438 44 c 4,69,70
 438 54 438 54 436 56 c 6,71,-1
 436 57 l 6,72,73
 433 65 433 65 425 77 c 5,74,75
 412 63 412 63 394 48 c 132,-1,76
 376 33 376 33 334 14.5 c 132,-1,77
 292 -4 292 -4 251 -4 c 4,78,79
 186 -4 186 -4 132 31 c 132,-1,80
 78 66 78 66 78 123 c 4,81,82
 78 173 78 173 111 211 c 5,83,84
 45 230 45 230 45 290 c 4,85,86
 45 333 45 333 81.5 357.5 c 132,-1,87
 118 382 118 382 179 382 c 6,88,-1
 224 382 l 5,89,-1
 224 441 l 5,90,-1
 21 441 l 6,91,92
 9 441 9 441 0.5 449.5 c 132,-1,93
 -8 458 -8 458 -8 470 c 132,-1,94
 -8 482 -8 482 0.5 490.5 c 132,-1,95
 9 499 9 499 21 499 c 6,96,-1
 560 499 l 6,97,98
 572 499 572 499 580.5 490.5 c 132,-1,99
 589 482 589 482 589 470 c 132,-1,100
 589 458 589 458 580.5 449.5 c 132,-1,101
 572 441 572 441 560 441 c 6,102,-1
 440 441 l 5,103,-1
 440 353 l 5,104,105
 450 348 450 348 461 340 c 132,-1,106
 472 332 472 332 485.5 307 c 132,-1,107
 499 282 499 282 499 250 c 6,108,-1
 499 241 l 6,109,110
 496 181 496 181 462 125 c 5,111,112
 496 83 496 83 496 44 c 5,113,-1
 481 -14 l 5,114,-1
 480 -14 l 5,115,116
 472 -25 472 -25 457 -25 c 4,117,118
 445 -25 445 -25 436.5 -16.5 c 132,-1,119
 428 -8 428 -8 428 4 c 4,64,65
EndSplineSet
EndChar

StartChar: uni091C
Encoding: 44 2332 47
Width: 596
GlyphClass: 2
Flags: W
AnchorPoint: "Anchor_top" 508 517 basechar 0
AnchorPoint: "Anchor_bottom" 518 -19 basechar 0
LayerCount: 2
Fore
SplineSet
482 292 m 1,0,-1
 478 292 l 1,1,-1
 476 291 l 1,2,-1
 398 291 l 1,3,4
 428 255 428 255 428 203 c 0,5,6
 428 134 428 134 377.5 97 c 128,-1,7
 327 60 327 60 264 60 c 2,8,-1
 254 60 l 2,9,10
 201 63 201 63 155 87.5 c 128,-1,11
 109 112 109 112 82.5 143 c 128,-1,12
 56 174 56 174 41.5 201 c 128,-1,13
 27 228 27 228 27 242 c 0,14,15
 27 245 27 245 28 250 c 128,-1,16
 29 255 29 255 36 263.5 c 128,-1,17
 43 272 43 272 56 272 c 0,18,19
 77 272 77 272 83 253 c 0,20,21
 107 188 107 188 156 154.5 c 128,-1,22
 205 121 205 121 257 118 c 2,23,-1
 264 118 l 2,24,25
 302 118 302 118 336 138 c 128,-1,26
 370 158 370 158 370 203 c 0,27,28
 370 232 370 232 356 251.5 c 128,-1,29
 342 271 342 271 320 278.5 c 128,-1,30
 298 286 298 286 283.5 288.5 c 128,-1,31
 269 291 269 291 257 291 c 2,32,-1
 189 291 l 2,33,34
 177 291 177 291 168.5 299.5 c 128,-1,35
 160 308 160 308 160 320 c 128,-1,36
 160 332 160 332 168.5 340.5 c 128,-1,37
 177 349 177 349 189 349 c 2,38,-1
 482 349 l 1,39,-1
 482 441 l 1,40,-1
 -2 441 l 2,41,42
 -14 441 -14 441 -22.5 449.5 c 128,-1,43
 -31 458 -31 458 -31 470 c 128,-1,44
 -31 482 -31 482 -22.5 490.5 c 128,-1,45
 -14 499 -14 499 -2 499 c 2,46,-1
 597 499 l 2,47,48
 609 499 609 499 617.5 490.5 c 128,-1,49
 626 482 626 482 626 470 c 128,-1,50
 626 458 626 458 617.5 449.5 c 128,-1,51
 609 441 609 441 597 441 c 2,52,-1
 540 441 l 1,53,-1
 540 26 l 2,54,55
 540 14 540 14 531.5 5.5 c 128,-1,56
 523 -3 523 -3 511 -3 c 128,-1,57
 499 -3 499 -3 490.5 5.5 c 128,-1,58
 482 14 482 14 482 26 c 2,59,-1
 482 292 l 1,0,-1
EndSplineSet
EndChar

StartChar: uni091D
Encoding: 45 2333 48
Width: 780
GlyphClass: 2
Flags: W
AnchorPoint: "Anchor_top" 451 515 basechar 0
AnchorPoint: "Anchor_bottom" 459 -21 basechar 0
LayerCount: 2
Fore
SplineSet
237 411 m 1,0,-1
 237 428 l 2,1,2
 237 431 237 431 235.5 435 c 128,-1,3
 234 439 234 439 224.5 446 c 128,-1,4
 215 453 215 453 199 453 c 0,5,6
 171 453 171 453 149.5 432 c 128,-1,7
 128 411 128 411 128 379 c 0,8,9
 128 362 128 362 137 352.5 c 128,-1,10
 146 343 146 343 153 341.5 c 128,-1,11
 160 340 160 340 167 340 c 0,12,13
 186 340 186 340 206 352 c 128,-1,14
 226 364 226 364 237 387 c 1,15,-1
 237 399 l 1,16,-1
 238 400 l 1,17,-1
 238 410 l 1,18,-1
 237 411 l 1,0,-1
234 200 m 1,19,20
 214 198 214 198 192 193.5 c 128,-1,21
 170 189 170 189 144 173 c 128,-1,22
 118 157 118 157 118 133 c 0,23,24
 118 115 118 115 125.5 103 c 128,-1,25
 133 91 133 91 144.5 86.5 c 128,-1,26
 156 82 156 82 163 80.5 c 128,-1,27
 170 79 170 79 175 79 c 0,28,29
 194 79 194 79 207 93 c 128,-1,30
 220 107 220 107 225.5 129.5 c 128,-1,31
 231 152 231 152 232.5 168 c 128,-1,32
 234 184 234 184 234 200 c 1,19,20
199 511 m 0,33,34
 248 511 248 511 272 482.5 c 128,-1,35
 296 454 296 454 296 428 c 2,36,-1
 296 411 l 2,37,38
 296 362 296 362 294 276 c 2,39,-1
 294 261 l 1,40,-1
 425 261 l 1,41,-1
 425 441 l 1,42,-1
 373 441 l 2,43,44
 361 441 361 441 352.5 449.5 c 128,-1,45
 344 458 344 458 344 470 c 128,-1,46
 344 482 344 482 352.5 490.5 c 128,-1,47
 361 499 361 499 373 499 c 2,48,-1
 778 499 l 2,49,50
 790 499 790 499 798.5 490.5 c 128,-1,51
 807 482 807 482 807 470 c 128,-1,52
 807 458 807 458 798.5 449.5 c 128,-1,53
 790 441 790 441 778 441 c 2,54,-1
 483 441 l 1,55,-1
 483 317 l 1,56,57
 538 372 538 372 605 372 c 0,58,59
 659 372 659 372 702 338 c 128,-1,60
 745 304 745 304 745 240 c 0,61,62
 745 185 745 185 714 147 c 0,63,64
 671 91 671 91 596 78 c 1,65,-1
 591 78 l 2,66,67
 567 78 567 78 562 102 c 1,68,-1
 562 107 l 2,69,70
 562 122 562 122 572 128.5 c 128,-1,71
 582 135 582 135 595.5 136.5 c 128,-1,72
 609 138 609 138 630 149.5 c 128,-1,73
 651 161 651 161 668 183 c 0,74,75
 687 206 687 206 687 240 c 0,76,77
 687 273 687 273 665 293.5 c 128,-1,78
 643 314 643 314 605 314 c 0,79,80
 557 314 557 314 520 270 c 128,-1,81
 483 226 483 226 483 201 c 2,82,-1
 483 25 l 2,83,84
 483 13 483 13 474.5 4.5 c 128,-1,85
 466 -4 466 -4 454 -4 c 128,-1,86
 442 -4 442 -4 433.5 4.5 c 128,-1,87
 425 13 425 13 425 25 c 2,88,-1
 425 203 l 1,89,-1
 293 203 l 1,90,-1
 293 201 l 2,91,92
 293 117 293 117 261.5 69 c 128,-1,93
 230 21 230 21 175 21 c 0,94,95
 129 21 129 21 94.5 51 c 128,-1,96
 60 81 60 81 60 133 c 0,97,98
 60 150 60 150 66 166.5 c 128,-1,99
 72 183 72 183 88 203.5 c 128,-1,100
 104 224 104 224 142 239 c 128,-1,101
 180 254 180 254 235 259 c 1,102,-1
 235 277 l 1,103,-1
 236 278 l 1,104,-1
 236 303 l 1,105,106
 203 282 203 282 167 282 c 0,107,108
 125 282 125 282 97.5 308.5 c 128,-1,109
 70 335 70 335 70 379 c 0,110,111
 70 412 70 412 85 441 c 1,112,-1
 30 441 l 2,113,114
 18 441 18 441 9 449.5 c 128,-1,115
 0 458 0 458 0 470 c 128,-1,116
 0 482 0 482 9 490.5 c 128,-1,117
 18 499 18 499 30 499 c 2,118,-1
 144 499 l 1,119,120
 170 511 170 511 199 511 c 0,33,34
EndSplineSet
EndChar

StartChar: uni091E
Encoding: 46 2334 49
Width: 586
GlyphClass: 2
Flags: W
AnchorPoint: "Anchor_top" 506 517 basechar 0
AnchorPoint: "Anchor_bottom" 516 -25 basechar 0
LayerCount: 2
Fore
SplineSet
212 298 m 1,0,1
 199 285 199 285 195.5 283 c 128,-1,2
 192 281 192 281 184 281 c 0,3,4
 172 281 172 281 163.5 289.5 c 128,-1,5
 155 298 155 298 155 310 c 0,6,7
 155 320 155 320 161 328 c 0,8,9
 204 383 204 383 267 383 c 0,10,11
 321 383 321 383 358.5 351 c 128,-1,12
 396 319 396 319 408 258 c 1,13,14
 446 258 446 258 482 282 c 1,15,-1
 482 441 l 1,16,-1
 -16 441 l 2,17,18
 -28 441 -28 441 -36.5 449.5 c 128,-1,19
 -45 458 -45 458 -45 470 c 128,-1,20
 -45 482 -45 482 -36.5 490.5 c 128,-1,21
 -28 499 -28 499 -16 499 c 2,22,-1
 591 499 l 2,23,24
 603 499 603 499 611.5 490.5 c 128,-1,25
 620 482 620 482 620 470 c 128,-1,26
 620 458 620 458 611.5 449.5 c 128,-1,27
 603 441 603 441 591 441 c 2,28,-1
 540 441 l 1,29,-1
 540 26 l 2,30,31
 540 14 540 14 531.5 5.5 c 128,-1,32
 523 -3 523 -3 511 -3 c 128,-1,33
 499 -3 499 -3 490.5 5.5 c 128,-1,34
 482 14 482 14 482 26 c 2,35,-1
 482 216 l 1,36,37
 446 200 446 200 409 200 c 1,38,39
 400 147 400 147 359 110.5 c 128,-1,40
 318 74 318 74 245 74 c 0,41,42
 196 74 196 74 155.5 93.5 c 128,-1,43
 115 113 115 113 91.5 143 c 128,-1,44
 68 173 68 173 56 194.5 c 128,-1,45
 44 216 44 216 38 235 c 2,46,-1
 37 237 l 2,47,48
 36 240 36 240 36 245 c 0,49,50
 36 255 36 255 44 264.5 c 128,-1,51
 52 274 52 274 65 274 c 0,52,53
 86 274 86 274 93 254 c 1,54,-1
 93 253 l 1,55,56
 97 242 97 242 104.5 228 c 128,-1,57
 112 214 112 214 129.5 189 c 128,-1,58
 147 164 147 164 177.5 148 c 128,-1,59
 208 132 208 132 245 132 c 0,60,61
 279 132 279 132 302.5 142.5 c 128,-1,62
 326 153 326 153 336 170.5 c 128,-1,63
 346 188 346 188 349.5 202 c 128,-1,64
 353 216 353 216 353 230 c 0,65,66
 353 234 353 234 352.5 241 c 128,-1,67
 352 248 352 248 347 263.5 c 128,-1,68
 342 279 342 279 334 292 c 128,-1,69
 326 305 326 305 308.5 315 c 128,-1,70
 291 325 291 325 267 325 c 0,71,72
 234 325 234 325 212 299 c 1,73,-1
 212 298 l 1,0,1
EndSplineSet
EndChar

StartChar: uni091F
Encoding: 47 2335 50
Width: 456
GlyphClass: 2
Flags: W
AnchorPoint: "Anchor_top" 296 519 basechar 0
AnchorPoint: "Anchor_bottom" 264 17 basechar 0
LayerCount: 2
Fore
SplineSet
225 42 m 0,0,1
 156 42 156 42 101 84 c 128,-1,2
 46 126 46 126 46 197 c 0,3,4
 46 267 46 267 91 312 c 128,-1,5
 136 357 136 357 211 362 c 0,6,7
 224 363 224 363 253 363 c 2,8,-1
 273 363 l 1,9,-1
 273 441 l 1,10,-1
 0 441 l 2,11,12
 -12 441 -12 441 -20.5 449.5 c 128,-1,13
 -29 458 -29 458 -29 470 c 128,-1,14
 -29 482 -29 482 -20.5 490.5 c 128,-1,15
 -12 499 -12 499 0 499 c 2,16,-1
 463 499 l 2,17,18
 475 499 475 499 483.5 490.5 c 128,-1,19
 492 482 492 482 492 470 c 128,-1,20
 492 458 492 458 483.5 449.5 c 128,-1,21
 475 441 475 441 463 441 c 2,22,-1
 331 441 l 1,23,-1
 331 333 l 2,24,25
 331 304 331 304 301 304 c 0,26,27
 278 305 278 305 253 305 c 0,28,29
 104 305 104 305 104 197 c 0,30,31
 104 151 104 151 142.5 125.5 c 128,-1,32
 181 100 181 100 225 100 c 0,33,34
 273 100 273 100 311 123 c 128,-1,35
 349 146 349 146 362 183 c 0,36,37
 368 202 368 202 390 202 c 0,38,39
 406 202 406 202 412.5 192 c 128,-1,40
 419 182 419 182 419 173 c 0,41,42
 419 162 419 162 407.5 142 c 128,-1,43
 396 122 396 122 374.5 99 c 128,-1,44
 353 76 353 76 313 59 c 128,-1,45
 273 42 273 42 225 42 c 0,0,1
EndSplineSet
EndChar

StartChar: uni0920
Encoding: 48 2336 51
Width: 478
GlyphClass: 2
Flags: W
AnchorPoint: "Anchor_top" 256 516 basechar 0
AnchorPoint: "Anchor_bottom" 254 10 basechar 0
LayerCount: 2
Fore
SplineSet
380 194 m 0,0,1
 380 236 380 236 339.5 263.5 c 128,-1,2
 299 291 299 291 267 292 c 2,3,-1
 262 292 l 1,4,-1
 260 293 l 2,5,6
 249 295 249 295 234 295 c 0,7,8
 186 295 186 295 141 270 c 128,-1,9
 96 245 96 245 91 194 c 1,10,-1
 91 187 l 2,11,12
 91 180 91 180 92.5 172 c 128,-1,13
 94 164 94 164 102 148 c 128,-1,14
 110 132 110 132 124.5 120 c 128,-1,15
 139 108 139 108 168 98.5 c 128,-1,16
 197 89 197 89 237 89 c 2,17,-1
 250 89 l 2,18,19
 253 89 253 89 264.5 91 c 128,-1,20
 276 93 276 93 296.5 99.5 c 128,-1,21
 317 106 317 106 335 116.5 c 128,-1,22
 353 127 353 127 366.5 147.5 c 128,-1,23
 380 168 380 168 380 194 c 0,0,1
33 200 m 1,24,25
 40 274 40 274 103.5 313.5 c 128,-1,26
 167 353 167 353 234 353 c 2,27,-1
 236 353 l 1,28,-1
 236 440 l 1,29,-1
 237 441 l 1,30,-1
 2 441 l 2,31,32
 -10 441 -10 441 -18.5 449.5 c 128,-1,33
 -27 458 -27 458 -27 470 c 128,-1,34
 -27 482 -27 482 -18.5 490.5 c 128,-1,35
 -10 499 -10 499 2 499 c 2,36,-1
 475 499 l 2,37,38
 487 499 487 499 495.5 490.5 c 128,-1,39
 504 482 504 482 504 470 c 128,-1,40
 504 458 504 458 495.5 449.5 c 128,-1,41
 487 441 487 441 475 441 c 2,42,-1
 295 441 l 1,43,-1
 294 440 l 1,44,-1
 294 347 l 1,45,46
 346 335 346 335 392 294 c 128,-1,47
 438 253 438 253 438 194 c 0,48,49
 438 149 438 149 416 115.5 c 128,-1,50
 394 82 394 82 361 65 c 128,-1,51
 328 48 328 48 301.5 40 c 128,-1,52
 275 32 275 32 254 31 c 2,53,-1
 237 31 l 2,54,55
 157 31 157 31 104 63 c 0,56,57
 75 81 75 81 54 113 c 128,-1,58
 33 145 33 145 33 186 c 2,59,-1
 33 200 l 1,24,25
EndSplineSet
EndChar

StartChar: uni0921
Encoding: 49 2337 52
Width: 525
GlyphClass: 2
Flags: W
AnchorPoint: "Anchor_top" 358 516 basechar 0
AnchorPoint: "Anchor_bottom" 274 -18 basechar 0
LayerCount: 2
Fore
SplineSet
356 213 m 0,0,1
 349 213 349 213 341.5 211.5 c 128,-1,2
 334 210 334 210 328.5 207.5 c 128,-1,3
 323 205 323 205 318.5 202.5 c 128,-1,4
 314 200 314 200 312 198 c 2,5,-1
 309 197 l 1,6,-1
 307 196 l 1,7,-1
 305 196 l 2,8,9
 303 194 303 194 289.5 187 c 128,-1,10
 276 180 276 180 250.5 171.5 c 128,-1,11
 225 163 225 163 203 163 c 0,12,13
 154 163 154 163 118.5 192.5 c 128,-1,14
 83 222 83 222 83 272 c 0,15,16
 83 324 83 324 128 354.5 c 128,-1,17
 173 385 173 385 253 385 c 2,18,-1
 338 385 l 1,19,-1
 338 441 l 1,20,-1
 0 441 l 2,21,22
 -12 441 -12 441 -20.5 449.5 c 128,-1,23
 -29 458 -29 458 -29 470 c 128,-1,24
 -29 482 -29 482 -20.5 490.5 c 128,-1,25
 -12 499 -12 499 0 499 c 2,26,-1
 521 499 l 2,27,28
 533 499 533 499 541.5 490.5 c 128,-1,29
 550 482 550 482 550 470 c 128,-1,30
 550 458 550 458 541.5 449.5 c 128,-1,31
 533 441 533 441 521 441 c 2,32,-1
 396 441 l 1,33,-1
 396 356 l 2,34,35
 396 344 396 344 387.5 335.5 c 128,-1,36
 379 327 379 327 367 327 c 2,37,-1
 253 327 l 2,38,39
 243 327 243 327 230 325.5 c 128,-1,40
 217 324 217 324 194 320 c 128,-1,41
 171 316 171 316 156 303.5 c 128,-1,42
 141 291 141 291 141 272 c 0,43,44
 141 255 141 255 149 243.5 c 128,-1,45
 157 232 157 232 169 228 c 128,-1,46
 181 224 181 224 189 222.5 c 128,-1,47
 197 221 197 221 203 221 c 1,48,-1
 204 222 l 1,49,-1
 211 222 l 1,50,51
 239 227 239 227 281.5 249 c 128,-1,52
 324 271 324 271 356 271 c 0,53,54
 405 271 405 271 445 237.5 c 128,-1,55
 485 204 485 204 485 150 c 2,56,-1
 485 144 l 2,57,58
 483 83 483 83 423 44 c 128,-1,59
 363 5 363 5 283 5 c 0,60,61
 150 5 150 5 57 98 c 0,62,63
 49 106 49 106 49 119 c 0,64,65
 49 133 49 133 58 140.5 c 128,-1,66
 67 148 67 148 78 148 c 128,-1,67
 89 148 89 148 98 139 c 0,68,69
 174 63 174 63 283 63 c 0,70,71
 339 63 339 63 383 88 c 128,-1,72
 427 113 427 113 427 150 c 0,73,74
 427 180 427 180 406 195 c 128,-1,75
 385 210 385 210 365 212 c 2,76,-1
 358 212 l 2,77,78
 357 213 357 213 356 213 c 0,0,1
EndSplineSet
EndChar

StartChar: uni0922
Encoding: 50 2338 53
Width: 448
GlyphClass: 2
Flags: W
AnchorPoint: "Anchor_top" 318 519 basechar 0
AnchorPoint: "Anchor_bottom" 230 -25 basechar 0
LayerCount: 2
Fore
SplineSet
342 134 m 0,0,1
 342 157 342 157 325.5 168 c 128,-1,2
 309 179 309 179 294 179 c 2,3,-1
 293 179 l 2,4,5
 270 178 270 178 256.5 164.5 c 128,-1,6
 243 151 243 151 243 134 c 0,7,8
 243 92 243 92 280 70 c 0,9,10
 282 69 282 69 286 65 c 1,11,12
 342 81 342 81 342 134 c 0,0,1
38 178 m 0,13,14
 38 256 38 256 95.5 303 c 128,-1,15
 153 350 153 350 225 350 c 2,16,-1
 292 350 l 1,17,-1
 292 441 l 1,18,-1
 -11 441 l 2,19,20
 -23 441 -23 441 -31.5 450 c 128,-1,21
 -40 459 -40 459 -40 471 c 128,-1,22
 -40 483 -40 483 -31.5 491 c 128,-1,23
 -23 499 -23 499 -11 499 c 2,24,-1
 452 499 l 2,25,26
 464 499 464 499 472.5 491 c 128,-1,27
 481 483 481 483 481 471 c 128,-1,28
 481 459 481 459 472.5 450 c 128,-1,29
 464 441 464 441 452 441 c 2,30,-1
 350 441 l 1,31,-1
 350 321 l 2,32,33
 350 309 350 309 341.5 300.5 c 128,-1,34
 333 292 333 292 321 292 c 2,35,-1
 225 292 l 2,36,37
 174 292 174 292 135 261 c 128,-1,38
 96 230 96 230 96 178 c 0,39,40
 96 132 96 132 127.5 102 c 128,-1,41
 159 72 159 72 206 63 c 1,42,43
 185 97 185 97 185 134 c 0,44,45
 185 173 185 173 214 204 c 128,-1,46
 243 235 243 235 291 237 c 2,47,-1
 294 237 l 2,48,49
 330 237 330 237 365 211.5 c 128,-1,50
 400 186 400 186 400 134 c 0,51,52
 400 80 400 80 360 41 c 128,-1,53
 320 2 320 2 243 2 c 0,54,55
 160 2 160 2 99 49.5 c 128,-1,56
 38 97 38 97 38 178 c 0,13,14
EndSplineSet
EndChar

StartChar: uni0923
Encoding: 51 2339 54
Width: 498
GlyphClass: 2
Flags: W
AnchorPoint: "Anchor_top" 429 520 basechar 0
AnchorPoint: "Anchor_bottom" 431 -28 basechar 0
LayerCount: 2
Fore
SplineSet
94 275 m 0,0,1
 94 251 94 251 97 229 c 128,-1,2
 100 207 100 207 107.5 182 c 128,-1,3
 115 157 115 157 132.5 141.5 c 128,-1,4
 150 126 150 126 175 126 c 2,5,-1
 177 126 l 2,6,7
 205 126 205 126 226 150 c 128,-1,8
 247 174 247 174 255 211 c 0,9,10
 259 231 259 231 259 267 c 0,11,12
 259 334 259 334 243 442 c 1,13,-1
 109 442 l 1,14,15
 94 374 94 374 94 275 c 0,0,1
-92 471 m 128,-1,17
 -92 482 -92 482 -84.5 491 c 128,-1,18
 -77 500 -77 500 -63 500 c 2,19,-1
 397 500 l 2,20,21
 402 500 402 500 404 499 c 2,22,-1
 519 499 l 2,23,24
 531 499 531 499 539.5 490.5 c 128,-1,25
 548 482 548 482 548 470 c 128,-1,26
 548 458 548 458 539.5 449.5 c 128,-1,27
 531 441 531 441 519 441 c 2,28,-1
 455 441 l 1,29,-1
 455 26 l 2,30,31
 455 14 455 14 446.5 5.5 c 128,-1,32
 438 -3 438 -3 426 -3 c 128,-1,33
 414 -3 414 -3 405.5 5.5 c 128,-1,34
 397 14 397 14 397 26 c 2,35,-1
 397 441 l 1,36,-1
 322 441 l 2,37,38
 317 441 317 441 315 442 c 2,39,-1
 302 442 l 1,40,41
 317 340 317 340 317 270 c 2,42,-1
 317 262 l 2,43,44
 317 177 317 177 279 124 c 0,45,46
 240 68 240 68 175 68 c 2,47,-1
 173 68 l 2,48,49
 36 68 36 68 36 293 c 1,50,-1
 37 309 l 2,51,52
 38 372 38 372 50 442 c 1,53,-1
 -63 442 l 2,54,55
 -77 442 -77 442 -84.5 451 c 128,-1,16
 -92 460 -92 460 -92 471 c 128,-1,17
EndSplineSet
EndChar

StartChar: uni0924
Encoding: 52 2340 55
Width: 466
GlyphClass: 2
Flags: W
AnchorPoint: "Anchor_top" 378 516 basechar 0
AnchorPoint: "Anchor_bottom" 384 -22 basechar 0
LayerCount: 2
Fore
SplineSet
37 187 m 0,0,1
 37 256 37 256 92 310.5 c 128,-1,2
 147 365 147 365 227 365 c 0,3,4
 303 365 303 365 354 327 c 1,5,-1
 354 441 l 1,6,-1
 -8 441 l 2,7,8
 -20 441 -20 441 -28.5 449.5 c 128,-1,9
 -37 458 -37 458 -37 470 c 128,-1,10
 -37 482 -37 482 -28.5 490.5 c 128,-1,11
 -20 499 -20 499 -8 499 c 2,12,-1
 463 499 l 2,13,14
 475 499 475 499 483.5 490.5 c 128,-1,15
 492 482 492 482 492 470 c 128,-1,16
 492 458 492 458 483.5 449.5 c 128,-1,17
 475 441 475 441 463 441 c 2,18,-1
 412 441 l 1,19,-1
 412 25 l 2,20,21
 412 13 412 13 403.5 4.5 c 128,-1,22
 395 -4 395 -4 383 -4 c 128,-1,23
 371 -4 371 -4 362.5 4.5 c 128,-1,24
 354 13 354 13 354 25 c 2,25,-1
 354 242 l 1,26,-1
 353 243 l 2,27,28
 345 256 345 256 333 268.5 c 128,-1,29
 321 281 321 281 292 294 c 128,-1,30
 263 307 263 307 227 307 c 0,31,32
 174 307 174 307 134.5 271 c 128,-1,33
 95 235 95 235 95 187 c 128,-1,34
 95 139 95 139 113 106.5 c 128,-1,35
 131 74 131 74 168 42 c 0,36,37
 178 33 178 33 178 20 c 0,38,39
 178 8 178 8 169.5 -0.5 c 128,-1,40
 161 -9 161 -9 149 -9 c 0,41,42
 138 -9 138 -9 130 -2 c 0,43,44
 86 36 86 36 61.5 79 c 128,-1,45
 37 122 37 122 37 187 c 0,0,1
EndSplineSet
EndChar

StartChar: uni0925
Encoding: 53 2341 56
Width: 480
GlyphClass: 2
Flags: W
AnchorPoint: "Anchor_top" 396 511 basechar 0
AnchorPoint: "Anchor_bottom" 398 -23 basechar 0
LayerCount: 2
Fore
SplineSet
371 109 m 1,0,1
 351 89 351 89 337 77.5 c 128,-1,2
 323 66 323 66 291 52.5 c 128,-1,3
 259 39 259 39 224 39 c 0,4,5
 217 39 217 39 203 41 c 2,6,-1
 201 41 l 1,7,8
 151 47 151 47 114.5 71.5 c 128,-1,9
 78 96 78 96 61.5 128.5 c 128,-1,10
 45 161 45 161 38 188 c 128,-1,11
 31 215 31 215 31 236 c 0,12,13
 31 265 31 265 60 265 c 0,14,15
 70 265 70 265 85.5 266.5 c 128,-1,16
 101 268 101 268 135.5 282 c 128,-1,17
 170 296 170 296 188 320 c 0,18,19
 214 356 214 356 214 389 c 0,20,21
 214 417 214 417 198.5 439 c 128,-1,22
 183 461 183 461 163 461 c 0,23,24
 149 461 149 461 135 452 c 128,-1,25
 121 443 121 443 121 427 c 0,26,27
 121 408 121 408 135.5 391.5 c 128,-1,28
 150 375 150 375 160 371 c 0,29,30
 178 365 178 365 178 344 c 0,31,32
 178 333 178 333 170.5 324 c 128,-1,33
 163 315 163 315 149 315 c 0,34,35
 128 315 128 315 95.5 348.5 c 128,-1,36
 63 382 63 382 63 426 c 2,37,-1
 63 436 l 1,38,-1
 64 437 l 1,39,-1
 64 441 l 1,40,-1
 -3 441 l 2,41,42
 -15 441 -15 441 -23.5 449.5 c 128,-1,43
 -32 458 -32 458 -32 470 c 128,-1,44
 -32 482 -32 482 -23.5 490.5 c 128,-1,45
 -15 499 -15 499 -3 499 c 2,46,-1
 102 499 l 1,47,48
 124 519 124 519 163 519 c 0,49,50
 211 519 211 519 241.5 479 c 128,-1,51
 272 439 272 439 272 389 c 0,52,53
 272 329 272 329 227.5 275.5 c 128,-1,54
 183 222 183 222 93 210 c 1,55,56
 118 97 118 97 224 97 c 0,57,58
 260 97 260 97 290 115.5 c 128,-1,59
 320 134 320 134 336.5 159.5 c 128,-1,60
 353 185 353 185 362 207 c 128,-1,61
 371 229 371 229 371 241 c 2,62,-1
 371 441 l 1,63,-1
 315 441 l 2,64,65
 303 441 303 441 294.5 449.5 c 128,-1,66
 286 458 286 458 286 470 c 128,-1,67
 286 482 286 482 294.5 490.5 c 128,-1,68
 303 499 303 499 315 499 c 2,69,-1
 470 499 l 2,70,71
 482 499 482 499 490.5 490.5 c 128,-1,72
 499 482 499 482 499 470 c 128,-1,73
 499 458 499 458 490.5 449.5 c 128,-1,74
 482 441 482 441 470 441 c 2,75,-1
 429 441 l 1,76,-1
 429 26 l 2,77,78
 429 14 429 14 420.5 5.5 c 128,-1,79
 412 -3 412 -3 400 -3 c 128,-1,80
 388 -3 388 -3 379.5 5.5 c 128,-1,81
 371 14 371 14 371 26 c 2,82,-1
 371 109 l 1,0,1
EndSplineSet
EndChar

StartChar: uni0926
Encoding: 54 2342 57
Width: 446
GlyphClass: 2
Flags: W
AnchorPoint: "Anchor_top" 320 527 basechar 0
AnchorPoint: "Anchor_bottom" 378 -35 basechar 0
LayerCount: 2
Fore
SplineSet
305 162 m 2,0,-1
 305 160 l 2,1,2
 307 144 307 144 310 136 c 0,3,4
 313 136 313 136 314 137 c 0,5,6
 314 138 314 138 315 138 c 2,7,-1
 316 139 l 2,8,9
 317 140 317 140 320 140 c 0,10,11
 357 158 357 158 357 173 c 0,12,13
 357 194 357 194 329 194 c 0,14,15
 316 194 316 194 310 182.5 c 128,-1,16
 304 171 304 171 305 162 c 2,0,-1
338 85 m 1,17,18
 350 70 350 70 363 60 c 128,-1,19
 376 50 376 50 385.5 45 c 128,-1,20
 395 40 395 40 396 39 c 2,21,-1
 397 39 l 1,22,23
 421 28 421 28 421 10 c 0,24,25
 421 4 421 4 420 1 c 2,26,-1
 420 0 l 1,27,-1
 419 -1 l 1,28,29
 411 -19 411 -19 392 -19 c 0,30,31
 384 -19 384 -19 382 -17 c 2,32,-1
 381 -17 l 1,33,34
 351 -5 351 -5 325.5 16 c 128,-1,35
 300 37 300 37 289.5 50.5 c 128,-1,36
 279 64 279 64 279 66 c 1,37,38
 251 61 251 61 228 61 c 0,39,40
 184 61 184 61 140.5 76.5 c 128,-1,41
 97 92 97 92 64 128.5 c 128,-1,42
 31 165 31 165 31 215 c 0,43,44
 31 286 31 286 83 329.5 c 128,-1,45
 135 373 135 373 202 373 c 2,46,-1
 293 373 l 1,47,-1
 293 441 l 1,48,-1
 -1 441 l 2,49,50
 -13 441 -13 441 -21.5 449.5 c 128,-1,51
 -30 458 -30 458 -30 470 c 128,-1,52
 -30 482 -30 482 -21.5 490.5 c 128,-1,53
 -13 499 -13 499 -1 499 c 2,54,-1
 455 499 l 2,55,56
 467 499 467 499 475.5 490.5 c 128,-1,57
 484 482 484 482 484 470 c 128,-1,58
 484 458 484 458 475 449.5 c 128,-1,59
 466 441 466 441 454 441 c 2,60,-1
 351 441 l 1,61,-1
 351 344 l 2,62,63
 351 332 351 332 342.5 323.5 c 128,-1,64
 334 315 334 315 322 315 c 2,65,-1
 202 315 l 2,66,67
 161 315 161 315 125 288.5 c 128,-1,68
 89 262 89 262 89 215 c 0,69,70
 89 170 89 170 134 144.5 c 128,-1,71
 179 119 179 119 228 119 c 0,72,73
 236 119 236 119 254 121 c 1,74,75
 249 137 249 137 247 158 c 2,76,-1
 247 164 l 2,77,78
 247 196 247 196 269.5 224 c 128,-1,79
 292 252 292 252 329 252 c 0,80,81
 364 252 364 252 389.5 231 c 128,-1,82
 415 210 415 210 415 173 c 0,83,84
 415 155 415 155 406 139 c 128,-1,85
 397 123 397 123 383 112 c 128,-1,86
 369 101 369 101 359 95.5 c 128,-1,87
 349 90 349 90 341 86 c 2,88,-1
 339 85 l 1,89,-1
 338 85 l 1,17,18
EndSplineSet
EndChar

StartChar: uni0927
Encoding: 55 2343 58
Width: 476
GlyphClass: 2
Flags: W
AnchorPoint: "Anchor_top" 383 514 basechar 0
AnchorPoint: "Anchor_bottom" 381 -28 basechar 0
LayerCount: 2
Fore
SplineSet
149 397 m 0,0,1
 149 413 149 413 165.5 421.5 c 128,-1,2
 182 430 182 430 182 444 c 0,3,4
 182 467 182 467 154 467 c 0,5,6
 148 467 148 467 140.5 465.5 c 128,-1,7
 133 464 133 464 122 451.5 c 128,-1,8
 111 439 111 439 111 418 c 0,9,10
 111 353 111 353 166 322 c 1,11,12
 191 330 191 330 213 330 c 0,13,14
 225 330 225 330 233.5 321.5 c 128,-1,15
 242 313 242 313 242 301 c 128,-1,16
 242 289 242 289 233.5 280.5 c 128,-1,17
 225 272 225 272 213 272 c 0,18,19
 181 272 181 272 142.5 248 c 128,-1,20
 104 224 104 224 104 188 c 0,21,22
 104 147 104 147 138 125.5 c 128,-1,23
 172 104 172 104 211 104 c 0,24,25
 273 104 273 104 310 138.5 c 128,-1,26
 347 173 347 173 358 206 c 1,27,-1
 358 207 l 2,28,29
 360 209 360 209 360 210 c 2,30,-1
 360 441 l 1,31,-1
 305 441 l 2,32,33
 293 441 293 441 284 449.5 c 128,-1,34
 275 458 275 458 275 470 c 128,-1,35
 275 482 275 482 284 490.5 c 128,-1,36
 293 499 293 499 305 499 c 2,37,-1
 466 499 l 2,38,39
 478 499 478 499 486.5 490.5 c 128,-1,40
 495 482 495 482 495 470 c 128,-1,41
 495 458 495 458 486.5 449.5 c 128,-1,42
 478 441 478 441 466 441 c 2,43,-1
 418 441 l 1,44,-1
 418 26 l 2,45,46
 418 14 418 14 409.5 5 c 128,-1,47
 401 -4 401 -4 389 -4 c 128,-1,48
 377 -4 377 -4 368.5 5 c 128,-1,49
 360 14 360 14 360 26 c 2,50,-1
 360 106 l 1,51,52
 300 46 300 46 211 46 c 0,53,54
 146 46 146 46 96 85 c 128,-1,55
 46 124 46 124 46 188 c 0,56,57
 46 251 46 251 106 294 c 1,58,59
 53 343 53 343 53 418 c 0,60,61
 53 427 53 427 55 441 c 1,62,-1
 0 441 l 2,63,64
 -12 441 -12 441 -20.5 449.5 c 128,-1,65
 -29 458 -29 458 -29 470 c 128,-1,66
 -29 482 -29 482 -20.5 490.5 c 128,-1,67
 -12 499 -12 499 0 499 c 2,68,-1
 86 499 l 1,69,70
 116 525 116 525 153 525 c 2,71,-1
 154 525 l 2,72,73
 189 525 189 525 214.5 503 c 128,-1,74
 240 481 240 481 240 443 c 0,75,76
 240 409 240 409 218 388.5 c 128,-1,77
 196 368 196 368 178 368 c 0,78,79
 157 368 157 368 151 389 c 1,80,-1
 150 390 l 1,81,-1
 150 391 l 2,82,83
 149 393 149 393 149 397 c 0,0,1
EndSplineSet
EndChar

StartChar: uni0928
Encoding: 56 2344 59
Width: 474
GlyphClass: 2
Flags: W
AnchorPoint: "Anchor_top" 384 516 basechar 0
AnchorPoint: "Anchor_bottom" 384 -22 basechar 0
LayerCount: 2
Fore
SplineSet
147 131 m 0,0,1
 152 131 152 131 157.5 132.5 c 128,-1,2
 163 134 163 134 172.5 138.5 c 128,-1,3
 182 143 182 143 188.5 155 c 128,-1,4
 195 167 195 167 195 185 c 2,5,-1
 195 194 l 2,6,7
 192 210 192 210 177 228 c 128,-1,8
 162 246 162 246 138 251 c 1,9,10
 92 232 92 232 92 191 c 0,11,12
 92 164 92 164 108.5 147.5 c 128,-1,13
 125 131 125 131 147 131 c 0,0,1
34 191 m 0,14,15
 34 261 34 261 96 294.5 c 128,-1,16
 158 328 158 328 250 328 c 0,17,18
 313 328 313 328 360 313 c 1,19,-1
 360 441 l 1,20,-1
 10 441 l 2,21,22
 -2 441 -2 441 -10.5 449.5 c 128,-1,23
 -19 458 -19 458 -19 470 c 128,-1,24
 -19 482 -19 482 -10.5 490.5 c 128,-1,25
 -2 499 -2 499 10 499 c 2,26,-1
 466 499 l 2,27,28
 478 499 478 499 486.5 490.5 c 128,-1,29
 495 482 495 482 495 470 c 128,-1,30
 495 458 495 458 486.5 449.5 c 128,-1,31
 478 441 478 441 466 441 c 2,32,-1
 418 441 l 1,33,-1
 418 26 l 2,34,35
 418 14 418 14 409.5 5.5 c 128,-1,36
 401 -3 401 -3 389 -3 c 128,-1,37
 377 -3 377 -3 368.5 5.5 c 128,-1,38
 360 14 360 14 360 26 c 2,39,-1
 360 251 l 1,40,-1
 358 252 l 1,41,-1
 357 252 l 2,42,43
 356 253 356 253 355 253 c 2,44,-1
 354 253 l 1,45,46
 307 270 307 270 249 270 c 0,47,48
 230 270 230 270 219 269 c 1,49,50
 253 235 253 235 253 185 c 0,51,52
 253 142 253 142 226.5 107.5 c 128,-1,53
 200 73 200 73 147 73 c 0,54,55
 101 73 101 73 67.5 106.5 c 128,-1,56
 34 140 34 140 34 191 c 0,14,15
EndSplineSet
EndChar

StartChar: uni092A
Encoding: 57 2346 60
Width: 418
GlyphClass: 2
Flags: W
AnchorPoint: "Anchor_top" 320 511 basechar 0
AnchorPoint: "Anchor_bottom" 328 -19 basechar 0
LayerCount: 2
Fore
SplineSet
110 309 m 0,0,1
 110 172 110 172 210 160 c 1,2,-1
 218 160 l 2,3,4
 245 160 245 160 270 177 c 128,-1,5
 295 194 295 194 299 218 c 1,6,-1
 300 219 l 1,7,-1
 300 441 l 1,8,-1
 122 441 l 1,9,10
 110 363 110 363 110 309 c 0,0,1
62 432 m 1,11,-1
 62 437 l 1,12,-1
 63 438 l 1,13,-1
 63 441 l 1,14,-1
 9 441 l 2,15,16
 -3 441 -3 441 -11.5 449.5 c 128,-1,17
 -20 458 -20 458 -20 470 c 128,-1,18
 -20 482 -20 482 -11.5 490.5 c 128,-1,19
 -3 499 -3 499 9 499 c 2,20,-1
 407 499 l 2,21,22
 419 499 419 499 427.5 490.5 c 128,-1,23
 436 482 436 482 436 470 c 128,-1,24
 436 458 436 458 427.5 449.5 c 128,-1,25
 419 441 419 441 407 441 c 2,26,-1
 358 441 l 1,27,-1
 358 26 l 2,28,29
 358 14 358 14 350 5.5 c 128,-1,30
 342 -3 342 -3 330 -3 c 128,-1,31
 318 -3 318 -3 309 5.5 c 128,-1,32
 300 14 300 14 300 26 c 2,33,-1
 300 126 l 1,34,-1
 299 126 l 1,35,36
 262 102 262 102 219 102 c 0,37,38
 164 102 164 102 114 140 c 128,-1,39
 64 178 64 178 55 255 c 0,40,41
 52 280 52 280 52 309 c 0,42,43
 52 357 52 357 62 432 c 1,11,-1
EndSplineSet
EndChar

StartChar: uni092B
Encoding: 58 2347 61
Width: 616
GlyphClass: 2
Flags: W
AnchorPoint: "Anchor_top" 303 512 basechar 0
AnchorPoint: "Anchor_bottom" 307 -20 basechar 0
LayerCount: 2
Fore
SplineSet
38 432 m 2,0,-1
 38 440 l 1,1,-1
 -16 440 l 2,2,3
 -28 440 -28 440 -36.5 448.5 c 128,-1,4
 -45 457 -45 457 -45 469 c 128,-1,5
 -45 481 -45 481 -36.5 490 c 128,-1,6
 -28 499 -28 499 -16 499 c 2,7,-1
 638 499 l 2,8,9
 649 499 649 499 658 490 c 128,-1,10
 667 481 667 481 667 470 c 128,-1,11
 667 459 667 459 658 450 c 128,-1,12
 649 441 649 441 638 441 c 2,13,-1
 388 441 l 1,14,-1
 386 440 l 1,15,-1
 333 440 l 1,16,-1
 333 304 l 1,17,18
 386 357 386 357 458 357 c 0,19,20
 465 357 465 357 469 356 c 0,21,22
 470 356 470 356 470 355.5 c 128,-1,23
 470 355 470 355 471 355 c 2,24,-1
 480 355 l 1,25,26
 537 348 537 348 565.5 312 c 128,-1,27
 594 276 594 276 594 227 c 2,28,-1
 594 222 l 2,29,30
 594 172 594 172 556.5 124 c 128,-1,31
 519 76 519 76 455 66 c 1,32,-1
 454 66 l 1,33,-1
 452 65 l 1,34,-1
 448 65 l 2,35,36
 443 64 443 64 438 64 c 0,37,38
 429 64 429 64 420 73.5 c 128,-1,39
 411 83 411 83 411 94 c 0,40,41
 411 116 411 116 445 123 c 0,42,43
 485 130 485 130 510.5 160.5 c 128,-1,44
 536 191 536 191 536 227 c 0,45,46
 536 262 536 262 513 280.5 c 128,-1,47
 490 299 490 299 455 299 c 0,48,49
 406 299 406 299 371.5 259 c 128,-1,50
 337 219 337 219 333 192 c 1,51,-1
 333 25 l 2,52,53
 333 13 333 13 325 4.5 c 128,-1,54
 317 -4 317 -4 305 -4 c 128,-1,55
 293 -4 293 -4 284 4.5 c 128,-1,56
 275 13 275 13 275 25 c 2,57,-1
 275 125 l 1,58,-1
 274 125 l 1,59,60
 236 101 236 101 194 101 c 0,61,62
 139 101 139 101 89 139 c 128,-1,63
 39 177 39 177 30 254 c 0,64,65
 27 280 27 280 27 308 c 0,66,67
 27 332 27 332 29.5 362 c 128,-1,68
 32 392 32 392 34.5 411.5 c 128,-1,69
 37 431 37 431 38 432 c 2,0,-1
274 217 m 1,70,-1
 274 221 l 1,71,-1
 275 222 l 1,72,-1
 275 440 l 1,73,-1
 97 440 l 1,74,75
 85 362 85 362 85 308 c 0,76,77
 85 171 85 171 185 159 c 1,78,-1
 193 159 l 2,79,80
 220 159 220 159 245 176 c 128,-1,81
 270 193 270 193 274 217 c 1,70,-1
EndSplineSet
EndChar

StartChar: uni092C
Encoding: 59 2348 62
Width: 458
GlyphClass: 2
Flags: W
AnchorPoint: "Anchor_top" 372 516 basechar 0
AnchorPoint: "Anchor_bottom" 378 -20 basechar 0
LayerCount: 2
Fore
SplineSet
352 231 m 2,0,-1
 352 246 l 1,1,-1
 351 248 l 1,2,-1
 350 249 l 1,3,4
 304 319 304 319 224 319 c 0,5,6
 198 319 198 319 176 311 c 1,7,-1
 324 178 l 1,8,-1
 328 174 l 1,9,10
 349 203 349 203 352 231 c 2,0,-1
93 215 m 0,11,12
 93 179 93 179 130 148 c 128,-1,13
 167 117 167 117 219 117 c 0,14,15
 255 117 255 117 285 135 c 1,16,-1
 124 281 l 1,17,18
 93 252 93 252 93 215 c 0,11,12
35 215 m 0,19,20
 35 280 35 280 89.5 328.5 c 128,-1,21
 144 377 144 377 224 377 c 0,22,23
 300 377 300 377 352 334 c 1,24,-1
 352 441 l 1,25,-1
 -1 441 l 2,26,27
 -13 441 -13 441 -21.5 449.5 c 128,-1,28
 -30 458 -30 458 -30 470 c 128,-1,29
 -30 482 -30 482 -21.5 490.5 c 128,-1,30
 -13 499 -13 499 -1 499 c 2,31,-1
 456 499 l 2,32,33
 468 499 468 499 477 490.5 c 128,-1,34
 486 482 486 482 486 470 c 128,-1,35
 486 458 486 458 477 449.5 c 128,-1,36
 468 441 468 441 456 441 c 2,37,-1
 410 441 l 1,38,-1
 410 26 l 2,39,40
 410 14 410 14 401.5 5.5 c 128,-1,41
 393 -3 393 -3 381 -3 c 128,-1,42
 369 -3 369 -3 360.5 5.5 c 128,-1,43
 352 14 352 14 352 26 c 2,44,-1
 352 114 l 1,45,46
 295 59 295 59 219 59 c 0,47,48
 142 59 142 59 88.5 106.5 c 128,-1,49
 35 154 35 154 35 215 c 0,19,20
EndSplineSet
EndChar

StartChar: uni092D
Encoding: 60 2349 63
Width: 502
GlyphClass: 2
Flags: W
AnchorPoint: "Anchor_top" 422 510 basechar 0
AnchorPoint: "Anchor_bottom" 430 -20 basechar 0
LayerCount: 2
Fore
SplineSet
106 379 m 0,0,1
 106 341 106 341 145 341 c 0,2,3
 192 341 192 341 215 387 c 1,4,-1
 215 428 l 2,5,6
 215 431 215 431 213 435 c 128,-1,7
 211 439 211 439 201.5 446 c 128,-1,8
 192 453 192 453 177 453 c 0,9,10
 149 453 149 453 127.5 432 c 128,-1,11
 106 411 106 411 106 379 c 0,0,1
212 200 m 1,12,-1
 211 200 l 2,13,14
 198 199 198 199 184 196 c 128,-1,15
 170 193 170 193 147 186 c 128,-1,16
 124 179 124 179 109.5 165 c 128,-1,17
 95 151 95 151 95 133 c 0,18,19
 95 110 95 110 109.5 96.5 c 128,-1,20
 124 83 124 83 134.5 81 c 128,-1,21
 145 79 145 79 153 79 c 0,22,23
 172 79 172 79 185 93 c 128,-1,24
 198 107 198 107 203.5 129.5 c 128,-1,25
 209 152 209 152 210.5 168 c 128,-1,26
 212 184 212 184 212 200 c 1,12,-1
177 511 m 0,27,28
 224 511 224 511 248.5 483 c 128,-1,29
 273 455 273 455 273 428 c 2,30,-1
 273 411 l 2,31,32
 273 362 273 362 271 276 c 2,33,-1
 271 261 l 1,34,-1
 403 261 l 1,35,-1
 403 441 l 1,36,-1
 351 441 l 2,37,38
 339 441 339 441 330.5 449.5 c 128,-1,39
 322 458 322 458 322 470 c 128,-1,40
 322 482 322 482 330.5 490.5 c 128,-1,41
 339 499 339 499 351 499 c 2,42,-1
 504 499 l 2,43,44
 516 499 516 499 524.5 490.5 c 128,-1,45
 533 482 533 482 533 470 c 128,-1,46
 533 458 533 458 524.5 449.5 c 128,-1,47
 516 441 516 441 504 441 c 2,48,-1
 461 441 l 1,49,-1
 461 25 l 2,50,51
 461 13 461 13 452.5 4.5 c 128,-1,52
 444 -4 444 -4 432 -4 c 128,-1,53
 420 -4 420 -4 411.5 4.5 c 128,-1,54
 403 13 403 13 403 25 c 2,55,-1
 403 203 l 1,56,-1
 270 203 l 1,57,-1
 270 201 l 2,58,59
 270 117 270 117 239 69 c 128,-1,60
 208 21 208 21 153 21 c 0,61,62
 107 21 107 21 72 51 c 128,-1,63
 37 81 37 81 37 133 c 0,64,65
 37 150 37 150 43 166.5 c 128,-1,66
 49 183 49 183 65.5 203.5 c 128,-1,67
 82 224 82 224 120 239 c 128,-1,68
 158 254 158 254 213 259 c 1,69,-1
 213 278 l 1,70,-1
 214 280 l 1,71,-1
 214 303 l 1,72,73
 183 283 183 283 145 283 c 0,74,75
 104 283 104 283 76 309 c 128,-1,76
 48 335 48 335 48 379 c 0,77,78
 48 414 48 414 62 441 c 1,79,-1
 7 441 l 2,80,81
 -5 441 -5 441 -13.5 449.5 c 128,-1,82
 -22 458 -22 458 -22 470 c 128,-1,83
 -22 482 -22 482 -13.5 490.5 c 128,-1,84
 -5 499 -5 499 7 499 c 2,85,-1
 122 499 l 1,86,87
 148 511 148 511 177 511 c 0,27,28
EndSplineSet
EndChar

StartChar: uni092E
Encoding: 61 2350 64
Width: 506
GlyphClass: 2
Flags: W
AnchorPoint: "Anchor_top" 407 507 basechar 0
AnchorPoint: "Anchor_bottom" 403 -29 basechar 0
LayerCount: 2
Fore
SplineSet
384 280 m 1,0,-1
 384 441 l 1,1,-1
 241 441 l 1,2,3
 252 367 252 367 256 280 c 1,4,-1
 384 280 l 1,0,-1
199 220 m 1,5,6
 186 219 186 219 171 216 c 128,-1,7
 156 213 156 213 133.5 206 c 128,-1,8
 111 199 111 199 96.5 185 c 128,-1,9
 82 171 82 171 82 152 c 0,10,11
 82 129 82 129 96.5 115.5 c 128,-1,12
 111 102 111 102 121.5 100 c 128,-1,13
 132 98 132 98 140 98 c 0,14,15
 196 98 196 98 199 220 c 1,5,6
257 219 m 2,16,17
 257 191 257 191 252 164.5 c 128,-1,18
 247 138 247 138 236 107.5 c 128,-1,19
 225 77 225 77 200 58.5 c 128,-1,20
 175 40 175 40 140 40 c 0,21,22
 94 40 94 40 59 70 c 128,-1,23
 24 100 24 100 24 152 c 0,24,25
 24 169 24 169 30 185 c 128,-1,26
 36 201 36 201 52 221.5 c 128,-1,27
 68 242 68 242 105.5 257.5 c 128,-1,28
 143 273 143 273 198 278 c 1,29,30
 195 350 195 350 183 441 c 1,31,-1
 -7 441 l 2,32,33
 -19 441 -19 441 -27.5 449.5 c 128,-1,34
 -36 458 -36 458 -36 470 c 128,-1,35
 -36 482 -36 482 -27.5 490.5 c 128,-1,36
 -19 499 -19 499 -7 499 c 2,37,-1
 510 499 l 2,38,39
 522 499 522 499 530.5 490.5 c 128,-1,40
 539 482 539 482 539 470 c 128,-1,41
 539 458 539 458 530.5 449.5 c 128,-1,42
 522 441 522 441 510 441 c 2,43,-1
 442 441 l 1,44,-1
 442 25 l 2,45,46
 442 13 442 13 433.5 4.5 c 128,-1,47
 425 -4 425 -4 413 -4 c 128,-1,48
 401 -4 401 -4 392.5 4.5 c 128,-1,49
 384 13 384 13 384 25 c 2,50,-1
 384 222 l 1,51,-1
 257 222 l 1,52,-1
 257 219 l 2,16,17
EndSplineSet
EndChar

StartChar: uni092F
Encoding: 62 2351 65
Width: 478
GlyphClass: 2
Flags: W
AnchorPoint: "Anchor_top" 406 523 basechar 0
AnchorPoint: "Anchor_bottom" 414 -35 basechar 0
LayerCount: 2
Fore
SplineSet
230 441 m 1,0,1
 231 440 231 440 231 439 c 0,2,3
 247 402 247 402 247 371 c 0,4,5
 247 312 247 312 205 265.5 c 128,-1,6
 163 219 163 219 103 213 c 1,7,8
 106 199 106 199 112.5 183.5 c 128,-1,9
 119 168 119 168 133 146 c 128,-1,10
 147 124 147 124 174 110.5 c 128,-1,11
 201 97 201 97 237 97 c 0,12,13
 295 97 295 97 338.5 144.5 c 128,-1,14
 382 192 382 192 382 218 c 2,15,-1
 382 441 l 1,16,-1
 230 441 l 1,0,1
72 271 m 1,17,-1
 86 271 l 1,18,-1
 88 270 l 1,19,20
 128 270 128 270 158.5 301.5 c 128,-1,21
 189 333 189 333 189 371 c 0,22,23
 189 411 189 411 159 441 c 1,24,-1
 -8 441 l 2,25,26
 -20 441 -20 441 -28.5 449.5 c 128,-1,27
 -37 458 -37 458 -37 470 c 128,-1,28
 -37 482 -37 482 -28.5 490.5 c 128,-1,29
 -20 499 -20 499 -8 499 c 2,30,-1
 481 499 l 2,31,32
 493 499 493 499 501.5 490.5 c 128,-1,33
 510 482 510 482 510 470 c 128,-1,34
 510 458 510 458 501.5 449.5 c 128,-1,35
 493 441 493 441 481 441 c 2,36,-1
 440 441 l 1,37,-1
 440 26 l 2,38,39
 440 14 440 14 431.5 5.5 c 128,-1,40
 423 -3 423 -3 411 -3 c 128,-1,41
 399 -3 399 -3 390.5 5.5 c 128,-1,42
 382 14 382 14 382 26 c 2,43,-1
 382 105 l 1,44,45
 316 39 316 39 237 39 c 0,46,47
 183 39 183 39 142 62 c 128,-1,48
 101 85 101 85 80.5 119.5 c 128,-1,49
 60 154 60 154 50.5 185.5 c 128,-1,50
 41 217 41 217 41 243 c 0,51,52
 41 255 41 255 50 263.5 c 128,-1,53
 59 272 59 272 71 272 c 1,54,-1
 72 271 l 1,17,-1
EndSplineSet
EndChar

StartChar: uni0930
Encoding: 63 2352 66
Width: 346
GlyphClass: 2
Flags: W
AnchorPoint: "Anchor_top" 192 509 basechar 0
AnchorPoint: "Anchor_bottom" 290 -21 basechar 0
LayerCount: 2
Fore
SplineSet
313 22 m 0,0,1
 313 10 313 10 304 1.5 c 128,-1,2
 295 -7 295 -7 284 -7 c 0,3,4
 275 -7 275 -7 249.5 5 c 128,-1,5
 224 17 224 17 183.5 46 c 128,-1,6
 143 75 143 75 110 113 c 0,7,8
 41 191 41 191 41 255 c 0,9,10
 41 284 41 284 57 303 c 128,-1,11
 73 322 73 322 98 322 c 0,12,13
 119 322 119 322 135 307.5 c 128,-1,14
 151 293 151 293 151 269 c 0,15,16
 151 258 151 258 148 249 c 1,17,18
 214 275 214 275 214 339 c 0,19,20
 214 369 214 369 202.5 393 c 128,-1,21
 191 417 191 417 180 426.5 c 128,-1,22
 169 436 169 436 159 441 c 1,23,-1
 -24 441 l 2,24,25
 -36 441 -36 441 -44.5 449.5 c 128,-1,26
 -53 458 -53 458 -53 470 c 128,-1,27
 -53 482 -53 482 -44.5 490.5 c 128,-1,28
 -36 499 -36 499 -24 499 c 2,29,-1
 376 499 l 2,30,31
 388 499 388 499 396.5 490.5 c 128,-1,32
 405 482 405 482 405 470 c 128,-1,33
 405 458 405 458 396.5 449.5 c 128,-1,34
 388 441 388 441 376 441 c 2,35,-1
 242 441 l 1,36,37
 271 398 271 398 271 339 c 0,38,39
 271 320 271 320 266 300.5 c 128,-1,40
 261 281 261 281 247.5 256.5 c 128,-1,41
 234 232 234 232 203 212.5 c 128,-1,42
 172 193 172 193 127 184 c 1,43,44
 191 90 191 90 295 48 c 0,45,46
 313 40 313 40 313 22 c 0,0,1
EndSplineSet
EndChar

StartChar: uni0932
Encoding: 64 2354 67
Width: 522
GlyphClass: 2
Flags: W
AnchorPoint: "Anchor_top" 436 520 basechar 0
AnchorPoint: "Anchor_bottom" 442 -20 basechar 0
LayerCount: 2
Fore
SplineSet
165 364 m 2,0,-1
 172 364 l 1,1,-1
 173 365 l 1,2,3
 243 365 243 365 282 294 c 1,4,5
 322 349 322 349 417 351 c 1,6,-1
 417 441 l 1,7,-1
 -3 441 l 2,8,9
 -15 441 -15 441 -23.5 449.5 c 128,-1,10
 -32 458 -32 458 -32 470 c 128,-1,11
 -32 482 -32 482 -23.5 490.5 c 128,-1,12
 -15 499 -15 499 -3 499 c 2,13,-1
 516 499 l 2,14,15
 528 499 528 499 536.5 490.5 c 128,-1,16
 545 482 545 482 545 470 c 128,-1,17
 545 458 545 458 536.5 449.5 c 128,-1,18
 528 441 528 441 516 441 c 2,19,-1
 475 441 l 1,20,-1
 475 26 l 2,21,22
 475 14 475 14 466.5 5 c 128,-1,23
 458 -4 458 -4 446 -4 c 128,-1,24
 434 -4 434 -4 425.5 5 c 128,-1,25
 417 14 417 14 417 26 c 2,26,-1
 417 293 l 1,27,28
 308 289 308 289 308 193 c 0,29,30
 308 181 308 181 300 172.5 c 128,-1,31
 292 164 292 164 280 164 c 2,32,-1
 279 164 l 2,33,34
 268 164 268 164 259.5 172 c 128,-1,35
 251 180 251 180 250 192 c 0,36,37
 250 195 250 195 249 204.5 c 128,-1,38
 248 214 248 214 243 232.5 c 128,-1,39
 238 251 238 251 230.5 267 c 128,-1,40
 223 283 223 283 208 295 c 128,-1,41
 193 307 193 307 173 307 c 1,42,-1
 172 306 l 1,43,-1
 168 306 l 1,44,45
 86 302 86 302 86 213 c 0,46,47
 86 212 86 212 86 212 c 1,48,-1
 87 210 l 1,49,-1
 87 197 l 1,50,51
 98 102 98 102 224 46 c 0,52,53
 241 38 241 38 241 19 c 0,54,55
 241 4 241 4 231 -3 c 128,-1,56
 221 -10 221 -10 212 -10 c 0,57,58
 208 -10 208 -10 190 -2.5 c 128,-1,59
 172 5 172 5 144 23.5 c 128,-1,60
 116 42 116 42 90.5 66.5 c 128,-1,61
 65 91 65 91 46.5 130 c 128,-1,62
 28 169 28 169 28 214 c 0,63,64
 28 234 28 234 32.5 254.5 c 128,-1,65
 37 275 37 275 49.5 300.5 c 128,-1,66
 62 326 62 326 92 343.5 c 128,-1,67
 122 361 122 361 165 364 c 2,0,-1
EndSplineSet
EndChar

StartChar: uni0935
Encoding: 65 2357 68
Width: 458
GlyphClass: 2
Flags: W
AnchorPoint: "Anchor_top" 373 527 basechar 0
AnchorPoint: "Anchor_bottom" 379 -25 basechar 0
LayerCount: 2
Fore
SplineSet
220 117 m 128,-1,1
 272 117 272 117 310 153 c 128,-1,2
 348 189 348 189 353 231 c 1,3,-1
 353 246 l 1,4,-1
 352 247 l 2,5,6
 348 255 348 255 341 264.5 c 128,-1,7
 334 274 334 274 319 287.5 c 128,-1,8
 304 301 304 301 279.5 310 c 128,-1,9
 255 319 255 319 225 319 c 0,10,11
 169 319 169 319 131.5 287 c 128,-1,12
 94 255 94 255 94 215 c 0,13,14
 94 179 94 179 131 148 c 128,-1,0
 168 117 168 117 220 117 c 128,-1,1
36 215 m 0,15,16
 36 280 36 280 90.5 328.5 c 128,-1,17
 145 377 145 377 225 377 c 0,18,19
 302 377 302 377 353 335 c 1,20,-1
 353 441 l 1,21,-1
 10 441 l 2,22,23
 -2 441 -2 441 -10.5 449.5 c 128,-1,24
 -19 458 -19 458 -19 470 c 128,-1,25
 -19 482 -19 482 -10.5 490.5 c 128,-1,26
 -2 499 -2 499 10 499 c 2,27,-1
 456 499 l 2,28,29
 468 499 468 499 476.5 490.5 c 128,-1,30
 485 482 485 482 485 470 c 128,-1,31
 485 458 485 458 476.5 449.5 c 128,-1,32
 468 441 468 441 456 441 c 2,33,-1
 411 441 l 1,34,-1
 411 26 l 2,35,36
 411 14 411 14 402.5 5.5 c 128,-1,37
 394 -3 394 -3 382 -3 c 128,-1,38
 370 -3 370 -3 361.5 5.5 c 128,-1,39
 353 14 353 14 353 26 c 2,40,-1
 353 114 l 1,41,42
 296 59 296 59 220 59 c 0,43,44
 143 59 143 59 89.5 106.5 c 128,-1,45
 36 154 36 154 36 215 c 0,15,16
EndSplineSet
EndChar

StartChar: uni0936
Encoding: 66 2358 69
Width: 586
GlyphClass: 2
Flags: W
AnchorPoint: "Anchor_top" 496 517 basechar 0
AnchorPoint: "Anchor_bottom" 506 -31 basechar 0
LayerCount: 2
Fore
SplineSet
373 470 m 128,-1,1
 373 481 373 481 380.5 490 c 128,-1,2
 388 499 388 499 402 499 c 2,3,-1
 569 499 l 2,4,5
 581 499 581 499 590 491 c 128,-1,6
 599 483 599 483 599 470 c 0,7,8
 599 458 599 458 590.5 449.5 c 128,-1,9
 582 441 582 441 569 441 c 2,10,-1
 535 441 l 1,11,-1
 535 26 l 2,12,13
 535 15 535 15 527.5 6 c 128,-1,14
 520 -3 520 -3 506 -3 c 128,-1,15
 492 -3 492 -3 484.5 6 c 128,-1,16
 477 15 477 15 477 26 c 2,17,-1
 477 441 l 1,18,-1
 402 441 l 2,19,20
 388 441 388 441 380.5 450 c 128,-1,0
 373 459 373 459 373 470 c 128,-1,1
262 325 m 0,21,22
 262 296 262 296 227 296 c 2,23,-1
 217 296 l 1,24,25
 170 301 170 301 136 334 c 128,-1,26
 102 367 102 367 102 407 c 0,27,28
 102 424 102 424 108 441 c 1,29,-1
 -3 441 l 2,30,31
 -7 441 -7 441 -12 442 c 128,-1,32
 -17 443 -17 443 -24.5 450 c 128,-1,33
 -32 457 -32 457 -32 470 c 0,34,35
 -32 499 -32 499 -3 499 c 2,36,-1
 162 499 l 1,37,38
 186 510 186 510 211 510 c 0,39,40
 274 510 274 510 317 461.5 c 128,-1,41
 360 413 360 413 360 356 c 0,42,43
 360 343 360 343 357.5 327 c 128,-1,44
 355 311 355 311 347 283.5 c 128,-1,45
 339 256 339 256 318.5 225 c 128,-1,46
 298 194 298 194 268 168 c 1,47,48
 391 24 391 24 395 20 c 0,49,50
 403 11 403 11 403 0 c 0,51,52
 403 -12 403 -12 395 -20.5 c 128,-1,53
 387 -29 387 -29 376 -29 c 0,54,55
 361 -29 361 -29 337 -2 c 0,56,57
 331 6 331 6 221 135 c 1,58,59
 172 108 172 108 131 108 c 0,60,61
 88 108 88 108 61 136 c 128,-1,62
 34 164 34 164 34 207 c 2,63,-1
 34 212 l 2,64,65
 37 238 37 238 58.5 258 c 128,-1,66
 80 278 80 278 125 278 c 2,67,-1
 127 278 l 2,68,69
 181 276 181 276 221 224 c 1,70,-1
 222 223 l 2,71,72
 223 221 223 221 231 213 c 1,73,74
 288 262 288 262 300 332 c 1,75,-1
 300 336 l 2,76,77
 302 338 302 338 302 355 c 0,78,79
 302 389 302 389 276 420.5 c 128,-1,80
 250 452 250 452 213 452 c 0,81,82
 211 452 211 452 207 451.5 c 128,-1,83
 203 451 203 451 194.5 449 c 128,-1,84
 186 447 186 447 179 443 c 128,-1,85
 172 439 172 439 166.5 431 c 128,-1,86
 161 423 161 423 161 412 c 0,87,88
 161 385 161 385 181.5 371 c 128,-1,89
 202 357 202 357 227 354 c 0,90,91
 262 351 262 351 262 325 c 0,21,22
182 180 m 0,92,93
 182 182 182 182 174.5 191 c 128,-1,94
 167 200 167 200 151 210 c 128,-1,95
 135 220 135 220 118 220 c 0,96,97
 92 220 92 220 92 200 c 0,98,99
 92 188 92 188 103.5 177 c 128,-1,100
 115 166 115 166 131 166 c 0,101,102
 149 166 149 166 182 180 c 0,92,93
EndSplineSet
EndChar

StartChar: uni0937
Encoding: 67 2359 70
Width: 384
GlyphClass: 2
Flags: W
AnchorPoint: "Anchor_top" 303 510 basechar 0
AnchorPoint: "Anchor_bottom" 307 -22 basechar 0
LayerCount: 2
Fore
SplineSet
91 310 m 0,0,1
 91 240 91 240 113 203.5 c 128,-1,2
 135 167 135 167 191 160 c 0,3,4
 196 159 196 159 203 159 c 0,5,6
 223 159 223 159 246 173 c 128,-1,7
 269 187 269 187 277 206 c 1,8,-1
 99 418 l 1,9,10
 91 352 91 352 91 310 c 0,0,1
-79 470 m 128,-1,12
 -79 484 -79 484 -70 491.5 c 128,-1,13
 -61 499 -61 499 -50 499 c 2,14,-1
 401 499 l 2,15,16
 413 499 413 499 421.5 490.5 c 128,-1,17
 430 482 430 482 430 470 c 128,-1,18
 430 458 430 458 421.5 449.5 c 128,-1,19
 413 441 413 441 401 441 c 2,20,-1
 337 441 l 1,21,-1
 337 26 l 2,22,23
 337 14 337 14 328.5 5.5 c 128,-1,24
 320 -3 320 -3 308 -3 c 128,-1,25
 296 -3 296 -3 287.5 5.5 c 128,-1,26
 279 14 279 14 279 26 c 2,27,-1
 279 124 l 1,28,29
 242 101 242 101 196 101 c 0,30,31
 135 101 135 101 88.5 144.5 c 128,-1,32
 42 188 42 188 35 261 c 0,33,34
 33 287 33 287 33 309 c 0,35,36
 33 371 33 371 43 441 c 1,37,-1
 -50 441 l 2,38,39
 -61 441 -61 441 -70 448.5 c 128,-1,11
 -79 456 -79 456 -79 470 c 128,-1,12
279 441 m 1,40,-1
 156 441 l 1,41,-1
 279 295 l 1,42,-1
 279 441 l 1,40,-1
EndSplineSet
EndChar

StartChar: uni0938
Encoding: 68 2360 71
Width: 544
GlyphClass: 2
Flags: W
AnchorPoint: "Anchor_top" 452 519 basechar 0
AnchorPoint: "Anchor_bottom" 464 -33 basechar 0
LayerCount: 2
Fore
SplineSet
348 247 m 0,0,1
 372 247 372 247 390.5 256.5 c 128,-1,2
 409 266 409 266 417 279.5 c 128,-1,3
 425 293 425 293 429 303 c 128,-1,4
 433 313 433 313 433 318 c 2,5,-1
 433 441 l 1,6,-1
 247 441 l 1,7,8
 278 397 278 397 278 338 c 0,9,10
 278 300 278 300 263 270 c 1,11,12
 301 247 301 247 348 247 c 0,0,1
319 21 m 0,13,14
 319 9 319 9 310 0.5 c 128,-1,15
 301 -8 301 -8 290 -8 c 0,16,17
 282 -8 282 -8 257 3 c 128,-1,18
 232 14 232 14 190.5 43.5 c 128,-1,19
 149 73 149 73 117 111 c 0,20,21
 47 191 47 191 47 254 c 0,22,23
 47 283 47 283 63 302 c 128,-1,24
 79 321 79 321 104 321 c 0,25,26
 125 321 125 321 141 306.5 c 128,-1,27
 157 292 157 292 157 268 c 0,28,29
 157 257 157 257 154 248 c 1,30,31
 220 274 220 274 220 338 c 0,32,33
 220 412 220 412 163 441 c 1,34,-1
 -7 441 l 2,35,36
 -19 441 -19 441 -27.5 449.5 c 128,-1,37
 -36 458 -36 458 -36 470 c 128,-1,38
 -36 482 -36 482 -27.5 490.5 c 128,-1,39
 -19 499 -19 499 -7 499 c 2,40,-1
 560 499 l 2,41,42
 572 499 572 499 580.5 490.5 c 128,-1,43
 589 482 589 482 589 470 c 128,-1,44
 589 458 589 458 580.5 449.5 c 128,-1,45
 572 441 572 441 560 441 c 2,46,-1
 491 441 l 1,47,-1
 491 27 l 2,48,49
 491 15 491 15 482.5 7 c 128,-1,50
 474 -1 474 -1 462 -1 c 128,-1,51
 450 -1 450 -1 441.5 7 c 128,-1,52
 433 15 433 15 433 27 c 2,53,-1
 433 215 l 1,54,55
 396 190 396 190 348 190 c 0,56,57
 279 190 279 190 227 224 c 1,58,59
 191 193 191 193 134 183 c 1,60,61
 198 89 198 89 301 47 c 0,62,63
 319 39 319 39 319 21 c 0,13,14
EndSplineSet
EndChar

StartChar: uni0939
Encoding: 69 2361 72
Width: 414
GlyphClass: 2
Flags: W
AnchorPoint: "Anchor_top" 272 520 basechar 0
AnchorPoint: "Anchor_bottom" 313 -46 basechar 0
LayerCount: 2
Fore
SplineSet
265 127 m 0,0,1
 265 143 265 143 289 157 c 128,-1,2
 313 171 313 171 313 188 c 128,-1,3
 313 205 313 205 286 217 c 128,-1,4
 259 229 259 229 225 229 c 0,5,6
 221 229 221 229 210.5 228 c 128,-1,7
 200 227 200 227 179.5 222 c 128,-1,8
 159 217 159 217 142 208.5 c 128,-1,9
 125 200 125 200 111.5 183.5 c 128,-1,10
 98 167 98 167 98 145 c 0,11,12
 98 112 98 112 121.5 85 c 128,-1,13
 145 58 145 58 180.5 43 c 128,-1,14
 216 28 216 28 251 20.5 c 128,-1,15
 286 13 286 13 314 13 c 0,16,17
 327 13 327 13 334 14 c 2,18,-1
 337 14 l 2,19,20
 349 14 349 14 357.5 5.5 c 128,-1,21
 366 -3 366 -3 366 -15 c 0,22,23
 366 -29 366 -29 356.5 -36 c 128,-1,24
 347 -43 347 -43 338 -44 c 128,-1,25
 329 -45 329 -45 313 -45 c 0,26,27
 257 -45 257 -45 197 -26.5 c 128,-1,28
 137 -8 137 -8 88.5 37 c 128,-1,29
 40 82 40 82 40 144 c 0,30,31
 40 216 40 216 107 255 c 1,32,33
 91 274 91 274 89 295 c 0,34,35
 89 301 89 301 88 302 c 2,36,-1
 88 306 l 2,37,38
 88 341 88 341 117 369.5 c 128,-1,39
 146 398 146 398 198 398 c 2,40,-1
 200 398 l 1,41,-1
 202 397 l 1,42,-1
 244 397 l 1,43,-1
 244 441 l 1,44,-1
 2 441 l 2,45,46
 -10 441 -10 441 -18.5 449.5 c 128,-1,47
 -27 458 -27 458 -27 470 c 128,-1,48
 -27 482 -27 482 -18.5 490.5 c 128,-1,49
 -10 499 -10 499 2 499 c 2,50,-1
 415 499 l 2,51,52
 427 499 427 499 435.5 490.5 c 128,-1,53
 444 482 444 482 444 470 c 128,-1,54
 444 458 444 458 435.5 449.5 c 128,-1,55
 427 441 427 441 415 441 c 2,56,-1
 302 441 l 1,57,-1
 302 368 l 2,58,59
 302 356 302 356 294 347.5 c 128,-1,60
 286 339 286 339 274 339 c 2,61,-1
 198 339 l 2,62,63
 147 339 147 339 147 304 c 0,64,65
 149 286 149 286 175 281 c 1,66,-1
 176 282 l 1,67,-1
 182 282 l 2,68,69
 183 283 183 283 184 283 c 0,70,71
 201 287 201 287 225 287 c 0,72,73
 287 287 287 287 329.5 259 c 128,-1,74
 372 231 372 231 372 187 c 0,75,76
 372 150 372 150 343.5 124 c 128,-1,77
 315 98 315 98 294 98 c 0,78,79
 291 98 291 98 286 99 c 128,-1,80
 281 100 281 100 273 107 c 128,-1,81
 265 114 265 114 265 127 c 0,0,1
EndSplineSet
EndChar

StartChar: uni093C
Encoding: 70 2364 73
Width: 0
GlyphClass: 4
Flags: W
AnchorPoint: "Anchor_bottom" 190 123 mark 0
LayerCount: 2
Fore
SplineSet
95 63 m 128,-1,1
 78 63 78 63 67 74.5 c 128,-1,2
 56 86 56 86 56 102 c 0,3,4
 56 119 56 119 67.5 130.5 c 128,-1,5
 79 142 79 142 95 142 c 0,6,7
 112 142 112 142 123.5 130 c 128,-1,8
 135 118 135 118 135 102 c 128,-1,9
 135 86 135 86 123.5 74.5 c 128,-1,0
 112 63 112 63 95 63 c 128,-1,1
EndSplineSet
EndChar

StartChar: uni093D
Encoding: 71 2365 74
Width: 273
GlyphClass: 2
Flags: W
LayerCount: 2
Fore
SplineSet
218 159 m 0,0,1
 218 119 218 119 202 84.5 c 128,-1,2
 186 50 186 50 165 31 c 128,-1,3
 144 12 144 12 126 1.5 c 128,-1,4
 108 -9 108 -9 101 -9 c 0,5,6
 88 -9 88 -9 79.5 0 c 128,-1,7
 71 9 71 9 71 21 c 0,8,9
 71 40 71 40 89 48 c 0,10,11
 91 49 91 49 97.5 52.5 c 128,-1,12
 104 56 104 56 114.5 65 c 128,-1,13
 125 74 125 74 134.5 86 c 128,-1,14
 144 98 144 98 151 117.5 c 128,-1,15
 158 137 158 137 158 159 c 0,16,17
 158 187 158 187 144.5 208 c 128,-1,18
 131 229 131 229 114 241 c 128,-1,19
 97 253 97 253 80 277.5 c 128,-1,20
 63 302 63 302 58 335 c 0,21,22
 55 348 55 348 55 361 c 0,23,24
 55 422 55 422 97 464.5 c 128,-1,25
 139 507 139 507 163 507 c 0,26,27
 175 507 175 507 184 497.5 c 128,-1,28
 193 488 193 488 193 477 c 0,29,30
 193 458 193 458 175 450 c 0,31,32
 170 448 170 448 158 440 c 128,-1,33
 146 432 146 432 130.5 409.5 c 128,-1,34
 115 387 115 387 115 361 c 0,35,36
 115 336 115 336 124.5 320 c 128,-1,37
 134 304 134 304 156 283 c 1,38,-1
 157 283 l 1,39,40
 176 266 176 266 186 254 c 128,-1,41
 196 242 196 242 207 216 c 128,-1,42
 218 190 218 190 218 159 c 0,0,1
EndSplineSet
EndChar

StartChar: uni093E
Encoding: 72 2366 75
Width: 159
GlyphClass: 2
Flags: W
AnchorPoint: "Anchor_top" 76 510 basechar 0
LayerCount: 2
Fore
SplineSet
174 499 m 2,0,1
 186 499 186 499 194.5 490.5 c 128,-1,2
 203 482 203 482 203 470 c 128,-1,3
 203 458 203 458 194.5 449.5 c 128,-1,4
 186 441 186 441 174 441 c 2,5,-1
 110 441 l 1,6,-1
 110 26 l 2,7,8
 110 14 110 14 101.5 5.5 c 128,-1,9
 93 -3 93 -3 81 -3 c 128,-1,10
 69 -3 69 -3 60.5 5.5 c 128,-1,11
 52 14 52 14 52 26 c 2,12,-1
 52 441 l 1,13,-1
 -23 441 l 2,14,15
 -35 441 -35 441 -43.5 449.5 c 128,-1,16
 -52 458 -52 458 -52 470 c 128,-1,17
 -52 482 -52 482 -43.5 490.5 c 128,-1,18
 -35 499 -35 499 -23 499 c 2,19,-1
 174 499 l 2,0,1
EndSplineSet
EndChar

StartChar: uni093F
Encoding: 73 2367 76
Width: 140
GlyphClass: 2
Flags: W
LayerCount: 2
Fore
SplineSet
20 558 m 0,0,1
 20 617 20 617 66 666 c 128,-1,2
 112 715 112 715 192 715 c 0,3,4
 230 715 230 715 267 701.5 c 128,-1,5
 304 688 304 688 328 671 c 128,-1,6
 352 654 352 654 373 633 c 128,-1,7
 394 612 394 612 402 601.5 c 128,-1,8
 410 591 410 591 413 586 c 0,9,10
 417 579 417 579 417 571 c 0,11,12
 417 556 417 556 407.5 548.5 c 128,-1,13
 398 541 398 541 388 541 c 0,14,15
 372 541 372 541 363 555 c 0,16,17
 362 555 362 555 362 556 c 0,18,19
 355 566 355 566 345 577 c 128,-1,20
 335 588 335 588 312.5 609 c 128,-1,21
 290 630 290 630 258 643 c 128,-1,22
 226 656 226 656 192 656 c 0,23,24
 136 656 136 656 107.5 624.5 c 128,-1,25
 79 593 79 593 79 558 c 0,26,27
 79 528 79 528 92 499 c 1,28,-1
 198 499 l 2,29,30
 210 499 210 499 218.5 490 c 128,-1,31
 227 481 227 481 227 469 c 128,-1,32
 227 457 227 457 218.5 448.5 c 128,-1,33
 210 440 210 440 198 440 c 2,34,-1
 99 440 l 1,35,-1
 99 27 l 2,36,37
 99 15 99 15 90 6.5 c 128,-1,38
 81 -2 81 -2 69 -2 c 128,-1,39
 57 -2 57 -2 48.5 6.5 c 128,-1,40
 40 15 40 15 40 27 c 2,41,-1
 40 440 l 1,42,-1
 -51 440 l 2,43,44
 -63 440 -63 440 -71.5 448.5 c 128,-1,45
 -80 457 -80 457 -80 469 c 128,-1,46
 -80 481 -80 481 -71.5 490 c 128,-1,47
 -63 499 -63 499 -51 499 c 2,48,-1
 29 499 l 1,49,50
 20 528 20 528 20 558 c 0,0,1
EndSplineSet
Substitution2: "Single Substitution Ikar Hraswa 20-1" uni093F.20
Substitution2: "Single Substitution Ikar Hraswa 31-1" uni093F.31
Substitution2: "Single Substitution Ikar Hraswa 30-1" uni093F.30
Substitution2: "Single Substitution Ikar Hraswa 23-1" uni093F.23
Substitution2: "Single Substitution Ikar Hraswa 22-1" uni093F.22
Substitution2: "Single Substitution Ikar Hraswa 21-1" uni093F.21
Substitution2: "Single Substitution Ikar Hraswa 14-1" uni093F.14
Substitution2: "Single Substitution Ikar Hraswa 13-1" uni093F.13
Substitution2: "Single Substitution Ikar Hraswa 12-1" uni093F.12
Substitution2: "Single Substitution Ikar Hraswa 11-1" uni093F.11
Substitution2: "Single Substitution Ikar Hraswa 10-1" uni093F.10
Substitution2: "Single Substitution Ikar Hraswa 9-1" uni093F.9
Substitution2: "Single Substitution Ikar hraswa 1-1" uni093F.1
Substitution2: "Single Substitution Ikar Hraswa 8-1" uni093F.8
Substitution2: "Single Substitution Ikar Hraswa 7-1" uni093F.7
Substitution2: "Single Substitution Ikar Hraswa 6-1" uni093F.6
Substitution2: "Single Substitution Ikar Hraswa 5-1" uni093F.5
Substitution2: "Single Substitution Ikar Hraswa 4-1" uni093F.4
Substitution2: "Single Substitution Ikar Hraswa 3-1" uni093F.3
Substitution2: "Single Substitution Ikar Hraswa 2-1" uni093F.2
EndChar

StartChar: uni0940
Encoding: 74 2368 77
Width: 194
GlyphClass: 2
Flags: W
AnchorPoint: "Anchor_top" 127 512 basechar 0
LayerCount: 2
Fore
SplineSet
-120 565 m 1,0,-1
 -120 569 l 2,1,2
 -120 635 -120 635 -83.5 676.5 c 128,-1,3
 -47 718 -47 718 10 718 c 0,4,5
 65 718 65 718 106 676 c 128,-1,6
 147 634 147 634 147 565 c 0,7,8
 147 534 147 534 140 499 c 1,9,-1
 221 499 l 2,10,11
 233 499 233 499 241.5 490.5 c 128,-1,12
 250 482 250 482 250 470 c 128,-1,13
 250 458 250 458 241.5 449.5 c 128,-1,14
 233 441 233 441 221 441 c 2,15,-1
 127 441 l 1,16,-1
 127 22 l 2,17,18
 127 10 127 10 118 1.5 c 128,-1,19
 109 -7 109 -7 97 -7 c 128,-1,20
 85 -7 85 -7 76.5 1.5 c 128,-1,21
 68 10 68 10 68 22 c 2,22,-1
 68 441 l 1,23,-1
 -21 441 l 2,24,25
 -33 441 -33 441 -41.5 449.5 c 128,-1,26
 -50 458 -50 458 -50 470 c 128,-1,27
 -50 482 -50 482 -41.5 491 c 128,-1,28
 -33 500 -33 500 -21 500 c 2,29,-1
 80 500 l 1,30,31
 88 542 88 542 88 566 c 0,32,33
 88 611 88 611 64 635 c 128,-1,34
 40 659 40 659 10 659 c 0,35,36
 -28 659 -28 659 -44.5 632 c 128,-1,37
 -61 605 -61 605 -61 569 c 2,38,-1
 -61 565 l 2,39,40
 -61 553 -61 553 -69 544 c 128,-1,41
 -77 535 -77 535 -89 535 c 2,42,-1
 -90 535 l 2,43,44
 -102 535 -102 535 -110.5 543.5 c 128,-1,45
 -119 552 -119 552 -119 564 c 1,46,-1
 -120 565 l 1,0,-1
EndSplineSet
Substitution2: "Single Substitution Ikar Dirgha 1-1" Uni0940.1
EndChar

StartChar: uni0941
Encoding: 75 2369 78
Width: 0
GlyphClass: 4
Flags: W
AnchorPoint: "Anchor_bottom" -13 -27 mark 0
LayerCount: 2
Fore
SplineSet
-2 27 m 6,0,1
 41 27 41 27 65 -3.5 c 132,-1,2
 89 -34 89 -34 89 -67 c 4,3,4
 89 -110 89 -110 54.5 -143.5 c 132,-1,5
 20 -177 20 -177 -28 -177 c 4,6,7
 -120 -177 -120 -177 -203 -76 c 4,8,9
 -209 -68 -209 -68 -209 -58 c 4,10,11
 -209 -47 -209 -47 -201.5 -38.5 c 132,-1,12
 -194 -30 -194 -30 -181 -30 c 4,13,14
 -167 -30 -167 -30 -158 -40 c 4,15,16
 -93 -120 -93 -120 -28 -120 c 4,17,18
 -3 -120 -3 -120 14.5 -103.5 c 132,-1,19
 32 -87 32 -87 32 -67 c 4,20,21
 32 -63 32 -63 30.5 -56.5 c 132,-1,22
 29 -50 29 -50 21 -40 c 132,-1,23
 13 -30 13 -30 -1 -30 c 6,24,-1
 -5 -30 l 6,25,26
 -10 -30 -10 -30 -15.5 -37.5 c 132,-1,27
 -21 -45 -21 -45 -21 -49 c 4,28,29
 -17 -59 -17 -59 -17 -64 c 4,30,31
 -17 -76 -17 -76 -25.5 -84 c 132,-1,32
 -34 -92 -34 -92 -46 -92 c 4,33,34
 -61 -92 -61 -92 -69.5 -79.5 c 132,-1,35
 -78 -67 -78 -67 -78 -49 c 4,36,37
 -78 -21 -78 -21 -58.5 2 c 132,-1,38
 -39 25 -39 25 -10 27 c 6,39,-1
 -2 27 l 6,0,1
EndSplineSet
EndChar

StartChar: uni0942
Encoding: 76 2370 79
Width: 0
GlyphClass: 4
Flags: W
AnchorPoint: "Anchor_bottom" -7 -33 mark 0
LayerCount: 2
Fore
SplineSet
-114 -83 m 4,0,1
 -114 -38 -114 -38 -79.5 -5.5 c 132,-1,2
 -45 27 -45 27 2 27 c 4,3,4
 70 27 70 27 123 -19.5 c 132,-1,5
 176 -66 176 -66 231 -149 c 4,6,7
 236 -157 236 -157 236 -164 c 4,8,9
 236 -174 236 -174 228.5 -183.5 c 132,-1,10
 221 -193 221 -193 207 -193 c 4,11,12
 191 -193 191 -193 183 -180 c 4,13,14
 134 -105 134 -105 92 -67.5 c 132,-1,15
 50 -30 50 -30 2 -30 c 4,16,17
 -22 -30 -22 -30 -39.5 -46.5 c 132,-1,18
 -57 -63 -57 -63 -57 -83 c 4,19,20
 -57 -87 -57 -87 -55.5 -93.5 c 132,-1,21
 -54 -100 -54 -100 -46 -110 c 132,-1,22
 -38 -120 -38 -120 -24 -120 c 6,23,-1
 -20 -120 l 6,24,25
 -14 -120 -14 -120 -9.5 -113.5 c 132,-1,26
 -5 -107 -5 -107 -5 -101 c 4,27,28
 -8 -95 -8 -95 -8 -88 c 4,29,30
 -8 -76 -8 -76 1 -67 c 132,-1,31
 10 -58 10 -58 21 -58 c 4,32,33
 35 -58 35 -58 43.5 -71 c 132,-1,34
 52 -84 52 -84 52 -101 c 4,35,36
 52 -128 52 -128 32.5 -151.5 c 132,-1,37
 13 -175 13 -175 -15 -177 c 6,38,-1
 -23 -177 l 6,39,40
 -65 -177 -65 -177 -89.5 -147.5 c 132,-1,41
 -114 -118 -114 -118 -114 -83 c 4,0,1
EndSplineSet
EndChar

StartChar: uni0943
Encoding: 77 2371 80
Width: 0
GlyphClass: 4
Flags: W
AnchorPoint: "Anchor_bottom" 0 7 mark 0
LayerCount: 2
Fore
SplineSet
122 -61 m 0,0,1
 122 -83 122 -83 76 -116.5 c 128,-1,2
 30 -150 30 -150 -26 -150 c 2,3,-1
 -27 -150 l 2,4,5
 -82 -150 -82 -150 -111.5 -116.5 c 128,-1,6
 -141 -83 -141 -83 -141 -48 c 0,7,8
 -141 -12 -141 -12 -121 11.5 c 128,-1,9
 -101 35 -101 35 -71 43.5 c 128,-1,10
 -41 52 -41 52 -25 54.5 c 128,-1,11
 -9 57 -9 57 3 57 c 1,12,-1
 4 56 l 1,13,14
 16 56 16 56 24.5 48 c 128,-1,15
 33 40 33 40 33 28 c 0,16,17
 33 17 33 17 25 8.5 c 128,-1,18
 17 0 17 0 6 -1 c 2,19,-1
 2 -1 l 1,20,21
 -45 -5 -45 -5 -64 -16 c 128,-1,22
 -83 -27 -83 -27 -83 -48 c 2,23,-1
 -83 -56 l 1,24,25
 -72 -93 -72 -93 -27 -93 c 2,26,-1
 -26 -93 l 2,27,28
 28 -93 28 -93 68 -46 c 0,29,30
 70 -44 70 -44 70 -44 c 2,31,32
 79 -32 79 -32 93 -32 c 0,33,34
 104 -32 104 -32 113 -40.5 c 128,-1,35
 122 -49 122 -49 122 -61 c 0,0,1
EndSplineSet
EndChar

StartChar: uni0947
Encoding: 78 2375 81
Width: 0
GlyphClass: 4
Flags: W
AnchorPoint: "Anchor_top" 13 507 mark 0
LayerCount: 2
Fore
SplineSet
-166 685 m 4,0,1
 -166 697 -166 697 -157.5 705.5 c 132,-1,2
 -149 714 -149 714 -138 714 c 4,3,4
 -134 714 -134 714 -121.5 710 c 132,-1,5
 -109 706 -109 706 -84.5 690 c 132,-1,6
 -60 674 -60 674 -36.5 650 c 132,-1,7
 -13 626 -13 626 9.5 578.5 c 132,-1,8
 32 531 32 531 43 470 c 5,9,-1
 -15 470 l 5,10,11
 -45 619 -45 619 -148 659 c 4,12,13
 -166 667 -166 667 -166 685 c 4,0,1
EndSplineSet
EndChar

StartChar: uni0948
Encoding: 79 2376 82
Width: 0
GlyphClass: 4
Flags: W
AnchorPoint: "Anchor_top" -10 498 mark 0
LayerCount: 2
Fore
SplineSet
-157 686 m 0,0,1
 -157 699 -157 699 -148 707 c 128,-1,2
 -139 715 -139 715 -128 715 c 0,3,4
 -121 715 -121 715 -105.5 707 c 128,-1,5
 -90 699 -90 699 -68.5 679.5 c 128,-1,6
 -47 660 -47 660 -27 633 c 128,-1,7
 -7 606 -7 606 8.5 563 c 128,-1,8
 24 520 24 520 28 470 c 1,9,-1
 -12 470 l 1,10,11
 -37 503 -37 503 -88 522 c 128,-1,12
 -139 541 -139 541 -178 541 c 2,13,-1
 -188 541 l 2,14,15
 -200 541 -200 541 -208.5 549 c 128,-1,16
 -217 557 -217 557 -217 569 c 0,17,18
 -217 580 -217 580 -209 588.5 c 128,-1,19
 -201 597 -201 597 -190 598 c 2,20,-1
 -177 598 l 2,21,22
 -104 598 -104 598 -37 540 c 0,23,24
 -33 537 -33 537 -27 532 c 128,-1,25
 -21 527 -21 527 -20 526 c 1,26,27
 -57 617 -57 617 -142 661 c 0,28,29
 -157 668 -157 668 -157 686 c 0,0,1
EndSplineSet
EndChar

StartChar: uni094B
Encoding: 80 2379 83
Width: 158
GlyphClass: 2
Flags: W
AnchorPoint: "Anchor_top" 111 525 basechar 0
LayerCount: 2
Fore
SplineSet
-79 715 m 0,0,1
 -76 715 -76 715 -64 711 c 128,-1,2
 -52 707 -52 707 -29 692.5 c 128,-1,3
 -6 678 -6 678 16 656.5 c 128,-1,4
 38 635 38 635 60.5 593.5 c 128,-1,5
 83 552 83 552 96 499 c 1,6,-1
 173 499 l 2,7,8
 185 499 185 499 193.5 490.5 c 128,-1,9
 202 482 202 482 202 470 c 128,-1,10
 202 458 202 458 193.5 450 c 128,-1,11
 185 442 185 442 173 442 c 2,12,-1
 105 442 l 1,13,-1
 105 33 l 2,14,15
 105 21 105 21 97 12.5 c 128,-1,16
 89 4 89 4 77 4 c 128,-1,17
 65 4 65 4 56.5 12.5 c 128,-1,18
 48 21 48 21 48 33 c 2,19,-1
 48 442 l 1,20,-1
 -27 442 l 2,21,22
 -39 442 -39 442 -47.5 450 c 128,-1,23
 -56 458 -56 458 -56 470 c 128,-1,24
 -56 482 -56 482 -47.5 490.5 c 128,-1,25
 -39 499 -39 499 -27 499 c 2,26,-1
 37 499 l 1,27,28
 2 624 2 624 -90 659 c 0,29,30
 -108 667 -108 667 -108 685 c 0,31,32
 -108 696 -108 696 -100 705.5 c 128,-1,33
 -92 715 -92 715 -79 715 c 0,0,1
EndSplineSet
EndChar

StartChar: uni094C
Encoding: 81 2380 84
Width: 158
GlyphClass: 2
Flags: W
AnchorPoint: "Anchor_top" 124 516 basechar 0
LayerCount: 2
Fore
SplineSet
52 440 m 1,0,-1
 50 442 l 1,1,-1
 -12 442 l 2,2,3
 -24 442 -24 442 -32.5 450 c 128,-1,4
 -41 458 -41 458 -41 470 c 128,-1,5
 -41 482 -41 482 -32.5 490.5 c 128,-1,6
 -24 499 -24 499 -12 499 c 2,7,-1
 50 499 l 1,8,9
 28 519 28 519 -17.5 530 c 128,-1,10
 -63 541 -63 541 -97 541 c 2,11,-1
 -106 541 l 2,12,13
 -118 541 -118 541 -126.5 549 c 128,-1,14
 -135 557 -135 557 -135 569 c 0,15,16
 -135 580 -135 580 -127 588.5 c 128,-1,17
 -119 597 -119 597 -108 598 c 2,18,-1
 -95 598 l 2,19,20
 -16 598 -16 598 63 526 c 1,21,22
 35 612 35 612 -60 661 c 0,23,24
 -75 668 -75 668 -75 686 c 0,25,26
 -75 699 -75 699 -66 707 c 128,-1,27
 -57 715 -57 715 -46 715 c 0,28,29
 -40 715 -40 715 -26 708 c 128,-1,30
 -12 701 -12 701 8 684 c 128,-1,31
 28 667 28 667 47.5 643.5 c 128,-1,32
 67 620 67 620 83.5 581.5 c 128,-1,33
 100 543 100 543 107 499 c 1,34,-1
 168 499 l 2,35,36
 180 499 180 499 188.5 490.5 c 128,-1,37
 197 482 197 482 197 470 c 128,-1,38
 197 458 197 458 188.5 450 c 128,-1,39
 180 442 180 442 168 442 c 2,40,-1
 111 442 l 1,41,-1
 111 436 l 2,42,43
 111 429 111 429 109 425 c 2,44,-1
 109 33 l 2,45,46
 109 21 109 21 100.5 12.5 c 128,-1,47
 92 4 92 4 80 4 c 128,-1,48
 68 4 68 4 60 12.5 c 128,-1,49
 52 21 52 21 52 33 c 2,50,-1
 52 440 l 1,0,-1
EndSplineSet
EndChar

StartChar: uni094D
Encoding: 82 2381 85
Width: 0
GlyphClass: 4
Flags: W
AnchorPoint: "Anchor_bottom" -87 -20 mark 0
LayerCount: 2
Fore
SplineSet
112 -130 m 132,-1,1
 112 -141 112 -141 103 -150 c 132,-1,2
 94 -159 94 -159 83 -159 c 4,3,4
 69 -159 69 -159 44 -134 c 4,5,6
 4 -97 4 -97 -9 -89.5 c 132,-1,7
 -22 -82 -22 -82 -45 -82 c 6,8,-1
 -61 -82 l 6,9,10
 -73 -82 -73 -82 -81.5 -73.5 c 132,-1,11
 -90 -65 -90 -65 -90 -53 c 4,12,13
 -90 -42 -90 -42 -82.5 -34.5 c 132,-1,14
 -75 -27 -75 -27 -64 -25 c 6,15,-1
 -61 -25 l 6,16,17
 -55 -23 -55 -23 -45 -23 c 4,18,19
 16 -23 16 -23 86 -93 c 6,20,-1
 102 -109 l 6,21,0
 112 -119 112 -119 112 -130 c 132,-1,1
EndSplineSet
EndChar

StartChar: uni0950
Encoding: 83 2384 86
Width: 878
GlyphClass: 2
Flags: W
LayerCount: 2
Fore
SplineSet
754 224 m 2,0,1
 753 223 753 223 751.5 219 c 128,-1,2
 750 215 750 215 748 213 c 2,3,-1
 748 212 l 1,4,-1
 747 210 l 1,5,-1
 746 210 l 1,6,-1
 746 209 l 1,7,8
 729 172 729 172 729 157 c 0,9,10
 729 129 729 129 739.5 109 c 128,-1,11
 750 89 750 89 773 89 c 0,12,13
 820 89 820 89 820 142 c 0,14,15
 820 167 820 167 805.5 190 c 128,-1,16
 791 213 791 213 791 222 c 0,17,18
 791 235 791 235 800.5 243.5 c 128,-1,19
 810 252 810 252 820 252 c 0,20,21
 842 252 842 252 860.5 215.5 c 128,-1,22
 879 179 879 179 879 142 c 0,23,24
 879 94 879 94 848.5 62 c 128,-1,25
 818 30 818 30 773 30 c 0,26,27
 727 30 727 30 698.5 65.5 c 128,-1,28
 670 101 670 101 670 157 c 0,29,30
 670 182 670 182 692 231 c 1,31,-1
 692 232 l 1,32,-1
 694 234 l 1,33,-1
 694 236 l 1,34,-1
 700 248 l 1,35,-1
 700 249 l 1,36,37
 714 268 714 268 714 295 c 0,38,39
 714 326 714 326 684 326 c 0,40,41
 662 326 662 326 639.5 281 c 128,-1,42
 617 236 617 236 614 205 c 1,43,44
 619 188 619 188 620 171 c 2,45,-1
 620 158 l 1,46,-1
 621 157 l 1,47,48
 621 92 621 92 581.5 52 c 128,-1,49
 542 12 542 12 485 9 c 2,50,-1
 475 9 l 2,51,52
 448 9 448 9 421 17 c 128,-1,53
 394 25 394 25 359.5 46 c 128,-1,54
 325 67 325 67 293.5 113.5 c 128,-1,55
 262 160 262 160 239 227 c 0,56,57
 210 312 210 312 187 348 c 128,-1,58
 164 384 164 384 124 384 c 0,59,60
 115 384 115 384 105.5 381.5 c 128,-1,61
 96 379 96 379 84.5 373 c 128,-1,62
 73 367 73 367 66 352 c 128,-1,63
 59 337 59 337 59 315 c 0,64,65
 59 302 59 302 64 279 c 1,66,-1
 64 274 l 1,67,-1
 64 273 l 2,68,69
 65 272 65 272 65 271 c 2,70,-1
 66 270 l 1,71,-1
 66 268 l 2,72,73
 67 264 67 264 67 259 c 0,74,75
 67 247 67 247 58 238 c 128,-1,76
 49 229 49 229 38 229 c 0,77,78
 16 229 16 229 9 251 c 0,79,80
 0 282 0 282 0 315 c 0,81,82
 0 377 0 377 36.5 410 c 128,-1,83
 73 443 73 443 124 443 c 0,84,85
 186 443 186 443 222 398.5 c 128,-1,86
 258 354 258 354 294 246 c 0,87,88
 304 216 304 216 318 189 c 128,-1,89
 332 162 332 162 353.5 132.5 c 128,-1,90
 375 103 375 103 406.5 85.5 c 128,-1,91
 438 68 438 68 475 68 c 2,92,-1
 482 68 l 2,93,94
 512 69 512 69 537 90.5 c 128,-1,95
 562 112 562 112 562 157 c 2,96,-1
 562 166 l 2,97,98
 561 168 561 168 561 171 c 0,99,100
 553 234 553 234 488 259 c 1,101,102
 456 246 456 246 416 246 c 0,103,104
 404 246 404 246 395 255 c 128,-1,105
 386 264 386 264 386 276 c 128,-1,106
 386 288 386 288 395 296.5 c 128,-1,107
 404 305 404 305 416 305 c 0,108,109
 449 305 449 305 473 316 c 1,110,-1
 474 316 l 1,111,112
 495 327 495 327 507 343 c 128,-1,113
 519 359 519 359 521 366.5 c 128,-1,114
 523 374 523 374 523 378 c 2,115,-1
 523 386 l 2,116,117
 523 397 523 397 520.5 409.5 c 128,-1,118
 518 422 518 422 503.5 437.5 c 128,-1,119
 489 453 489 453 463 453 c 0,120,121
 443 453 443 453 428 446 c 128,-1,122
 413 439 413 439 406 430 c 128,-1,123
 399 421 399 421 395 409 c 128,-1,124
 391 397 391 397 390.5 391.5 c 128,-1,125
 390 386 390 386 390 382 c 0,126,127
 390 372 390 372 392 368 c 2,128,-1
 392 364 l 2,129,130
 392 354 392 354 385 345.5 c 128,-1,131
 378 337 378 337 368 335 c 2,132,-1
 362 335 l 2,133,134
 331 335 331 335 331 382 c 0,135,136
 331 433 331 433 366 472.5 c 128,-1,137
 401 512 401 512 463 512 c 0,138,139
 519 512 519 512 550.5 474.5 c 128,-1,140
 582 437 582 437 582 386 c 0,141,142
 582 334 582 334 544 296 c 1,143,-1
 572 274 l 1,144,145
 615 385 615 385 684 385 c 0,146,147
 727 385 727 385 750 358 c 128,-1,148
 773 331 773 331 773 295 c 0,149,150
 773 276 773 276 768 259 c 128,-1,151
 763 242 763 242 759.5 235 c 128,-1,152
 756 228 756 228 754 226 c 2,153,-1
 754 224 l 2,0,1
701 508 m 128,-1,155
 689 508 689 508 680.5 517 c 128,-1,156
 672 526 672 526 672 538 c 128,-1,157
 672 550 672 550 680.5 558.5 c 128,-1,158
 689 567 689 567 701 567 c 0,159,160
 710 567 710 567 720 560 c 128,-1,161
 730 553 730 553 730 540 c 2,162,-1
 730 538 l 2,163,164
 730 526 730 526 721.5 517 c 128,-1,154
 713 508 713 508 701 508 c 128,-1,155
704 418 m 0,165,166
 654 418 654 418 619.5 448 c 128,-1,167
 585 478 585 478 585 501 c 0,168,169
 585 513 585 513 593.5 522 c 128,-1,170
 602 531 602 531 614 531 c 0,171,172
 635 531 635 531 642 510 c 1,173,174
 661 476 661 476 704 476 c 0,175,176
 744 476 744 476 766 508 c 1,177,178
 773 527 773 527 794 527 c 0,179,180
 806 527 806 527 814.5 518.5 c 128,-1,181
 823 510 823 510 823 498 c 0,182,183
 823 476 823 476 788 447 c 128,-1,184
 753 418 753 418 704 418 c 0,165,166
EndSplineSet
EndChar

StartChar: uni0952
Encoding: 84 2386 87
Width: 562
GlyphClass: 2
Flags: W
LayerCount: 2
Fore
SplineSet
459 102 m 0,0,1
 459 92 459 92 451.5 82 c 128,-1,2
 444 72 444 72 430 72 c 2,3,-1
 131 72 l 2,4,5
 102 72 102 72 102 102 c 0,6,7
 102 116 102 116 111 123.5 c 128,-1,8
 120 131 120 131 131 131 c 2,9,-1
 430 131 l 2,10,11
 441 131 441 131 450 122 c 128,-1,12
 459 113 459 113 459 102 c 0,0,1
EndSplineSet
EndChar

StartChar: uni0964
Encoding: 85 2404 88
Width: 238
GlyphClass: 2
Flags: W
LayerCount: 2
Fore
SplineSet
180 9 m 128,-1,1
 168 9 168 9 159.5 17 c 128,-1,2
 151 25 151 25 151 37 c 2,3,-1
 151 464 l 2,4,5
 151 476 151 476 159.5 484.5 c 128,-1,6
 168 493 168 493 180 493 c 128,-1,7
 192 493 192 493 200 484.5 c 128,-1,8
 208 476 208 476 208 464 c 2,9,-1
 208 37 l 2,10,11
 208 25 208 25 200 17 c 128,-1,0
 192 9 192 9 180 9 c 128,-1,1
EndSplineSet
EndChar

StartChar: uni0965
Encoding: 86 2405 89
Width: 340
GlyphClass: 2
Flags: W
LayerCount: 2
Fore
SplineSet
141 9 m 128,-1,1
 129 9 129 9 120.5 17 c 128,-1,2
 112 25 112 25 112 37 c 2,3,-1
 112 464 l 2,4,5
 112 476 112 476 120.5 484.5 c 128,-1,6
 129 493 129 493 141 493 c 128,-1,7
 153 493 153 493 161 484.5 c 128,-1,8
 169 476 169 476 169 464 c 2,9,-1
 169 37 l 2,10,11
 169 25 169 25 161 17 c 128,-1,0
 153 9 153 9 141 9 c 128,-1,1
271 9 m 128,-1,13
 259 9 259 9 250.5 17 c 128,-1,14
 242 25 242 25 242 37 c 2,15,-1
 242 464 l 2,16,17
 242 476 242 476 250.5 484.5 c 128,-1,18
 259 493 259 493 271 493 c 128,-1,19
 283 493 283 493 291 484.5 c 128,-1,20
 299 476 299 476 299 464 c 2,21,-1
 299 37 l 2,22,23
 299 25 299 25 291 17 c 128,-1,12
 283 9 283 9 271 9 c 128,-1,13
EndSplineSet
EndChar

StartChar: uni0966
Encoding: 87 2406 90
Width: 421
GlyphClass: 2
Flags: W
LayerCount: 2
Fore
SplineSet
218 55 m 0,0,1
 259 55 259 55 285.5 120.5 c 128,-1,2
 312 186 312 186 312 270 c 0,3,4
 312 337 312 337 287 391 c 128,-1,5
 262 445 262 445 224 445 c 2,6,-1
 223 445 l 2,7,8
 182 445 182 445 149 391.5 c 128,-1,9
 116 338 116 338 116 258 c 0,10,11
 116 175 116 175 147 115 c 128,-1,12
 178 55 178 55 218 55 c 0,0,1
224 503 m 2,13,14
 290 503 290 503 330 433.5 c 128,-1,15
 370 364 370 364 370 270 c 0,16,17
 370 250 370 250 367 223 c 128,-1,18
 364 196 364 196 354.5 147 c 128,-1,19
 345 98 345 98 319 58.5 c 128,-1,20
 293 19 293 19 255 4 c 0,21,22
 238 -3 238 -3 218 -3 c 0,23,24
 167 -3 167 -3 129.5 38 c 128,-1,25
 92 79 92 79 75 137 c 128,-1,26
 58 195 58 195 58 258 c 0,27,28
 58 364 58 364 106 433.5 c 128,-1,29
 154 503 154 503 223 503 c 2,30,-1
 224 503 l 2,13,14
EndSplineSet
EndChar

StartChar: uni0967
Encoding: 88 2407 91
Width: 364
GlyphClass: 2
Flags: W
LayerCount: 2
Fore
SplineSet
262 356 m 2,0,1
 262 357 262 357 264 359 c 2,2,-1
 264 433 l 1,3,4
 250 455 250 455 210 455 c 0,5,6
 171 455 171 455 132 424.5 c 128,-1,7
 93 394 93 394 93 338 c 0,8,9
 93 268 93 268 150 262 c 1,10,-1
 154 262 l 1,11,-1
 156 261 l 1,12,13
 185 261 185 261 214.5 284 c 128,-1,14
 244 307 244 307 262 355 c 1,15,-1
 262 356 l 2,0,1
154 204 m 1,16,-1
 145 204 l 2,17,18
 129 205 129 205 113 211.5 c 128,-1,19
 97 218 97 218 78 231.5 c 128,-1,20
 59 245 59 245 47 273 c 128,-1,21
 35 301 35 301 35 339 c 0,22,23
 35 417 35 417 90 465 c 128,-1,24
 145 513 145 513 211 513 c 0,25,26
 262 513 262 513 292 487.5 c 128,-1,27
 322 462 322 462 322 440 c 2,28,-1
 322 24 l 2,29,30
 322 12 322 12 313.5 3.5 c 128,-1,31
 305 -5 305 -5 293 -5 c 128,-1,32
 281 -5 281 -5 272.5 3.5 c 128,-1,33
 264 12 264 12 264 24 c 2,34,-1
 264 251 l 1,35,36
 216 203 216 203 156 203 c 1,37,-1
 154 204 l 1,16,-1
EndSplineSet
EndChar

StartChar: uni0968
Encoding: 89 2408 92
Width: 395
GlyphClass: 2
Flags: W
LayerCount: 2
Fore
SplineSet
101 159 m 0,0,1
 86 159 86 159 86 148 c 128,-1,2
 86 137 86 137 101 137 c 0,3,4
 115 137 115 137 137 145 c 1,5,6
 115 159 115 159 101 159 c 0,0,1
184 102 m 2,7,8
 183 102 183 102 168 96 c 128,-1,9
 153 90 153 90 133.5 84 c 128,-1,10
 114 78 114 78 100 78 c 0,11,12
 69 78 69 78 48.5 98 c 128,-1,13
 28 118 28 118 28 147 c 0,14,15
 28 173 28 173 45.5 195 c 128,-1,16
 63 217 63 217 101 217 c 0,17,18
 145 217 145 217 194 175 c 1,19,20
 211 187 211 187 227.5 203 c 128,-1,21
 244 219 244 219 263 255 c 128,-1,22
 282 291 282 291 282 329 c 0,23,24
 282 370 282 370 258 406 c 128,-1,25
 234 442 234 442 191 442 c 2,26,-1
 181 442 l 1,27,28
 150 438 150 438 129 418 c 128,-1,29
 108 398 108 398 108 369 c 0,30,31
 108 348 108 348 119.5 329.5 c 128,-1,32
 131 311 131 311 131 303 c 0,33,34
 131 294 131 294 124.5 284 c 128,-1,35
 118 274 118 274 102 274 c 0,36,37
 78 274 78 274 64 306.5 c 128,-1,38
 50 339 50 339 50 369 c 0,39,40
 50 423 50 423 89.5 461.5 c 128,-1,41
 129 500 129 500 185 500 c 2,42,-1
 190 500 l 2,43,44
 254 500 254 500 297 452 c 128,-1,45
 340 404 340 404 340 329 c 0,46,47
 340 314 340 314 337 295.5 c 128,-1,48
 334 277 334 277 324.5 248 c 128,-1,49
 315 219 315 219 291.5 188 c 128,-1,50
 268 157 268 157 234 132 c 1,51,52
 289 66 289 66 322 33 c 0,53,54
 330 23 330 23 330 13 c 0,55,56
 330 2 330 2 321 -7 c 128,-1,57
 312 -16 312 -16 301 -16 c 0,58,59
 291 -16 291 -16 282.5 -7.5 c 128,-1,60
 274 1 274 1 230 50 c 2,61,-1
 184 102 l 2,7,8
EndSplineSet
EndChar

StartChar: uni0969
Encoding: 90 2409 93
Width: 348
GlyphClass: 2
Flags: W
LayerCount: 2
Fore
SplineSet
93 161 m 0,0,1
 84 161 84 161 84 149 c 0,2,3
 84 135 84 135 101.5 125 c 128,-1,4
 119 115 119 115 138 115 c 2,5,-1
 145 115 l 1,6,7
 131 137 131 137 116 148.5 c 128,-1,8
 101 160 101 160 93 161 c 0,0,1
200 136 m 2,9,10
 200 135 200 135 202 133 c 0,11,12
 246 155 246 155 246 192 c 2,13,-1
 246 197 l 2,14,15
 245 214 245 214 235 226.5 c 128,-1,16
 225 239 225 239 214 245 c 128,-1,17
 203 251 203 251 189 255 c 128,-1,18
 175 259 175 259 169 259.5 c 128,-1,19
 163 260 163 260 160 260 c 0,20,21
 142 255 142 255 123 254 c 2,22,-1
 121 254 l 2,23,24
 109 254 109 254 100.5 262.5 c 128,-1,25
 92 271 92 271 92 283 c 0,26,27
 92 294 92 294 99.5 302.5 c 128,-1,28
 107 311 107 311 118 312 c 0,29,30
 132 313 132 313 149 317 c 1,31,-1
 151 317 l 1,32,33
 186 326 186 326 207 347.5 c 128,-1,34
 228 369 228 369 228 392 c 0,35,36
 228 402 228 402 225.5 413 c 128,-1,37
 223 424 223 424 208.5 437.5 c 128,-1,38
 194 451 194 451 168 451 c 2,39,-1
 164 451 l 2,40,41
 131 450 131 450 116.5 427.5 c 128,-1,42
 102 405 102 405 100 380 c 0,43,44
 99 369 99 369 90.5 361.5 c 128,-1,45
 82 354 82 354 71 354 c 2,46,-1
 68 354 l 2,47,48
 57 355 57 355 49.5 363.5 c 128,-1,49
 42 372 42 372 42 383 c 0,50,51
 42 387 42 387 43.5 396.5 c 128,-1,52
 45 406 45 406 52 426 c 128,-1,53
 59 446 59 446 70.5 463 c 128,-1,54
 82 480 82 480 106 493.5 c 128,-1,55
 130 507 130 507 162 509 c 2,56,-1
 168 509 l 2,57,58
 226 509 226 509 256 474 c 128,-1,59
 286 439 286 439 286 392 c 0,60,61
 286 337 286 337 239 298 c 1,62,63
 298 267 298 267 304 203 c 1,64,-1
 304 192 l 2,65,66
 304 122 304 122 233 83 c 1,67,68
 267 29 267 29 267 20 c 0,69,70
 267 6 267 6 257 -2 c 128,-1,71
 247 -10 247 -10 238 -10 c 0,72,73
 221 -10 221 -10 213 4 c 1,74,-1
 213 5 l 2,75,76
 211 9 211 9 202 23 c 128,-1,77
 193 37 193 37 186 50 c 2,78,-1
 178 62 l 1,79,80
 156 56 156 56 136 56 c 0,81,82
 99 56 99 56 62.5 81 c 128,-1,83
 26 106 26 106 26 148 c 0,84,85
 26 176 26 176 41 193.5 c 128,-1,86
 56 211 56 211 69.5 215 c 128,-1,87
 83 219 83 219 93 219 c 2,88,-1
 95 219 l 2,89,90
 144 217 144 217 197 140 c 1,91,-1
 200 137 l 1,92,-1
 200 136 l 2,9,10
EndSplineSet
EndChar

StartChar: uni096A
Encoding: 91 2410 94
Width: 399
GlyphClass: 2
Flags: W
LayerCount: 2
Fore
SplineSet
203 50 m 2,0,-1
 216 50 l 1,1,-1
 218 51 l 1,2,3
 250 54 250 54 274.5 74 c 128,-1,4
 299 94 299 94 299 132 c 128,-1,5
 299 170 299 170 274.5 193.5 c 128,-1,6
 250 217 250 217 189 239 c 1,7,-1
 188 239 l 1,8,-1
 187 240 l 1,9,10
 102 191 102 191 102 136 c 0,11,12
 102 126 102 126 104.5 115.5 c 128,-1,13
 107 105 107 105 116 88 c 128,-1,14
 125 71 125 71 147.5 60.5 c 128,-1,15
 170 50 170 50 203 50 c 2,0,-1
284 460 m 2,16,-1
 284 464 l 1,17,-1
 283 466 l 1,18,-1
 283 474 l 2,19,20
 283 485 283 485 290.5 493 c 128,-1,21
 298 501 298 501 309 502 c 2,22,-1
 312 502 l 2,23,24
 332 502 332 502 336.5 488 c 128,-1,25
 341 474 341 474 341 442 c 0,26,27
 341 326 341 326 254 274 c 1,28,29
 356 227 356 227 356 132 c 0,30,31
 356 70 356 70 313.5 31.5 c 128,-1,32
 271 -7 271 -7 203 -7 c 0,33,34
 136 -7 136 -7 90.5 32 c 128,-1,35
 45 71 45 71 45 136 c 0,36,37
 45 209 45 209 127 268 c 1,38,39
 36 325 36 325 36 391 c 0,40,41
 36 437 36 437 73.5 472 c 128,-1,42
 111 507 111 507 134 507 c 0,43,44
 148 507 148 507 155 498 c 128,-1,45
 162 489 162 489 162 479 c 0,46,47
 162 459 162 459 143 452 c 128,-1,48
 124 445 124 445 108.5 427 c 128,-1,49
 93 409 93 409 93 391 c 2,50,-1
 93 386 l 1,51,-1
 94 385 l 1,52,53
 97 366 97 366 120.5 343 c 128,-1,54
 144 320 144 320 184 302 c 1,55,-1
 208 314 l 2,56,57
 244 330 244 330 264.5 358.5 c 128,-1,58
 285 387 285 387 285 442 c 0,59,60
 285 455 285 455 284 460 c 2,16,-1
EndSplineSet
EndChar

StartChar: uni096B
Encoding: 92 2411 95
Width: 356
GlyphClass: 2
Flags: W
LayerCount: 2
Fore
SplineSet
166 65 m 1,0,1
 127 98 127 98 118 98 c 0,2,3
 111 98 111 98 111 90 c 0,4,5
 121 66 121 66 162 65 c 2,6,-1
 166 65 l 1,0,1
238 465 m 2,7,-1
 238 474 l 1,8,-1
 237 477 l 2,9,10
 237 488 237 488 245 496.5 c 128,-1,11
 253 505 253 505 264 506 c 2,12,-1
 266 506 l 2,13,14
 277 506 277 506 285.5 498.5 c 128,-1,15
 294 491 294 491 295 480 c 0,16,17
 304 392 304 392 304 279 c 0,18,19
 304 189 304 189 295.5 146.5 c 128,-1,20
 287 104 287 104 258 65 c 1,21,22
 306 28 306 28 344 9 c 0,23,24
 360 1 360 1 360 -17 c 0,25,26
 360 -26 360 -26 352.5 -36 c 128,-1,27
 345 -46 345 -46 330 -46 c 0,28,29
 305 -46 305 -46 215 24 c 1,30,31
 189 7 189 7 163 7 c 2,32,-1
 161 7 l 2,33,34
 132 8 132 8 110 17 c 128,-1,35
 88 26 88 26 77.5 37 c 128,-1,36
 67 48 67 48 61 62 c 128,-1,37
 55 76 55 76 54 82 c 128,-1,38
 53 88 53 88 53 91 c 0,39,40
 53 116 53 116 70.5 136 c 128,-1,41
 88 156 88 156 118 156 c 0,42,43
 151 156 151 156 213 102 c 1,44,45
 239 136 239 136 244 203 c 1,46,47
 220 191 220 191 191 191 c 0,48,49
 147 191 147 191 112 217.5 c 128,-1,50
 77 244 77 244 66 271 c 0,51,52
 51 301 51 301 51 352 c 0,53,54
 51 398 51 398 63 481 c 0,55,56
 64 491 64 491 72.5 498.5 c 128,-1,57
 81 506 81 506 92 506 c 2,58,-1
 96 506 l 2,59,60
 106 505 106 505 113.5 496.5 c 128,-1,61
 121 488 121 488 121 477 c 0,62,63
 121 473 121 473 120 469 c 2,64,-1
 120 462 l 1,65,-1
 119 461 l 1,66,-1
 119 456 l 1,67,-1
 118 455 l 2,68,69
 118 454 118 454 118 453 c 0,70,71
 109 399 109 399 109 352 c 0,72,73
 109 314 109 314 118 296 c 0,74,75
 126 280 126 280 146 264.5 c 128,-1,76
 166 249 166 249 191 249 c 0,77,78
 200 249 200 249 209.5 251 c 128,-1,79
 219 253 219 253 232 267 c 128,-1,80
 245 281 245 281 245 305 c 1,81,-1
 246 306 l 1,82,-1
 246 310 l 2,83,84
 245 385 245 385 239 462 c 1,85,-1
 238 463 l 2,86,87
 238 464 238 464 238 465 c 2,7,-1
EndSplineSet
EndChar

StartChar: uni096C
Encoding: 93 2412 96
Width: 428
GlyphClass: 2
Flags: W
LayerCount: 2
Fore
SplineSet
304 167 m 0,0,1
 291 167 291 167 284 156.5 c 128,-1,2
 277 146 277 146 277 134 c 0,3,4
 277 117 277 117 285 102 c 1,5,6
 323 125 323 125 323 150 c 0,7,8
 323 164 323 164 307 166 c 2,9,-1
 306 166 l 2,10,11
 305 167 305 167 304 167 c 0,0,1
160 299 m 1,12,13
 180 309 180 309 204.5 317 c 128,-1,14
 229 325 229 325 245.5 329 c 128,-1,15
 262 333 262 333 263 334 c 2,16,-1
 267 334 l 2,17,18
 290 334 290 334 295 309 c 1,19,-1
 296 308 l 1,20,-1
 296 304 l 2,21,22
 296 291 296 291 286.5 284 c 128,-1,23
 277 277 277 277 263 274 c 128,-1,24
 249 271 249 271 222.5 262 c 128,-1,25
 196 253 196 253 171 239 c 0,26,27
 109 204 109 204 109 160 c 0,28,29
 109 124 109 124 138.5 104.5 c 128,-1,30
 168 85 168 85 214 85 c 2,31,-1
 229 85 l 1,32,33
 219 111 219 111 219 134 c 0,34,35
 219 174 219 174 243.5 199.5 c 128,-1,36
 268 225 268 225 303 225 c 1,37,-1
 304 224 l 1,38,-1
 314 224 l 2,39,40
 325 223 325 223 337.5 219 c 128,-1,41
 350 215 350 215 365.5 196.5 c 128,-1,42
 381 178 381 178 381 150 c 0,43,44
 381 96 381 96 321 56 c 1,45,46
 371 3 371 3 371 -11 c 0,47,48
 371 -23 371 -23 361.5 -31.5 c 128,-1,49
 352 -40 352 -40 342 -40 c 0,50,51
 328 -40 328 -40 319 -29 c 0,52,53
 301 -5 301 -5 264 32 c 1,54,55
 237 27 237 27 215 27 c 0,56,57
 149 27 149 27 102 60.5 c 128,-1,58
 55 94 55 94 51 150 c 1,59,-1
 51 160 l 2,60,61
 51 218 51 218 103 262 c 1,62,63
 36 304 36 304 36 366 c 0,64,65
 36 421 36 421 94 462 c 128,-1,66
 152 503 152 503 222 503 c 0,67,68
 270 503 270 503 307 482.5 c 128,-1,69
 344 462 344 462 344 440 c 0,70,71
 344 429 344 429 335 420 c 128,-1,72
 326 411 326 411 315 411 c 0,73,74
 307 411 307 411 297 419.5 c 128,-1,75
 287 428 287 428 268.5 436.5 c 128,-1,76
 250 445 250 445 222 445 c 0,77,78
 176 445 176 445 135 419.5 c 128,-1,79
 94 394 94 394 94 366 c 2,80,-1
 94 362 l 1,81,-1
 95 360 l 1,82,83
 97 342 97 342 113.5 327 c 128,-1,84
 130 312 130 312 140.5 307 c 128,-1,85
 151 302 151 302 160 299 c 1,12,13
EndSplineSet
EndChar

StartChar: uni096D
Encoding: 94 2413 97
Width: 459
GlyphClass: 2
Flags: W
LayerCount: 2
Fore
SplineSet
347 196 m 2,0,-1
 347 202 l 1,1,-1
 348 204 l 1,2,-1
 348 205 l 2,3,4
 348 211 348 211 347 220.5 c 128,-1,5
 346 230 346 230 341.5 247.5 c 128,-1,6
 337 265 337 265 325.5 276.5 c 128,-1,7
 314 288 314 288 297 288 c 2,8,-1
 295 288 l 2,9,10
 280 286 280 286 265.5 270 c 128,-1,11
 251 254 251 254 251 222 c 0,12,13
 251 215 251 215 252 211 c 0,14,15
 252 210 252 210 252.5 210 c 128,-1,16
 253 210 253 210 253 209 c 2,17,-1
 253 200 l 1,18,19
 264 145 264 145 312 119 c 0,20,21
 319 116 319 116 327 113 c 1,22,23
 346 145 346 145 347 196 c 2,0,-1
292 346 m 1,24,-1
 298 346 l 2,25,26
 339 346 339 346 372.5 310.5 c 128,-1,27
 406 275 406 275 406 205 c 2,28,-1
 406 194 l 1,29,30
 402 101 402 101 350.5 47.5 c 128,-1,31
 299 -6 299 -6 229 -6 c 0,32,33
 216 -6 216 -6 200 -4 c 128,-1,34
 184 -2 184 -2 155.5 10 c 128,-1,35
 127 22 127 22 104.5 42.5 c 128,-1,36
 82 63 82 63 64 105 c 128,-1,37
 46 147 46 147 44 203 c 2,38,-1
 44 220 l 2,39,40
 44 316 44 316 90 405 c 0,41,42
 109 442 109 442 140 483 c 128,-1,43
 171 524 171 524 191 524 c 0,44,45
 204 524 204 524 212 515 c 128,-1,46
 220 506 220 506 220 495 c 128,-1,47
 220 484 220 484 210 474 c 0,48,49
 171 438 171 438 136.5 369 c 128,-1,50
 102 300 102 300 102 220 c 2,51,-1
 102 206 l 2,52,53
 103 182 103 182 108.5 160.5 c 128,-1,54
 114 139 114 139 126 112 c 128,-1,55
 138 85 138 85 164.5 68.5 c 128,-1,56
 191 52 191 52 229 52 c 2,57,-1
 241 52 l 1,58,59
 266 56 266 56 285 68 c 1,60,61
 274 74 274 74 263 83 c 128,-1,62
 252 92 252 92 234 110.5 c 128,-1,63
 216 129 216 129 204.5 158.5 c 128,-1,64
 193 188 193 188 193 222 c 0,65,66
 193 275 193 275 222 308 c 128,-1,67
 251 341 251 341 290 345 c 1,68,-1
 292 346 l 1,24,-1
EndSplineSet
EndChar

StartChar: uni096E
Encoding: 95 2414 98
Width: 531
GlyphClass: 2
Flags: W
LayerCount: 2
Fore
SplineSet
473 49 m 0,0,1
 466 49 466 49 453 59 c 128,-1,2
 440 69 440 69 414 69 c 0,3,4
 387 69 387 69 333 55 c 1,5,-1
 331 54 l 1,6,-1
 326 54 l 1,7,8
 316 48 316 48 282 48 c 0,9,10
 214 48 214 48 163 89.5 c 128,-1,11
 112 131 112 131 103 209 c 1,12,-1
 103 214 l 2,13,14
 101 232 101 232 101 241 c 0,15,16
 101 257 101 257 103.5 277.5 c 128,-1,17
 106 298 106 298 122.5 339 c 128,-1,18
 139 380 139 380 167 408 c 1,19,-1
 67 408 l 2,20,21
 55 408 55 408 46.5 416.5 c 128,-1,22
 38 425 38 425 38 437 c 128,-1,23
 38 449 38 449 46.5 457.5 c 128,-1,24
 55 466 55 466 67 466 c 2,25,-1
 484 466 l 2,26,27
 496 466 496 466 504.5 457.5 c 128,-1,28
 513 449 513 449 513 437 c 128,-1,29
 513 425 513 425 504.5 416.5 c 128,-1,30
 496 408 496 408 484 408 c 2,31,-1
 288 408 l 2,32,33
 243 408 243 408 201 358 c 128,-1,34
 159 308 159 308 159 241 c 0,35,36
 159 183 159 183 191 144.5 c 128,-1,37
 223 106 223 106 282 106 c 0,38,39
 304 106 304 106 312 110 c 1,40,-1
 317 110 l 2,41,42
 318 111 318 111 319 111 c 2,43,-1
 331 114 l 2,44,45
 332 114 332 114 332 114 c 1,46,-1
 334 115 l 1,47,-1
 336 115 l 1,48,-1
 337 116 l 2,49,50
 338 116 338 116 339 116 c 0,51,52
 383 127 383 127 414 127 c 0,53,54
 452 127 452 127 477 111.5 c 128,-1,55
 502 96 502 96 502 78 c 0,56,57
 502 64 502 64 492.5 56.5 c 128,-1,58
 483 49 483 49 473 49 c 0,0,1
EndSplineSet
EndChar

StartChar: uni096F
Encoding: 96 2415 99
Width: 377
GlyphClass: 2
Flags: W
LayerCount: 2
Fore
SplineSet
262 85 m 0,0,1
 262 101 262 101 248.5 114 c 128,-1,2
 235 127 235 127 218.5 135 c 128,-1,3
 202 143 202 143 201 144 c 2,4,-1
 199 144 l 1,5,6
 135 176 135 176 94 212 c 0,7,8
 66 236 66 236 51.5 276 c 128,-1,9
 37 316 37 316 37 347 c 0,10,11
 37 356 37 356 38 368 c 128,-1,12
 39 380 39 380 47.5 406.5 c 128,-1,13
 56 433 56 433 70.5 453 c 128,-1,14
 85 473 85 473 115.5 489 c 128,-1,15
 146 505 146 505 187 505 c 0,16,17
 256 505 256 505 293.5 466.5 c 128,-1,18
 331 428 331 428 331 378 c 0,19,20
 331 306 331 306 292.5 269 c 128,-1,21
 254 232 254 232 202 229 c 2,22,-1
 200 229 l 2,23,24
 189 229 189 229 181 237 c 128,-1,25
 173 245 173 245 173 256 c 128,-1,26
 173 267 173 267 180.5 275 c 128,-1,27
 188 283 188 283 198 284 c 0,28,29
 277 291 277 291 277 378 c 0,30,31
 277 383 277 383 276.5 388.5 c 128,-1,32
 276 394 276 394 270.5 406.5 c 128,-1,33
 265 419 265 419 256.5 428 c 128,-1,34
 248 437 248 437 230 444 c 128,-1,35
 212 451 212 451 187 451 c 0,36,37
 155 451 155 451 134 437.5 c 128,-1,38
 113 424 113 424 104.5 403.5 c 128,-1,39
 96 383 96 383 93.5 370 c 128,-1,40
 91 357 91 357 91 347 c 0,41,42
 91 325 91 325 102 296.5 c 128,-1,43
 113 268 113 268 130 253 c 0,44,45
 166 222 166 222 226 192 c 1,46,-1
 227 191 l 1,47,48
 245 182 245 182 254.5 176 c 128,-1,49
 264 170 264 170 281.5 156.5 c 128,-1,50
 299 143 299 143 307.5 125 c 128,-1,51
 316 107 316 107 316 85 c 0,52,53
 316 46 316 46 287 19.5 c 128,-1,54
 258 -7 258 -7 220 -7 c 0,55,56
 209 -7 209 -7 201 1 c 128,-1,57
 193 9 193 9 193 20 c 128,-1,58
 193 31 193 31 201 39 c 128,-1,59
 209 47 209 47 220 47 c 0,60,61
 236 47 236 47 249 58.5 c 128,-1,62
 262 70 262 70 262 85 c 0,0,1
EndSplineSet
EndChar

StartChar: quoteleft
Encoding: 99 8216 102
Width: 184
GlyphClass: 2
Flags: W
LayerCount: 2
Fore
SplineSet
72 456 m 1,0,1
 81 436 81 436 98.5 422.5 c 128,-1,2
 116 409 116 409 116 401 c 0,3,4
 116 382 116 382 98 382 c 0,5,6
 94 382 94 382 80 390 c 128,-1,7
 66 398 66 398 49 422.5 c 128,-1,8
 32 447 32 447 32 481 c 0,9,10
 32 496 32 496 34 502 c 2,11,-1
 34 504 l 2,12,13
 36 516 36 516 48 525 c 128,-1,14
 60 534 60 534 73 534 c 0,15,16
 89 534 89 534 100 523 c 128,-1,17
 111 512 111 512 111 495 c 128,-1,18
 111 478 111 478 100 467 c 128,-1,19
 89 456 89 456 73 456 c 2,20,-1
 72 456 l 1,0,1
EndSplineSet
EndChar

StartChar: quoteright
Encoding: 100 8217 103
Width: 229
GlyphClass: 2
Flags: W
LayerCount: 2
Fore
SplineSet
82 400 m 0,0,1
 82 409 82 409 90.5 415 c 128,-1,2
 99 421 99 421 110.5 430.5 c 128,-1,3
 122 440 122 440 127 456 c 1,4,5
 111 456 111 456 100 467 c 128,-1,6
 89 478 89 478 89 495 c 128,-1,7
 89 512 89 512 100 523 c 128,-1,8
 111 534 111 534 127 534 c 0,9,10
 140 534 140 534 152 525 c 128,-1,11
 164 516 164 516 166 504 c 2,12,-1
 166 502 l 2,13,14
 169 493 169 493 169 481 c 0,15,16
 169 442 169 442 143 412 c 128,-1,17
 117 382 117 382 101 382 c 0,18,19
 93 382 93 382 87.5 387 c 128,-1,20
 82 392 82 392 82 400 c 0,0,1
EndSplineSet
EndChar

StartChar: quotedblleft
Encoding: 101 8220 104
Width: 326
GlyphClass: 2
Flags: W
LayerCount: 2
Fore
SplineSet
66 456 m 1,0,1
 74 439 74 439 90.5 426 c 128,-1,2
 107 413 107 413 107 406 c 0,3,4
 107 398 107 398 102 393.5 c 128,-1,5
 97 389 97 389 90 389 c 0,6,7
 87 389 87 389 74 396 c 128,-1,8
 61 403 61 403 45.5 425.5 c 128,-1,9
 30 448 30 448 30 479 c 0,10,11
 30 492 30 492 32 498 c 2,12,-1
 32 500 l 2,13,14
 34 511 34 511 44.5 519 c 128,-1,15
 55 527 55 527 67 527 c 0,16,17
 82 527 82 527 92.5 517 c 128,-1,18
 103 507 103 507 103 492 c 128,-1,19
 103 477 103 477 92.5 466.5 c 128,-1,20
 82 456 82 456 67 456 c 2,21,-1
 66 456 l 1,0,1
187 456 m 1,22,23
 195 439 195 439 211.5 426 c 128,-1,24
 228 413 228 413 228 406 c 128,-1,25
 228 399 228 399 223.5 394 c 128,-1,26
 219 389 219 389 212 389 c 0,27,28
 208 389 208 389 195.5 396 c 128,-1,29
 183 403 183 403 167 425.5 c 128,-1,30
 151 448 151 448 151 479 c 0,31,32
 151 492 151 492 153 498 c 2,33,-1
 153 500 l 2,34,35
 155 511 155 511 165.5 519 c 128,-1,36
 176 527 176 527 188 527 c 0,37,38
 203 527 203 527 213.5 517 c 128,-1,39
 224 507 224 507 224 492 c 128,-1,40
 224 477 224 477 213.5 466.5 c 128,-1,41
 203 456 203 456 188 456 c 2,42,-1
 187 456 l 1,22,23
EndSplineSet
EndChar

StartChar: quotedblright
Encoding: 102 8221 105
Width: 340
GlyphClass: 2
Flags: W
LayerCount: 2
Fore
SplineSet
234 405 m 0,0,1
 234 414 234 414 251.5 426.5 c 128,-1,2
 269 439 269 439 275 456 c 1,3,4
 260 456 260 456 249.5 466.5 c 128,-1,5
 239 477 239 477 239 492 c 128,-1,6
 239 507 239 507 249.5 517 c 128,-1,7
 260 527 260 527 275 527 c 0,8,9
 287 527 287 527 297.5 519 c 128,-1,10
 308 511 308 511 310 500 c 2,11,-1
 310 498 l 2,12,13
 312 492 312 492 312 479 c 0,14,15
 312 444 312 444 288.5 416.5 c 128,-1,16
 265 389 265 389 250 389 c 0,17,18
 234 389 234 389 234 405 c 0,0,1
113 405 m 0,19,20
 113 414 113 414 130.5 426.5 c 128,-1,21
 148 439 148 439 154 456 c 1,22,23
 139 456 139 456 128.5 466.5 c 128,-1,24
 118 477 118 477 118 492 c 128,-1,25
 118 507 118 507 128.5 517 c 128,-1,26
 139 527 139 527 154 527 c 0,27,28
 166 527 166 527 176.5 519 c 128,-1,29
 187 511 187 511 189 500 c 2,30,-1
 189 498 l 2,31,32
 191 492 191 492 191 479 c 0,33,34
 191 444 191 444 167.5 416.5 c 128,-1,35
 144 389 144 389 129 389 c 0,36,37
 113 389 113 389 113 405 c 0,19,20
EndSplineSet
EndChar

StartChar: Tra
Encoding: 106 -1 106
Width: 441
GlyphClass: 3
Flags: W
AnchorPoint: "Anchor_top" 360 524 basechar 0
AnchorPoint: "Anchor_bottom" 368 -26 basechar 0
LayerCount: 2
Fore
SplineSet
232 315 m 0,0,1
 193 315 193 315 156 289 c 128,-1,2
 119 263 119 263 92 237 c 128,-1,3
 65 211 65 211 52 211 c 0,4,5
 44 211 44 211 35.5 219 c 128,-1,6
 27 227 27 227 26 240 c 0,7,8
 26 247 26 247 42.5 267.5 c 128,-1,9
 59 288 59 288 85.5 311.5 c 128,-1,10
 112 335 112 335 152.5 353.5 c 128,-1,11
 193 372 193 372 234 372 c 0,12,13
 290 372 290 372 339 340 c 1,14,-1
 339 441 l 1,15,-1
 2 441 l 2,16,17
 -10 441 -10 441 -19 449 c 128,-1,18
 -28 457 -28 457 -28 470 c 128,-1,19
 -28 483 -28 483 -19 491 c 128,-1,20
 -10 499 -10 499 2 499 c 2,21,-1
 442 499 l 2,22,23
 453 499 453 499 462 490 c 128,-1,24
 471 481 471 481 471 470 c 128,-1,25
 471 459 471 459 462 450 c 128,-1,26
 453 441 453 441 442 441 c 2,27,-1
 397 441 l 1,28,-1
 397 22 l 2,29,30
 397 11 397 11 388 2 c 128,-1,31
 379 -7 379 -7 368 -7 c 128,-1,32
 357 -7 357 -7 348 2 c 128,-1,33
 339 11 339 11 339 22 c 2,34,-1
 339 184 l 1,35,-1
 137 5 l 2,36,37
 130 -2 130 -2 118 -2 c 0,38,39
 104 -2 104 -2 96 7.5 c 128,-1,40
 88 17 88 17 88 28 c 0,41,42
 88 40 88 40 98 48 c 2,43,-1
 338 261 l 1,44,45
 294 315 294 315 232 315 c 0,0,1
EndSplineSet
Ligature2: "'akhn' Akhand lookup 1-1" Ta_half uni0930
Ligature2: "'akhn' Akhand lookup 1-1" uni0924 uni094D uni0930
EndChar

StartChar: Jnya
Encoding: 107 -1 107
Width: 558
GlyphClass: 3
Flags: W
AnchorPoint: "Anchor_top" 463 514 basechar 0
AnchorPoint: "Anchor_bottom" 469 -24 basechar 0
LayerCount: 2
Fore
SplineSet
108 179 m 0,0,1
 108 158 108 158 129 144 c 128,-1,2
 150 130 150 130 180 128 c 2,3,-1
 188 128 l 1,4,-1
 212 130 l 1,5,6
 161 203 161 203 132 203 c 0,7,8
 125 203 125 203 116.5 197 c 128,-1,9
 108 191 108 191 108 179 c 0,0,1
299 102 m 1,10,11
 300 101 300 101 308 87.5 c 128,-1,12
 316 74 316 74 324 56 c 128,-1,13
 332 38 332 38 332 30 c 0,14,15
 332 18 332 18 323 12 c 128,-1,16
 314 6 314 6 303 6 c 2,17,-1
 302 6 l 2,18,19
 286 6 286 6 268 40 c 0,20,21
 266 44 266 44 245 79 c 1,22,23
 214 70 214 70 185 70 c 2,24,-1
 179 70 l 1,25,26
 121 74 121 74 85.5 105.5 c 128,-1,27
 50 137 50 137 50 179 c 0,28,29
 50 216 50 216 76.5 239 c 128,-1,30
 103 262 103 262 131 262 c 0,31,32
 194 262 194 262 268 151 c 1,33,34
 324 183 324 183 324 234 c 0,35,36
 324 268 324 268 297 294.5 c 128,-1,37
 270 321 270 321 242 321 c 2,38,-1
 118 321 l 2,39,40
 107 321 107 321 98 330 c 128,-1,41
 89 339 89 339 89 350 c 128,-1,42
 89 361 89 361 98 370 c 128,-1,43
 107 379 107 379 118 379 c 2,44,-1
 447 379 l 1,45,-1
 447 441 l 1,46,-1
 -4 441 l 2,47,48
 -15 441 -15 441 -24 450 c 128,-1,49
 -33 459 -33 459 -33 470 c 128,-1,50
 -33 481 -33 481 -24 490 c 128,-1,51
 -15 499 -15 499 -4 499 c 2,52,-1
 580 499 l 2,53,54
 591 499 591 499 600 490 c 128,-1,55
 609 481 609 481 609 470 c 128,-1,56
 609 459 609 459 600 450 c 128,-1,57
 591 441 591 441 580 441 c 2,58,-1
 505 441 l 1,59,-1
 505 22 l 2,60,61
 505 11 505 11 496 2 c 128,-1,62
 487 -7 487 -7 476 -7 c 128,-1,63
 465 -7 465 -7 456 2 c 128,-1,64
 447 11 447 11 447 22 c 2,65,-1
 447 321 l 1,66,-1
 350 321 l 1,67,68
 382 280 382 280 382 230 c 0,69,70
 382 149 382 149 299 102 c 1,10,11
EndSplineSet
Ligature2: "'akhn' Akhand lookup 1-1" Ja_half uni091E
Ligature2: "'akhn' Akhand lookup 1-1" uni091C uni094D uni091E
EndChar

StartChar: Ksha
Encoding: 108 -1 108
Width: 542
GlyphClass: 3
Flags: W
AnchorPoint: "Anchor_top" 477 518 basechar 0
AnchorPoint: "Anchor_bottom" 475 -22 basechar 0
LayerCount: 2
Fore
SplineSet
225 456 m 0,0,1
 202 456 202 456 182.5 438 c 128,-1,2
 163 420 163 420 163 395 c 0,3,4
 163 375 163 375 175.5 355.5 c 128,-1,5
 188 336 188 336 204 328 c 2,6,-1
 219 322 l 1,7,-1
 220 322 l 1,8,9
 240 327 240 327 251.5 331.5 c 128,-1,10
 263 336 263 336 275 352.5 c 128,-1,11
 287 369 287 369 287 396 c 0,12,13
 285 425 285 425 265 440.5 c 128,-1,14
 245 456 245 456 225 456 c 0,0,1
303 163 m 0,15,16
 303 191 303 191 278 191 c 0,17,18
 255 191 255 191 255 158 c 0,19,20
 255 130 255 130 272 98 c 1,21,22
 303 123 303 123 303 163 c 0,15,16
367 323 m 2,23,24
 389 323 389 323 403.5 329 c 128,-1,25
 418 335 418 335 428.5 344 c 128,-1,26
 439 353 439 353 444 355 c 1,27,-1
 444 441 l 1,28,-1
 408 441 l 2,29,30
 396 441 396 441 387.5 449.5 c 128,-1,31
 379 458 379 458 379 470 c 128,-1,32
 379 482 379 482 387.5 490.5 c 128,-1,33
 396 499 396 499 408 499 c 2,34,-1
 566 499 l 2,35,36
 578 499 578 499 586.5 490.5 c 128,-1,37
 595 482 595 482 595 470 c 128,-1,38
 595 458 595 458 586.5 449.5 c 128,-1,39
 578 441 578 441 566 441 c 2,40,-1
 502 441 l 1,41,-1
 502 26 l 2,42,43
 502 14 502 14 493.5 5.5 c 128,-1,44
 485 -3 485 -3 473 -3 c 128,-1,45
 461 -3 461 -3 452.5 5.5 c 128,-1,46
 444 14 444 14 444 26 c 2,47,-1
 444 284 l 1,48,49
 409 264 409 264 365 264 c 0,50,51
 324 264 324 264 286 284 c 1,52,53
 268 274 268 274 230 264 c 1,54,-1
 229 264 l 1,55,56
 169 248 169 248 137 219 c 0,57,58
 103 188 103 188 103 159 c 2,59,-1
 103 153 l 2,60,61
 103 122 103 122 129.5 99 c 128,-1,62
 156 76 156 76 201 76 c 0,63,64
 212 76 212 76 215 77 c 2,65,-1
 218 77 l 1,66,67
 197 119 197 119 197 159 c 0,68,69
 197 201 197 201 221 225 c 128,-1,70
 245 249 245 249 281 249 c 2,71,-1
 282 249 l 2,72,73
 320 248 320 248 340 222.5 c 128,-1,74
 360 197 360 197 362 167 c 0,75,76
 362 161 362 161 360 149 c 2,77,-1
 360 147 l 1,78,79
 351 88 351 88 306 51 c 0,80,81
 307 49 307 49 315 41 c 2,82,-1
 348 4 l 2,83,84
 356 -6 356 -6 356 -17 c 128,-1,85
 356 -28 356 -28 346.5 -36 c 128,-1,86
 337 -44 337 -44 326 -44 c 0,87,88
 312 -44 312 -44 305 -35 c 2,89,-1
 272 2 l 2,90,91
 256 19 256 19 253 24 c 1,92,93
 229 17 229 17 202 17 c 0,94,95
 172 17 172 17 138 29 c 128,-1,96
 104 41 104 41 74.5 72.5 c 128,-1,97
 45 104 45 104 45 149 c 2,98,-1
 45 161 l 1,99,100
 52 247 52 247 149 298 c 1,101,102
 106 338 106 338 104 394 c 0,103,104
 104 421 104 421 114 442 c 1,105,-1
 -8 442 l 2,106,107
 -22 442 -22 442 -29.5 451 c 128,-1,108
 -37 460 -37 460 -37 471 c 128,-1,109
 -37 482 -37 482 -29.5 491 c 128,-1,110
 -22 500 -22 500 -8 500 c 2,111,-1
 172 500 l 1,112,113
 202 514 202 514 225 514 c 0,114,115
 275 514 275 514 309.5 479 c 128,-1,116
 344 444 344 444 344 394 c 0,117,118
 344 360 344 360 329 329 c 1,119,120
 347 323 347 323 364 323 c 2,121,-1
 367 323 l 2,23,24
EndSplineSet
Ligature2: "'akhn' Akhand lookup 1-1" Ka_half uni0937
Ligature2: "'akhn' Akhand lookup 1-1" uni0915 uni094D uni0937
EndChar

StartChar: Shra
Encoding: 109 -1 109
Width: 461
GlyphClass: 3
Flags: W
AnchorPoint: "Anchor_top" 378 514 basechar 0
AnchorPoint: "Anchor_bottom" 382 -16 basechar 0
LayerCount: 2
Fore
SplineSet
177 521 m 0,0,1
 231 521 231 521 260 490 c 128,-1,2
 289 459 289 459 289 419 c 0,3,4
 289 364 289 364 235 312 c 1,5,6
 293 285 293 285 357 264 c 1,7,-1
 357 442 l 1,8,-1
 334 442 l 2,9,10
 320 442 320 442 312.5 451 c 128,-1,11
 305 460 305 460 305 471 c 0,12,13
 305 483 305 483 314 491 c 128,-1,14
 323 499 323 499 334 499 c 2,15,-1
 488 499 l 2,16,17
 499 499 499 499 508 491 c 128,-1,18
 517 483 517 483 517 471 c 0,19,20
 517 460 517 460 509.5 451 c 128,-1,21
 502 442 502 442 488 442 c 2,22,-1
 414 442 l 1,23,-1
 414 29 l 2,24,25
 414 17 414 17 405.5 9 c 128,-1,26
 397 1 397 1 386 1 c 128,-1,27
 375 1 375 1 366 9 c 128,-1,28
 357 17 357 17 357 29 c 2,29,-1
 357 187 l 1,30,31
 298 168 298 168 225.5 118.5 c 128,-1,32
 153 69 153 69 122.5 42 c 128,-1,33
 92 15 92 15 78 1 c 0,34,35
 56 -23 56 -23 40 -23 c 0,36,37
 31 -23 31 -23 22.5 -14.5 c 128,-1,38
 14 -6 14 -6 14 6 c 0,39,40
 14 31 14 31 116.5 111.5 c 128,-1,41
 219 192 219 192 296 225 c 1,42,43
 232 248 232 248 186 273 c 1,44,45
 112 223 112 223 38 195 c 0,46,47
 16 187 16 187 7 187 c 0,48,49
 -4 187 -4 187 -10 196 c 128,-1,50
 -16 205 -16 205 -16 216 c 0,51,52
 -16 229 -16 229 -9 234.5 c 128,-1,53
 -2 240 -2 240 19 249 c 0,54,55
 72 271 72 271 132 306 c 1,56,57
 65 357 65 357 65 417 c 0,58,59
 65 453 65 453 92 487 c 128,-1,60
 119 521 119 521 177 521 c 0,0,1
178 463 m 0,61,62
 152 463 152 463 137 449 c 128,-1,63
 122 435 122 435 122 416 c 0,64,65
 122 380 122 380 182 341 c 1,66,67
 231 381 231 381 231 416 c 0,68,69
 231 463 231 463 178 463 c 0,61,62
EndSplineSet
Ligature2: "'akhn' Akhand lookup 1-1" Sha_half uni0930
Ligature2: "'akhn' Akhand lookup 1-1" uni0936 uni094D uni0930
EndChar

StartChar: Ka_half
Encoding: 110 -1 110
Width: 520
GlyphClass: 3
Flags: W
LayerCount: 2
Fore
SplineSet
332 252 m 1,0,1
 289 318 289 318 208 318 c 0,2,3
 152 318 152 318 114.5 286.5 c 128,-1,4
 77 255 77 255 77 216 c 128,-1,5
 77 177 77 177 114.5 146.5 c 128,-1,6
 152 116 152 116 201 116 c 0,7,8
 253 116 253 116 292 152 c 128,-1,9
 331 188 331 188 336 229 c 1,10,-1
 336 246 l 2,11,12
 334 248 334 248 332 251 c 2,13,-1
 332 252 l 1,0,1
535 299 m 2,14,-1
 521 299 l 2,15,16
 469 299 469 299 433 256 c 128,-1,17
 397 213 397 213 397 186 c 0,18,19
 397 183 397 183 395 175 c 2,20,-1
 395 25 l 2,21,22
 395 14 395 14 386 5 c 128,-1,23
 377 -4 377 -4 366 -4 c 0,24,25
 356 -4 356 -4 346 3.5 c 128,-1,26
 336 11 336 11 336 25 c 2,27,-1
 336 113 l 1,28,29
 281 58 281 58 203 58 c 2,30,-1
 200 58 l 2,31,32
 127 58 127 58 73 105 c 128,-1,33
 19 152 19 152 19 216 c 0,34,35
 19 281 19 281 73 329 c 128,-1,36
 127 377 127 377 209 377 c 0,37,38
 284 377 284 377 336 334 c 1,39,-1
 336 441 l 1,40,-1
 -18 441 l 2,41,42
 -32 441 -32 441 -39.5 450 c 128,-1,43
 -47 459 -47 459 -47 470 c 128,-1,44
 -47 481 -47 481 -39.5 490 c 128,-1,45
 -32 499 -32 499 -18 499 c 2,46,-1
 578 499 l 2,47,48
 592 499 592 499 599.5 490 c 128,-1,49
 607 481 607 481 607 470 c 128,-1,50
 607 459 607 459 599.5 450 c 128,-1,51
 592 441 592 441 578 441 c 2,52,-1
 395 441 l 1,53,-1
 395 300 l 1,54,55
 450 358 450 358 517 358 c 0,56,57
 567 358 567 358 567 330 c 0,58,59
 567 327 567 327 566 321.5 c 128,-1,60
 565 316 565 316 557 307.5 c 128,-1,61
 549 299 549 299 535 299 c 2,14,-1
EndSplineSet
Ligature2: "'half' Half Forms lookup 0-1" uni0915 uni094D
EndChar

StartChar: Kha_half
Encoding: 111 -1 111
Width: 454
GlyphClass: 3
Flags: W
LayerCount: 2
Fore
SplineSet
295 211 m 0,0,1
 295 178 295 178 319.5 149.5 c 128,-1,2
 344 121 344 121 387 121 c 0,3,4
 416 121 416 121 435.5 131 c 128,-1,5
 455 141 455 141 463.5 157.5 c 128,-1,6
 472 174 472 174 475 187 c 128,-1,7
 478 200 478 200 478 214 c 0,8,9
 478 248 478 248 452.5 274.5 c 128,-1,10
 427 301 427 301 387 301 c 128,-1,11
 347 301 347 301 321 272 c 128,-1,12
 295 243 295 243 295 211 c 0,0,1
307 -2 m 0,13,14
 241 -2 241 -2 182 23.5 c 128,-1,15
 123 49 123 49 84.5 88 c 128,-1,16
 46 127 46 127 24 171.5 c 128,-1,17
 2 216 2 216 2 255 c 0,18,19
 2 284 2 284 18 303 c 128,-1,20
 34 322 34 322 59 322 c 0,21,22
 80 322 80 322 96 307.5 c 128,-1,23
 112 293 112 293 112 269 c 0,24,25
 112 255 112 255 108 246 c 1,26,27
 175 272 175 272 175 336 c 0,28,29
 175 358 175 358 169 376.5 c 128,-1,30
 163 395 163 395 155.5 406 c 128,-1,31
 148 417 148 417 138.5 425.5 c 128,-1,32
 129 434 129 434 124 437 c 128,-1,33
 119 440 119 440 116 441 c 2,34,-1
 -11 441 l 2,35,36
 -23 441 -23 441 -31 449.5 c 128,-1,37
 -39 458 -39 458 -39 470 c 128,-1,38
 -39 482 -39 482 -31 490.5 c 128,-1,39
 -23 499 -23 499 -11 499 c 2,40,-1
 534 499 l 2,41,42
 546 499 546 499 554.5 490.5 c 128,-1,43
 563 482 563 482 563 470 c 128,-1,44
 563 458 563 458 554.5 449.5 c 128,-1,45
 546 441 546 441 534 441 c 2,46,-1
 201 441 l 1,47,48
 232 397 232 397 232 336 c 0,49,50
 232 324 232 324 231 313 c 128,-1,51
 230 302 230 302 222 279 c 128,-1,52
 214 256 214 256 199.5 239 c 128,-1,53
 185 222 185 222 155 205 c 128,-1,54
 125 188 125 188 84 180 c 1,55,56
 115 128 115 128 173.5 92 c 128,-1,57
 232 56 232 56 307 56 c 0,58,59
 340 56 340 56 365 65 c 1,60,61
 305 73 305 73 271.5 116.5 c 128,-1,62
 238 160 238 160 238 211 c 0,63,64
 238 268 238 268 281.5 313.5 c 128,-1,65
 325 359 325 359 387 359 c 0,66,67
 453 359 453 359 494 314.5 c 128,-1,68
 535 270 535 270 535 214 c 0,69,70
 535 190 535 190 531 173 c 1,71,72
 531 120 531 120 468 59 c 128,-1,73
 405 -2 405 -2 307 -2 c 0,13,14
EndSplineSet
Ligature2: "'half' Half Forms lookup 0-1" uni0916 uni094D
EndChar

StartChar: Ga_half
Encoding: 112 -1 112
Width: 317
GlyphClass: 3
Flags: W
LayerCount: 2
Fore
SplineSet
95 153 m 0,0,1
 96 129 96 129 112 115.5 c 128,-1,2
 128 102 128 102 137.5 100.5 c 128,-1,3
 147 99 147 99 153 99 c 0,4,5
 209 99 209 99 215 193 c 1,6,7
 174 211 174 211 151 211 c 0,8,9
 132 211 132 211 113.5 197 c 128,-1,10
 95 183 95 183 95 153 c 0,0,1
275 249 m 2,11,-1
 275 236 l 1,12,-1
 274 234 l 1,13,-1
 274 232 l 1,14,-1
 274 217 l 2,15,16
 274 191 274 191 270 166 c 128,-1,17
 266 141 266 141 254.5 110 c 128,-1,18
 243 79 243 79 216 60 c 128,-1,19
 189 41 189 41 150 41 c 0,20,21
 100 41 100 41 68.5 76.5 c 128,-1,22
 37 112 37 112 37 157 c 0,23,24
 37 204 37 204 70 236.5 c 128,-1,25
 103 269 103 269 149 269 c 0,26,27
 177 269 177 269 216 255 c 1,28,29
 212 346 212 346 161 441 c 1,30,-1
 -7 441 l 2,31,32
 -18 441 -18 441 -27 448.5 c 128,-1,33
 -36 456 -36 456 -36 470 c 128,-1,34
 -36 484 -36 484 -27 491.5 c 128,-1,35
 -18 499 -18 499 -7 499 c 2,36,-1
 356 499 l 2,37,38
 367 499 367 499 376 490 c 128,-1,39
 385 481 385 481 385 470 c 128,-1,40
 385 459 385 459 376 450 c 128,-1,41
 367 441 367 441 356 441 c 2,42,-1
 226 441 l 1,43,44
 275 342 275 342 275 249 c 2,11,-1
EndSplineSet
Ligature2: "'half' Half Forms lookup 0-1" uni0917 uni094D
EndChar

StartChar: Gha_half
Encoding: 113 -1 113
Width: 344
GlyphClass: 3
Flags: W
LayerCount: 2
Fore
SplineSet
229 301 m 1,0,-1
 232 301 l 2,1,2
 247 301 247 301 254 292 c 128,-1,3
 261 283 261 283 261 271 c 0,4,5
 261 262 261 262 258 258 c 0,6,7
 252 250 252 250 228.5 242 c 128,-1,8
 205 234 205 234 184 234 c 0,9,10
 180 234 180 234 175 233.5 c 128,-1,11
 170 233 170 233 159 229.5 c 128,-1,12
 148 226 148 226 139.5 219.5 c 128,-1,13
 131 213 131 213 124 199.5 c 128,-1,14
 117 186 117 186 117 168 c 0,15,16
 117 143 117 143 129.5 125.5 c 128,-1,17
 142 108 142 108 161 100.5 c 128,-1,18
 180 93 180 93 195 90 c 128,-1,19
 210 87 210 87 223 87 c 0,20,21
 252 87 252 87 277 98 c 128,-1,22
 302 109 302 109 316.5 126 c 128,-1,23
 331 143 331 143 338 153 c 128,-1,24
 345 163 345 163 348 171 c 2,25,-1
 348 172 l 1,26,27
 357 193 357 193 377 193 c 0,28,29
 388 193 388 193 396.5 185 c 128,-1,30
 405 177 405 177 405 164 c 0,31,32
 405 129 405 129 350.5 79 c 128,-1,33
 296 29 296 29 219 29 c 0,34,35
 183 29 183 29 149 41 c 128,-1,36
 115 53 115 53 87 85.5 c 128,-1,37
 59 118 59 118 59 166 c 0,38,39
 59 217 59 217 90 251 c 1,40,41
 33 288 33 288 33 353 c 0,42,43
 33 400 33 400 63 441 c 1,44,-1
 -17 441 l 2,45,46
 -21 441 -21 441 -26 442 c 128,-1,47
 -31 443 -31 443 -38.5 450 c 128,-1,48
 -46 457 -46 457 -46 470 c 0,49,50
 -46 499 -46 499 -17 499 c 2,51,-1
 434 499 l 2,52,53
 448 499 448 499 455.5 490 c 128,-1,54
 463 481 463 481 463 470 c 128,-1,55
 463 459 463 459 455.5 450 c 128,-1,56
 448 441 448 441 434 441 c 2,57,-1
 184 441 l 2,58,59
 181 440 181 440 173 440 c 0,60,61
 141 440 141 440 116 414.5 c 128,-1,62
 91 389 91 389 91 355 c 0,63,64
 91 326 91 326 109.5 308.5 c 128,-1,65
 128 291 128 291 153 291 c 2,66,-1
 161 291 l 1,67,68
 208 296 208 296 225 300 c 0,69,70
 226 300 226 300 228 300 c 2,71,-1
 229 301 l 1,0,-1
EndSplineSet
Ligature2: "'half' Half Forms lookup 0-1" uni0918 uni094D
EndChar

StartChar: Cha_half
Encoding: 114 -1 114
Width: 419
GlyphClass: 3
Flags: W
LayerCount: 2
Fore
SplineSet
463 274 m 0,0,1
 475 274 475 274 483.5 265.5 c 128,-1,2
 492 257 492 257 492 248 c 0,3,4
 492 224 492 224 458 182 c 128,-1,5
 424 140 424 140 399 118 c 0,6,7
 370 92 370 92 327 74.5 c 128,-1,8
 284 57 284 57 242 57 c 0,9,10
 180 57 180 57 133 93 c 128,-1,11
 86 129 86 129 83 190 c 2,12,-1
 83 199 l 2,13,14
 83 256 83 256 128 300 c 1,15,-1
 43 300 l 2,16,17
 30 300 30 300 22 309 c 128,-1,18
 14 318 14 318 14 330 c 0,19,20
 14 344 14 344 23 351.5 c 128,-1,21
 32 359 32 359 43 359 c 2,22,-1
 312 359 l 2,23,24
 324 359 324 359 333 351 c 128,-1,25
 342 343 342 343 342 330 c 0,26,27
 342 318 342 318 333 309 c 128,-1,28
 324 300 324 300 312 300 c 2,29,-1
 254 300 l 1,30,-1
 244 298 l 1,31,32
 142 272 142 272 142 188 c 2,33,-1
 142 186 l 2,34,35
 143 156 143 156 173 135.5 c 128,-1,36
 203 115 203 115 243 115 c 0,37,38
 282 115 282 115 318.5 134 c 128,-1,39
 355 153 355 153 380 181.5 c 128,-1,40
 405 210 405 210 416.5 225.5 c 128,-1,41
 428 241 428 241 434 252 c 0,42,43
 444 274 444 274 463 274 c 0,0,1
-29 470 m 128,-1,45
 -29 481 -29 481 -20 490 c 128,-1,46
 -11 499 -11 499 0 499 c 2,47,-1
 459 499 l 2,48,49
 470 499 470 499 479 491.5 c 128,-1,50
 488 484 488 484 488 470 c 128,-1,51
 488 456 488 456 479 448.5 c 128,-1,52
 470 441 470 441 459 441 c 2,53,-1
 0 441 l 2,54,55
 -11 441 -11 441 -20 450 c 128,-1,44
 -29 459 -29 459 -29 470 c 128,-1,45
EndSplineSet
Ligature2: "'half' Half Forms lookup 0-1" uni091A uni094D
EndChar

StartChar: Chha_half
Encoding: 115 -1 115
Width: 532
GlyphClass: 3
Flags: W
LayerCount: 2
Fore
SplineSet
428 173 m 5,0,1
 445 208 445 208 447 242 c 4,2,3
 447 247 447 247 447 251 c 4,4,5
 447 278 447 278 437 289 c 4,6,7
 425 302 425 302 412 302 c 132,-1,8
 399 302 399 302 388 291 c 4,9,10
 378 281 378 281 378 263 c 4,11,12
 378 242 378 242 386 225 c 4,13,14
 393 211 393 211 400 202.5 c 132,-1,15
 407 194 407 194 416 185.5 c 132,-1,16
 425 177 425 177 428 173 c 5,0,1
586 499 m 6,17,18
 598 499 598 499 606.5 490.5 c 132,-1,19
 615 482 615 482 615 470 c 132,-1,20
 615 458 615 458 606.5 449.5 c 132,-1,21
 598 441 598 441 586 441 c 6,22,-1
 288 441 l 5,23,-1
 288 354 l 6,24,25
 288 342 288 342 279.5 333.5 c 132,-1,26
 271 325 271 325 259 325 c 6,27,-1
 186 325 l 6,28,29
 150 325 150 325 129.5 314.5 c 132,-1,30
 109 304 109 304 109 293 c 132,-1,31
 109 282 109 282 114 277 c 4,32,33
 129 262 129 262 199 262 c 4,34,35
 204 262 204 262 209 262 c 4,36,37
 227 262 227 262 250 266 c 4,38,39
 258 267 258 267 265 268 c 4,40,41
 277 268 277 268 283 263 c 4,42,43
 293 256 293 256 295 244 c 132,-1,44
 297 232 297 232 290 222.5 c 132,-1,45
 283 213 283 213 270.5 211 c 132,-1,46
 258 209 258 209 248.5 207 c 132,-1,47
 239 205 239 205 232 205 c 132,-1,48
 225 205 225 205 212 201.5 c 132,-1,49
 199 198 199 198 182.5 190 c 132,-1,50
 166 182 166 182 154.5 164.5 c 132,-1,51
 143 147 143 147 143 125 c 132,-1,52
 143 103 143 103 164.5 85.5 c 132,-1,53
 186 68 186 68 220 59 c 4,54,55
 240 54 240 54 257 55 c 4,56,57
 269 55 269 55 281 57 c 4,58,59
 346 70 346 70 394 124 c 5,60,61
 390 129 390 129 376.5 142.5 c 132,-1,62
 363 156 363 156 353 167.5 c 132,-1,63
 343 179 343 179 332.5 202.5 c 132,-1,64
 322 226 322 226 320 252 c 4,65,66
 320 256 320 256 320 260 c 4,67,68
 320 303 320 303 346 331 c 4,69,70
 374 361 374 361 412 360.5 c 132,-1,71
 450 360 450 360 479 329 c 4,72,73
 505 301 505 301 505 251 c 4,74,75
 505 245 505 245 505 240 c 4,76,77
 500 156 500 156 431 78 c 4,78,79
 372 16 372 16 293 -0 c 4,80,81
 276 -3 276 -3 258 -4 c 4,82,83
 233 -4 233 -4 206 3 c 4,84,85
 159 14 159 14 128 40 c 4,86,87
 85 75 85 75 85 125 c 132,-1,88
 85 175 85 175 118 212 c 5,89,90
 90 220 90 220 70.5 238.5 c 132,-1,91
 51 257 51 257 51 290 c 4,92,93
 51 339 51 339 100 365 c 4,94,95
 135 383 135 383 186 383 c 6,96,-1
 230 383 l 5,97,-1
 230 441 l 5,98,-1
 -13 441 l 6,99,100
 -25 441 -25 441 -33.5 449.5 c 132,-1,101
 -42 458 -42 458 -42 470 c 132,-1,102
 -42 482 -42 482 -33.5 490.5 c 132,-1,103
 -25 499 -25 499 -13 499 c 6,104,-1
 586 499 l 6,17,18
EndSplineSet
LCarets2: 1 0
Ligature2: "'half' Half Forms lookup 0-1" uni091B uni094D
EndChar

StartChar: Ja_half
Encoding: 116 -1 116
Width: 479
GlyphClass: 3
Flags: W
LayerCount: 2
Fore
SplineSet
92 255 m 1,0,-1
 92 253 l 1,1,-1
 93 252 l 1,2,3
 118 195 118 195 166 162 c 0,4,5
 215 128 215 128 266 128 c 0,6,7
 286 128 286 128 308.5 133.5 c 128,-1,8
 331 139 331 139 353.5 160 c 128,-1,9
 376 181 376 181 376 214 c 0,10,11
 376 253 376 253 346 277.5 c 128,-1,12
 316 302 316 302 263 302 c 2,13,-1
 196 302 l 2,14,15
 184 302 184 302 175 310 c 128,-1,16
 166 318 166 318 166 331 c 0,17,18
 166 343 166 343 174.5 351.5 c 128,-1,19
 183 360 183 360 196 360 c 2,20,-1
 513 360 l 2,21,22
 517 360 517 360 522 359 c 128,-1,23
 527 358 527 358 534.5 351 c 128,-1,24
 542 344 542 344 542 331 c 0,25,26
 542 302 542 302 513 302 c 2,27,-1
 404 302 l 1,28,29
 434 266 434 266 434 216 c 0,30,31
 434 154 434 154 389.5 112 c 128,-1,32
 345 70 345 70 270 70 c 0,33,34
 216 70 216 70 168.5 93 c 128,-1,35
 121 116 121 116 93.5 147.5 c 128,-1,36
 66 179 66 179 50 208.5 c 128,-1,37
 34 238 34 238 34 255 c 0,38,39
 34 282 34 282 63 282 c 0,40,41
 71 282 71 282 76.5 278 c 128,-1,42
 82 274 82 274 84.5 270 c 128,-1,43
 87 266 87 266 92 255 c 1,0,-1
-15 470 m 128,-1,45
 -15 481 -15 481 -7.5 490 c 128,-1,46
 0 499 0 499 14 499 c 2,47,-1
 533 499 l 2,48,49
 537 499 537 499 542 498 c 128,-1,50
 547 497 547 497 554.5 490 c 128,-1,51
 562 483 562 483 562 470 c 0,52,53
 562 441 562 441 533 441 c 2,54,-1
 14 441 l 2,55,56
 0 441 0 441 -7.5 450 c 128,-1,44
 -15 459 -15 459 -15 470 c 128,-1,45
EndSplineSet
Ligature2: "'half' Half Forms lookup 0-1" uni091C uni094D
EndChar

StartChar: Jha_half
Encoding: 117 -1 117
Width: 562
GlyphClass: 3
Flags: W
LayerCount: 2
Fore
SplineSet
134 340 m 2,0,-1
 137 340 l 1,1,2
 204 354 204 354 204 404 c 2,3,-1
 204 419 l 2,4,5
 204 436 204 436 192.5 445 c 128,-1,6
 181 454 181 454 165 454 c 0,7,8
 140 454 140 454 117.5 434 c 128,-1,9
 95 414 95 414 95 383 c 0,10,11
 95 349 95 349 120 342 c 1,12,-1
 122 342 l 2,13,14
 130 340 130 340 134 340 c 2,0,-1
84 127 m 0,15,16
 84 108 84 108 97.5 96.5 c 128,-1,17
 111 85 111 85 122 82.5 c 128,-1,18
 133 80 133 80 142 80 c 0,19,20
 161 80 161 80 174 94.5 c 128,-1,21
 187 109 187 109 192.5 132 c 128,-1,22
 198 155 198 155 199.5 171 c 128,-1,23
 201 187 201 187 201 201 c 1,24,25
 84 188 84 188 84 127 c 0,15,16
587 299 m 2,26,-1
 573 299 l 2,27,28
 521 299 521 299 487 257 c 128,-1,29
 453 215 453 215 450 190 c 2,30,-1
 450 26 l 2,31,32
 450 12 450 12 441 4.5 c 128,-1,33
 432 -3 432 -3 421 -3 c 128,-1,34
 410 -3 410 -3 401 4.5 c 128,-1,35
 392 12 392 12 392 26 c 2,36,-1
 392 203 l 1,37,-1
 259 203 l 1,38,-1
 259 201 l 2,39,40
 259 177 259 177 255.5 153 c 128,-1,41
 252 129 252 129 241.5 96 c 128,-1,42
 231 63 231 63 204.5 42.5 c 128,-1,43
 178 22 178 22 140 22 c 0,44,45
 92 22 92 22 59 52 c 128,-1,46
 26 82 26 82 26 131 c 0,47,48
 26 211 26 211 121 243 c 0,49,50
 157 255 157 255 177 258 c 0,51,52
 202 261 202 261 202 274 c 128,-1,53
 202 287 202 287 203 303 c 1,54,55
 170 284 170 284 137 282 c 0,56,57
 96 282 96 282 66.5 307 c 128,-1,58
 37 332 37 332 37 381 c 0,59,60
 37 411 37 411 51 441 c 1,61,-1
 -4 441 l 2,62,63
 -15 441 -15 441 -24 450 c 128,-1,64
 -33 459 -33 459 -33 470 c 128,-1,65
 -33 481 -33 481 -24 490 c 128,-1,66
 -15 499 -15 499 -4 499 c 2,67,-1
 108 499 l 2,68,69
 110 499 110 499 112 500 c 2,70,-1
 114 500 l 1,71,72
 134 512 134 512 164 512 c 0,73,74
 203 512 203 512 232.5 487 c 128,-1,75
 262 462 262 462 262 418 c 0,76,77
 262 366 262 366 261 325 c 2,78,-1
 261 280 l 2,79,80
 261 278 261 278 260.5 275 c 128,-1,81
 260 272 260 272 260 271 c 2,82,-1
 260 262 l 1,83,-1
 392 262 l 1,84,-1
 392 441 l 1,85,-1
 340 441 l 2,86,87
 328 441 328 441 319 449 c 128,-1,88
 310 457 310 457 310 470 c 128,-1,89
 310 483 310 483 319 491 c 128,-1,90
 328 499 328 499 340 499 c 2,91,-1
 605 499 l 2,92,93
 616 499 616 499 625 491.5 c 128,-1,94
 634 484 634 484 634 470 c 128,-1,95
 634 456 634 456 625 448.5 c 128,-1,96
 616 441 616 441 605 441 c 2,97,-1
 450 441 l 1,98,-1
 450 303 l 1,99,100
 502 357 502 357 571 357 c 2,101,-1
 573 357 l 2,102,103
 619 357 619 357 619 329 c 0,104,105
 619 326 619 326 618 321 c 128,-1,106
 617 316 617 316 609 307.5 c 128,-1,107
 601 299 601 299 587 299 c 2,26,-1
EndSplineSet
Ligature2: "'half' Half Forms lookup 0-1" uni091D uni094D
EndChar

StartChar: Yna_half
Encoding: 118 -1 118
Width: 427
GlyphClass: 3
Flags: W
LayerCount: 2
Fore
SplineSet
463 278 m 1,0,1
 475 287 475 287 486 287 c 2,2,-1
 490 287 l 1,3,4
 514 275 514 275 514 259 c 0,5,6
 514 240 514 240 481 220.5 c 128,-1,7
 448 201 448 201 394 200 c 1,8,9
 391 183 391 183 384 166 c 128,-1,10
 377 149 377 149 361 126 c 128,-1,11
 345 103 345 103 312 88.5 c 128,-1,12
 279 74 279 74 234 74 c 0,13,14
 181 74 181 74 137.5 97 c 128,-1,15
 94 120 94 120 70.5 151.5 c 128,-1,16
 47 183 47 183 34.5 209 c 128,-1,17
 22 235 22 235 22 247 c 128,-1,18
 22 259 22 259 30.5 267 c 128,-1,19
 39 275 39 275 51 275 c 0,20,21
 72 275 72 275 78 253 c 1,22,-1
 78 251 l 1,23,-1
 79 250 l 1,24,25
 94 207 94 207 135.5 169.5 c 128,-1,26
 177 132 177 132 239 132 c 0,27,28
 247 132 247 132 256 133 c 128,-1,29
 265 134 265 134 281 139.5 c 128,-1,30
 297 145 297 145 309 154.5 c 128,-1,31
 321 164 321 164 330 183.5 c 128,-1,32
 339 203 339 203 339 229 c 0,33,34
 339 265 339 265 317.5 295 c 128,-1,35
 296 325 296 325 253 325 c 0,36,37
 220 325 220 325 197 298 c 1,38,-1
 197 297 l 1,39,40
 185 281 185 281 172 280 c 2,41,-1
 169 280 l 2,42,43
 159 280 159 280 150 288.5 c 128,-1,44
 141 297 141 297 141 308 c 0,45,46
 141 317 141 317 150.5 333 c 128,-1,47
 160 349 160 349 188 366 c 128,-1,48
 216 383 216 383 255 383 c 0,49,50
 335 383 335 383 374 316 c 0,51,52
 390 288 390 288 394 258 c 1,53,54
 429 259 429 259 462 278 c 1,55,-1
 463 278 l 1,0,1
-39 470 m 128,-1,57
 -39 481 -39 481 -31.5 490 c 128,-1,58
 -24 499 -24 499 -10 499 c 2,59,-1
 517 499 l 2,60,61
 521 499 521 499 526 498 c 128,-1,62
 531 497 531 497 538.5 490 c 128,-1,63
 546 483 546 483 546 470 c 0,64,65
 546 441 546 441 517 441 c 2,66,-1
 -10 441 l 2,67,68
 -24 441 -24 441 -31.5 450 c 128,-1,56
 -39 459 -39 459 -39 470 c 128,-1,57
EndSplineSet
Ligature2: "'half' Half Forms lookup 0-1" uni091E uni094D
EndChar

StartChar: NNa_half
Encoding: 119 -1 119
Width: 349
GlyphClass: 3
Flags: W
LayerCount: 2
Fore
SplineSet
94 274 m 0,0,1
 94 250 94 250 97 228 c 128,-1,2
 100 206 100 206 107.5 181 c 128,-1,3
 115 156 115 156 132.5 140.5 c 128,-1,4
 150 125 150 125 175 125 c 2,5,-1
 177 125 l 2,6,7
 205 125 205 125 226 149 c 128,-1,8
 247 173 247 173 255 210 c 0,9,10
 259 230 259 230 259 266 c 0,11,12
 259 333 259 333 243 441 c 1,13,-1
 109 441 l 1,14,15
 94 374 94 374 94 274 c 0,0,1
-42 470 m 128,-1,17
 -42 481 -42 481 -34.5 490 c 128,-1,18
 -27 499 -27 499 -13 499 c 2,19,-1
 367 499 l 2,20,21
 381 499 381 499 388.5 490 c 128,-1,22
 396 481 396 481 396 470 c 128,-1,23
 396 459 396 459 388.5 450 c 128,-1,24
 381 441 381 441 367 441 c 2,25,-1
 302 441 l 1,26,27
 317 339 317 339 317 269 c 2,28,-1
 317 261 l 2,29,30
 317 176 317 176 279 123 c 0,31,32
 240 67 240 67 175 67 c 2,33,-1
 173 67 l 2,34,35
 36 67 36 67 36 292 c 1,36,-1
 37 308 l 2,37,38
 38 371 38 371 50 441 c 1,39,-1
 -13 441 l 2,40,41
 -27 441 -27 441 -34.5 450 c 128,-1,16
 -42 459 -42 459 -42 470 c 128,-1,17
EndSplineSet
Ligature2: "'half' Half Forms lookup 0-1" uni0923 uni094D
EndChar

StartChar: Ta_half
Encoding: 120 -1 120
Width: 303
GlyphClass: 3
Flags: W
LayerCount: 2
Fore
SplineSet
185 19 m 0,0,1
 185 10 185 10 177.5 1 c 128,-1,2
 170 -8 170 -8 156 -8 c 0,3,4
 143 -8 143 -8 117.5 14.5 c 128,-1,5
 92 37 92 37 68 83 c 128,-1,6
 44 129 44 129 44 180 c 0,7,8
 44 260 44 260 100.5 313 c 128,-1,9
 157 366 157 366 242 366 c 0,10,11
 308 366 308 366 361 328 c 128,-1,12
 414 290 414 290 414 259 c 0,13,14
 414 246 414 246 406 238 c 128,-1,15
 398 230 398 230 386 230 c 0,16,17
 368 230 368 230 358 248 c 0,18,19
 318 308 318 308 236 308 c 0,20,21
 184 308 184 308 143 272.5 c 128,-1,22
 102 237 102 237 102 178 c 0,23,24
 102 107 102 107 163 53 c 0,25,26
 185 34 185 34 185 19 c 0,0,1
-50 470 m 0,27,28
 -50 499 -50 499 -21 499 c 2,29,-1
 440 499 l 2,30,31
 454 499 454 499 461.5 490 c 128,-1,32
 469 481 469 481 469 470 c 128,-1,33
 469 459 469 459 461.5 450 c 128,-1,34
 454 441 454 441 440 441 c 2,35,-1
 -21 441 l 2,36,37
 -25 441 -25 441 -30 442 c 128,-1,38
 -35 443 -35 443 -42.5 450 c 128,-1,39
 -50 457 -50 457 -50 470 c 0,27,28
EndSplineSet
Ligature2: "'half' Half Forms lookup 0-1" uni0924 uni094D
EndChar

StartChar: Tha_half
Encoding: 121 -1 121
Width: 346
GlyphClass: 3
Flags: W
LayerCount: 2
Fore
SplineSet
152 314 m 0,0,1
 125 314 125 314 95.5 349.5 c 128,-1,2
 66 385 66 385 66 424 c 0,3,4
 66 433 66 433 67 440 c 1,5,-1
 10 440 l 2,6,7
 -4 440 -4 440 -11.5 450 c 128,-1,8
 -19 460 -19 460 -19 470 c 0,9,10
 -19 481 -19 481 -10 490 c 128,-1,11
 -1 499 -1 499 10 499 c 2,12,-1
 105 499 l 1,13,14
 134 519 134 519 161 519 c 0,15,16
 209 519 209 519 242 480 c 128,-1,17
 275 441 275 441 275 391 c 0,18,19
 275 356 275 356 260.5 321 c 128,-1,20
 246 286 246 286 203.5 252 c 128,-1,21
 161 218 161 218 96 209 c 1,22,23
 105 164 105 164 135 130.5 c 128,-1,24
 165 97 165 97 226 97 c 0,25,26
 262 97 262 97 292 114.5 c 128,-1,27
 322 132 322 132 339 157 c 128,-1,28
 356 182 356 182 365 204 c 128,-1,29
 374 226 374 226 374 239 c 128,-1,30
 374 252 374 252 382.5 260.5 c 128,-1,31
 391 269 391 269 403 269 c 0,32,33
 432 269 432 269 432 235 c 0,34,35
 432 217 432 217 419.5 186 c 128,-1,36
 407 155 407 155 384 121 c 128,-1,37
 361 87 361 87 320 62.5 c 128,-1,38
 279 38 279 38 230 38 c 0,39,40
 175 38 175 38 133.5 60.5 c 128,-1,41
 92 83 92 83 72.5 116 c 128,-1,42
 53 149 53 149 44 176 c 128,-1,43
 35 203 35 203 34 224 c 0,44,45
 34 264 34 264 59 264 c 2,46,-1
 72 264 l 2,47,48
 80 266 80 266 93 267 c 0,49,50
 217 295 217 295 217 390 c 0,51,52
 217 424 217 424 199 442.5 c 128,-1,53
 181 461 181 461 166 461 c 0,54,55
 154 461 154 461 139.5 452.5 c 128,-1,56
 125 444 125 444 124 425 c 0,57,58
 124 410 124 410 137 393 c 128,-1,59
 150 376 150 376 163 370 c 0,60,61
 181 363 181 363 181 343 c 0,62,63
 181 331 181 331 173 322.5 c 128,-1,64
 165 314 165 314 152 314 c 0,0,1
289 470 m 0,65,66
 289 481 289 481 298 490 c 128,-1,67
 307 499 307 499 318 499 c 2,68,-1
 403 499 l 2,69,70
 414 499 414 499 423 491.5 c 128,-1,71
 432 484 432 484 432 470 c 0,72,73
 432 440 432 440 403 440 c 2,74,-1
 318 440 l 2,75,76
 304 440 304 440 296.5 450 c 128,-1,77
 289 460 289 460 289 470 c 0,65,66
EndSplineSet
Ligature2: "'half' Half Forms lookup 0-1" uni0925 uni094D
EndChar

StartChar: Dha_half
Encoding: 122 -1 122
Width: 331
GlyphClass: 3
Flags: W
LayerCount: 2
Fore
SplineSet
170 368 m 0,0,1
 157 368 157 368 149.5 376.5 c 128,-1,2
 142 385 142 385 142 397 c 0,3,4
 142 407 142 407 147.5 415 c 128,-1,5
 153 423 153 423 161 424 c 0,6,7
 174 427 174 427 174 443 c 0,8,9
 174 467 174 467 150 467 c 0,10,11
 141 467 141 467 132 464.5 c 128,-1,12
 123 462 123 462 113 449 c 128,-1,13
 103 436 103 436 103 414 c 0,14,15
 103 352 103 352 158 322 c 1,16,17
 185 330 185 330 201 330 c 0,18,19
 218 330 218 330 226.5 321 c 128,-1,20
 235 312 235 312 235 301 c 0,21,22
 235 291 235 291 226.5 281.5 c 128,-1,23
 218 272 218 272 201 272 c 0,24,25
 168 272 168 272 132.5 246.5 c 128,-1,26
 97 221 97 221 97 182 c 0,27,28
 97 148 97 148 128 126 c 128,-1,29
 159 104 159 104 204 104 c 0,30,31
 248 104 248 104 283 126.5 c 128,-1,32
 318 149 318 149 330.5 168 c 128,-1,33
 343 187 343 187 348 200 c 0,34,35
 358 226 358 226 378 226 c 0,36,37
 381 226 381 226 386 225 c 128,-1,38
 391 224 391 224 398.5 217 c 128,-1,39
 406 210 406 210 406 199 c 0,40,41
 406 153 406 153 347.5 99.5 c 128,-1,42
 289 46 289 46 204 46 c 0,43,44
 140 46 140 46 89.5 83 c 128,-1,45
 39 120 39 120 39 185 c 0,46,47
 39 252 39 252 98 294 c 1,48,49
 45 342 45 342 45 416 c 0,50,51
 45 427 45 427 47 441 c 1,52,-1
 -7 441 l 2,53,54
 -11 441 -11 441 -16 442 c 128,-1,55
 -21 443 -21 443 -28.5 450 c 128,-1,56
 -36 457 -36 457 -36 470 c 0,57,58
 -36 499 -36 499 -7 499 c 2,59,-1
 79 499 l 1,60,61
 110 525 110 525 146 525 c 0,62,63
 179 525 179 525 205.5 504.5 c 128,-1,64
 232 484 232 484 232 443 c 0,65,66
 232 411 232 411 212 389.5 c 128,-1,67
 192 368 192 368 170 368 c 0,0,1
268 470 m 0,68,69
 268 499 268 499 297 499 c 2,70,-1
 369 499 l 2,71,72
 373 499 373 499 378 498 c 128,-1,73
 383 497 383 497 390.5 490 c 128,-1,74
 398 483 398 483 398 470 c 0,75,76
 398 441 398 441 369 441 c 2,77,-1
 297 441 l 2,78,79
 293 441 293 441 288 442 c 128,-1,80
 283 443 283 443 275.5 450 c 128,-1,81
 268 457 268 457 268 470 c 0,68,69
EndSplineSet
Ligature2: "'half' Half Forms lookup 0-1" uni0927 uni094D
EndChar

StartChar: Na_half
Encoding: 123 -1 123
Width: 343
GlyphClass: 3
Flags: W
LayerCount: 2
Fore
SplineSet
145 131 m 2,0,1
 167 131 167 131 180.5 145.5 c 128,-1,2
 194 160 194 160 194 183 c 0,3,4
 194 205 194 205 177.5 225.5 c 128,-1,5
 161 246 161 246 136 251 c 1,6,7
 89 230 89 230 89 190 c 0,8,9
 89 185 89 185 91.5 173.5 c 128,-1,10
 94 162 94 162 107.5 146.5 c 128,-1,11
 121 131 121 131 143 131 c 2,12,-1
 145 131 l 2,0,1
369 250 m 2,13,-1
 340 257 l 1,14,-1
 338 257 l 1,15,-1
 337 258 l 1,16,-1
 336 258 l 1,17,18
 301 269 301 269 259 270 c 0,19,20
 243 270 243 270 217 268 c 1,21,22
 252 230 252 230 252 183 c 0,23,24
 252 146 252 146 226.5 109.5 c 128,-1,25
 201 73 201 73 147 73 c 0,26,27
 97 73 97 73 64.5 108 c 128,-1,28
 32 143 32 143 32 190 c 0,29,30
 32 258 32 258 94.5 293 c 128,-1,31
 157 328 157 328 246 328 c 0,32,33
 328 328 328 328 374 307 c 0,34,35
 396 297 396 297 396 277 c 0,36,37
 396 266 396 266 388.5 258 c 128,-1,38
 381 250 381 250 369 250 c 2,13,-1
393 470 m 128,-1,40
 393 458 393 458 384.5 449.5 c 128,-1,41
 376 441 376 441 364 441 c 2,42,-1
 -52 441 l 2,43,44
 -65 441 -65 441 -73 449 c 128,-1,45
 -81 457 -81 457 -81 470 c 128,-1,46
 -81 483 -81 483 -73 491 c 128,-1,47
 -65 499 -65 499 -52 499 c 2,48,-1
 364 499 l 2,49,50
 376 499 376 499 384.5 490.5 c 128,-1,39
 393 482 393 482 393 470 c 128,-1,40
EndSplineSet
Ligature2: "'half' Half Forms lookup 0-1" uni0928 uni094D
EndChar

StartChar: Pa_half
Encoding: 124 -1 124
Width: 277
GlyphClass: 3
Flags: W
LayerCount: 2
Fore
SplineSet
351 210 m 0,0,1
 351 169 351 169 308 135 c 128,-1,2
 265 101 265 101 210 101 c 0,3,4
 151 101 151 101 104 142 c 128,-1,5
 57 183 57 183 48 261 c 0,6,7
 46 287 46 287 46 308 c 0,8,9
 46 363 46 363 57 440 c 1,10,-1
 3 440 l 2,11,12
 -8 440 -8 440 -17 447.5 c 128,-1,13
 -26 455 -26 455 -26 469 c 0,14,15
 -26 499 -26 499 3 499 c 2,16,-1
 351 499 l 2,17,18
 380 499 380 499 380 469 c 0,19,20
 380 455 380 455 371 447.5 c 128,-1,21
 362 440 362 440 351 440 c 2,22,-1
 115 440 l 1,23,24
 104 360 104 360 104 310 c 0,25,26
 104 158 104 158 215 158 c 0,27,28
 243 160 243 160 266.5 176.5 c 128,-1,29
 290 193 290 193 294 216 c 0,30,31
 295 228 295 228 303.5 235 c 128,-1,32
 312 242 312 242 323 242 c 0,33,34
 351 242 351 242 351 210 c 0,0,1
EndSplineSet
Ligature2: "'half' Half Forms lookup 0-1" uni092A uni094D
EndChar

StartChar: Pha_half
Encoding: 125 -1 125
Width: 452
GlyphClass: 3
Flags: W
LayerCount: 2
Fore
SplineSet
202 159 m 0,0,1
 227 159 227 159 252.5 176 c 128,-1,2
 278 193 278 193 282 217 c 0,3,4
 282 221 282 221 283 222 c 2,5,-1
 283 441 l 1,6,-1
 104 441 l 1,7,8
 93 361 93 361 93 311 c 0,9,10
 93 270 93 270 99 242 c 128,-1,11
 105 214 105 214 127.5 190 c 128,-1,12
 150 166 150 166 191 160 c 0,13,14
 195 159 195 159 202 159 c 0,0,1
478 300 m 2,15,-1
 464 300 l 2,16,17
 414 300 414 300 379 259.5 c 128,-1,18
 344 219 344 219 341 190 c 2,19,-1
 341 26 l 2,20,21
 341 15 341 15 333.5 6 c 128,-1,22
 326 -3 326 -3 312 -3 c 128,-1,23
 298 -3 298 -3 290.5 6 c 128,-1,24
 283 15 283 15 283 26 c 2,25,-1
 283 126 l 1,26,27
 246 101 246 101 199 101 c 0,28,29
 139 101 139 101 92 143 c 128,-1,30
 45 185 45 185 37 259 c 0,31,32
 34 282 34 282 34 310 c 0,33,34
 36 376 36 376 45 441 c 1,35,-1
 2 441 l 2,36,37
 -12 441 -12 441 -19.5 450 c 128,-1,38
 -27 459 -27 459 -27 470 c 128,-1,39
 -27 481 -27 481 -19.5 490 c 128,-1,40
 -12 499 -12 499 2 499 c 2,41,-1
 524 499 l 2,42,43
 536 499 536 499 545 491 c 128,-1,44
 554 483 554 483 554 470 c 0,45,46
 554 459 554 459 546.5 450 c 128,-1,47
 539 441 539 441 524 441 c 2,48,-1
 341 441 l 1,49,-1
 341 304 l 1,50,51
 394 358 394 358 462 358 c 2,52,-1
 464 358 l 2,53,54
 510 358 510 358 510 330 c 0,55,56
 510 327 510 327 509 322 c 128,-1,57
 508 317 508 317 500 308.5 c 128,-1,58
 492 300 492 300 478 300 c 2,15,-1
EndSplineSet
Ligature2: "'half' Half Forms lookup 0-1" uni092B uni094D
EndChar

StartChar: Ba_half
Encoding: 126 -1 126
Width: 317
GlyphClass: 3
Flags: W
LayerCount: 2
Fore
SplineSet
-57 470 m 128,-1,1
 -57 481 -57 481 -49.5 490 c 128,-1,2
 -42 499 -42 499 -28 499 c 2,3,-1
 410 499 l 2,4,5
 424 499 424 499 431.5 490 c 128,-1,6
 439 481 439 481 439 470 c 128,-1,7
 439 459 439 459 431.5 450 c 128,-1,8
 424 441 424 441 410 441 c 2,9,-1
 -28 441 l 2,10,11
 -42 441 -42 441 -49.5 450 c 128,-1,0
 -57 459 -57 459 -57 470 c 128,-1,1
19 216 m 0,12,13
 19 282 19 282 74.5 329.5 c 128,-1,14
 130 377 130 377 208 377 c 0,15,16
 302 377 302 377 347.5 328.5 c 128,-1,17
 393 280 393 280 393 228 c 2,18,-1
 393 226 l 1,19,-1
 392 215 l 1,20,21
 381 151 381 151 327 105 c 128,-1,22
 273 59 273 59 200 59 c 128,-1,23
 127 59 127 59 73 105.5 c 128,-1,24
 19 152 19 152 19 216 c 0,12,13
76 216 m 0,25,26
 78 177 78 177 114 147 c 128,-1,27
 150 117 150 117 200 117 c 0,28,29
 236 117 236 117 268 135 c 1,30,-1
 107 281 l 1,31,32
 76 251 76 251 76 216 c 0,25,26
335 233 m 0,33,34
 335 256 335 256 303 287.5 c 128,-1,35
 271 319 271 319 210 319 c 0,36,37
 181 319 181 319 160 312 c 1,38,-1
 308 178 l 2,39,40
 310 177 310 177 310 176 c 2,41,-1
 311 174 l 1,42,43
 335 209 335 209 335 233 c 0,33,34
EndSplineSet
Ligature2: "'half' Half Forms lookup 0-1" uni092C uni094D
EndChar

StartChar: Bha_half
Encoding: 127 -1 127
Width: 393
GlyphClass: 3
Flags: W
LayerCount: 2
Fore
SplineSet
132 341 m 0,0,1
 139 341 139 341 151.5 343 c 128,-1,2
 164 345 164 345 183.5 361 c 128,-1,3
 203 377 203 377 203 405 c 2,4,-1
 203 420 l 2,5,6
 203 435 203 435 192.5 444.5 c 128,-1,7
 182 454 182 454 164 454 c 0,8,9
 138 454 138 454 116 434 c 128,-1,10
 94 414 94 414 94 382 c 0,11,12
 94 341 94 341 132 341 c 0,0,1
84 127 m 0,13,14
 84 108 84 108 98 96 c 128,-1,15
 112 84 112 84 123 82 c 128,-1,16
 134 80 134 80 141 80 c 0,17,18
 160 80 160 80 173 94.5 c 128,-1,19
 186 109 186 109 191.5 132 c 128,-1,20
 197 155 197 155 198.5 171 c 128,-1,21
 200 187 200 187 200 201 c 1,22,23
 84 188 84 188 84 127 c 0,13,14
114 501 m 2,24,-1
 116 501 l 1,25,26
 138 512 138 512 164 512 c 0,27,28
 208 512 208 512 234.5 485.5 c 128,-1,29
 261 459 261 459 261 418 c 0,30,31
 261 366 261 366 260 325 c 2,32,-1
 260 271 l 2,33,34
 260 270 260 270 259.5 267 c 128,-1,35
 259 264 259 264 259 262 c 1,36,-1
 400 262 l 2,37,38
 412 262 412 262 421 254 c 128,-1,39
 430 246 430 246 430 233 c 128,-1,40
 430 220 430 220 421 212 c 128,-1,41
 412 204 412 204 400 204 c 2,42,-1
 258 204 l 1,43,-1
 258 201 l 2,44,45
 258 178 258 178 254.5 154.5 c 128,-1,46
 251 131 251 131 240.5 97.5 c 128,-1,47
 230 64 230 64 204 43 c 128,-1,48
 178 22 178 22 140 22 c 0,49,50
 91 22 91 22 58 53 c 128,-1,51
 25 84 25 84 25 131 c 0,52,53
 25 212 25 212 121 243 c 0,54,55
 157 255 157 255 176 258 c 0,56,57
 201 261 201 261 201 275 c 0,58,59
 201 285 201 285 202 292 c 2,60,-1
 202 303 l 1,61,62
 168 283 168 283 134 283 c 0,63,64
 92 283 92 283 64 309.5 c 128,-1,65
 36 336 36 336 36 381 c 0,66,67
 36 411 36 411 50 441 c 1,68,-1
 -45 441 l 2,69,70
 -56 441 -56 441 -65 448.5 c 128,-1,71
 -74 456 -74 456 -74 470 c 128,-1,72
 -74 484 -74 484 -65 491.5 c 128,-1,73
 -56 499 -56 499 -45 499 c 2,74,-1
 107 499 l 2,75,76
 109 499 109 499 111 500 c 0,77,78
 113 500 113 500 114 501 c 2,24,-1
310 470 m 128,-1,80
 310 484 310 484 319 491.5 c 128,-1,81
 328 499 328 499 339 499 c 2,82,-1
 402 499 l 2,83,84
 413 499 413 499 422 490 c 128,-1,85
 431 481 431 481 431 470 c 128,-1,86
 431 459 431 459 422 450 c 128,-1,87
 413 441 413 441 402 441 c 2,88,-1
 339 441 l 2,89,90
 328 441 328 441 319 448.5 c 128,-1,79
 310 456 310 456 310 470 c 128,-1,80
EndSplineSet
Ligature2: "'half' Half Forms lookup 0-1" uni092D uni094D
EndChar

StartChar: Ma_half
Encoding: 128 -1 128
Width: 362
GlyphClass: 3
Flags: W
LayerCount: 2
Fore
SplineSet
89 146 m 0,0,1
 89 127 89 127 103 115.5 c 128,-1,2
 117 104 117 104 128.5 101.5 c 128,-1,3
 140 99 140 99 148 99 c 0,4,5
 205 99 205 99 206 220 c 1,6,7
 89 207 89 207 89 146 c 0,0,1
-49 470 m 128,-1,9
 -49 481 -49 481 -41.5 490 c 128,-1,10
 -34 499 -34 499 -20 499 c 2,11,-1
 407 499 l 2,12,13
 411 499 411 499 416 498 c 128,-1,14
 421 497 421 497 428.5 490 c 128,-1,15
 436 483 436 483 436 470 c 0,16,17
 436 441 436 441 407 441 c 2,18,-1
 248 441 l 1,19,20
 260 356 260 356 263 281 c 1,21,-1
 413 281 l 2,22,23
 425 281 425 281 434 273 c 128,-1,24
 443 265 443 265 443 252 c 128,-1,25
 443 239 443 239 434 231 c 128,-1,26
 425 223 425 223 413 223 c 2,27,-1
 264 223 l 1,28,29
 260 41 260 41 146 41 c 0,30,31
 97 41 97 41 64 72 c 128,-1,32
 31 103 31 103 31 150 c 0,33,34
 31 160 31 160 32 168.5 c 128,-1,35
 33 177 33 177 42.5 197 c 128,-1,36
 52 217 52 217 68.5 231 c 128,-1,37
 85 245 85 245 120.5 259 c 128,-1,38
 156 273 156 273 205 278 c 1,39,40
 202 352 202 352 190 441 c 1,41,-1
 -20 441 l 2,42,43
 -34 441 -34 441 -41.5 450 c 128,-1,8
 -49 459 -49 459 -49 470 c 128,-1,9
EndSplineSet
Ligature2: "'half' Half Forms lookup 0-1" uni092E uni094D
EndChar

